{
.appVersion = "1342";
classes = (
{
automatic = 1;
code = "A Aacute Abreve Acircumflex Adieresis Agrave Amacron Aogonek Aring Atilde AE AEacute B C Cacute Ccaron Ccedilla Cdotaccent D Eth Dcaron Dcroat E Eacute Ecaron Ecircumflex Edieresis Edotaccent Egrave Emacron Eogonek F G Gbreve Gcommaaccent Gdotaccent H I Iacute Icircumflex Idieresis Idotaccent Igrave Imacron Iogonek J K Kcommaaccent L Lacute Lcaron Lcommaaccent Lslash M N Nacute Ncaron Ncommaaccent Ntilde O Oacute Ocircumflex Odieresis Ograve Ohungarumlaut Omacron Oslash Oslashacute Otilde OE P Thorn Q R Racute Rcaron Rcommaaccent S Sacute Scaron Scedilla Scommaaccent Germandbls T Tcaron Tcedilla Tcommaaccent U Uacute Ucircumflex Udieresis Ugrave Uhungarumlaut Umacron Uogonek Uring V W Wacute Wcircumflex Wdieresis Wgrave X Y Yacute Ycircumflex Ydieresis Ygrave Z Zacute Zcaron Zdotaccent Delta";
name = Uppercase;
}
);
copyright = "Copyright (c) 2020 The Open Sauce Sans Authors (https://github.com/marcologous/Open-Sauce-Fonts)";
customParameters = (
{
name = licenseURL;
value = "http://scripts.sil.org/OFL";
},
{
name = license;
value = "Copyright (c) 2020 The Open Sauce Sans Authors (https://github.com/marcologous/Open-Sauce-Fonts)\012\012This Font Software is licensed under the SIL Open Font License, Version 1.1.\012This license is copied below, and is also available with a FAQ at:\012http://scripts.sil.org/OFL";
}
);
date = "2020-07-09 07:13:04 +0000";
designer = "Alfredo Marco Pradil";
designerURL = "http://www.creative-sauce.com";
familyName = "Open Sauce Sans";
featurePrefixes = (
{
automatic = 1;
code = "languagesystem DFLT dflt;\012\012languagesystem latn dflt;\012languagesystem latn AZE;\012languagesystem latn CRT;\012languagesystem latn KAZ;\012languagesystem latn TAT;\012languagesystem latn TRK;\012languagesystem latn ROM;\012languagesystem latn MOL;\012";
name = Languagesystems;
}
);
features = (
{
automatic = 1;

glyphs = (
{
color = 1;
glyphname = A;
lastChange = "2020-04-07 12:27:31 +0000";
layers = (
{
anchors = (
{
name = bottom;
position = "{304, 0}";
},
{
name = ogonek;
position = "{660, 0}";
},
{
name = top;
position = "{439, 763}";
}
);
guideLines = (
{
angle = 260;
position = "{372, 382}";
}
);
layerId = "FD6EB2BB-8839-4CDB-86BF-4EEAE3F02079";
paths = (
{
closed = 1;
nodes = (
"137 0 LINE",
"203 137 LINE",
"464 137 LINE",
"483 0 LINE",
"660 0 LINE",
"534 763 LINE",
"340 763 LINE",
"-56 0 LINE"
);
},
{
closed = 1;
nodes = (
"362 466 LINE SMOOTH",
"388 519 OFFCURVE",
"393 551 OFFCURVE",
"397 580 CURVE",
"416 580 LINE",
"411 564 OFFCURVE",
"409 532 OFFCURVE",
"417 478 CURVE SMOOTH",
"443 292 LINE",
"278 292 LINE"
);
}
);
width = 726;
},
{
anchors = (
{
name = bottom;
position = "{291, 0}";
},
{
name = ogonek;
position = "{623, 0}";
},
{
name = top;
position = "{426, 763}";
}
);
guideLines = (
{
position = "{390, 436}";
}
);
layerId = "11907447-A26F-432E-A335-7727E0303767";
paths = (
{
closed = 1;
nodes = (
"52 0 LINE",
"152 187 LINE",
"498 187 LINE",
"532 0 LINE",
"623 0 LINE",
"477 763 LINE",
"373 763 LINE",
"-43 0 LINE"
);
},
{
closed = 1;
nodes = (
"371 593 LINE SMOOTH",
"384 618 OFFCURVE",
"396 642 OFFCURVE",
"402 677 CURVE",
"419 677 LINE",
"413 648 OFFCURVE",
"420 624 OFFCURVE",
"424 599 CURVE SMOOTH",
"481 269 LINE",
"197 269 LINE"
);
}
);
width = 702;
},
{
anchors = (
{
name = bottom;
position = "{286, 0}";
},
{
name = ogonek;
position = "{613, 0}";
},
{
name = top;
position = "{420, 763}";
}
);
guideLines = (
{
position = "{408, 436}";
}
);
layerId = "2F4EEC1B-9E89-4E08-AD53-AB625B6E887D";
paths = (
{
closed = 1;
nodes = (
"29 0 LINE",
"143 206 LINE",
"503 206 LINE",
"543 0 LINE",
"613 0 LINE",
"459 763 LINE",
"379 763 LINE",
"-43 0 LINE"
);
},
{
closed = 1;
nodes = (
"362 605 LINE SMOOTH",
"383 644 OFFCURVE",
"395 666 OFFCURVE",
"401 700 CURVE",
"417 700 LINE",
"412 670 OFFCURVE",
"418 648 OFFCURVE",
"426 609 CURVE SMOOTH",
"492 268 LINE",
"176 268 LINE"
);
}
);
width = 691;
}
);
leftKerningGroup = A;
note = A;
rightKerningGroup = A;
unicode = 0041;
},
{
color = 1;
glyphname = Aring;
lastChange = "2020-04-06 10:56:40 +0000";
layers = (
{
guideLines = (
{
angle = 259.8292;
position = "{445, 878}";
}
);
layerId = "11907447-A26F-432E-A335-7727E0303767";
paths = (
{
closed = 1;
nodes = (
"52 0 LINE",
"152 187 LINE",
"498 187 LINE",
"532 0 LINE",
"623 0 LINE",
"487 721 LINE",
"528 744 OFFCURVE",
"556 790 OFFCURVE",
"556 836 CURVE SMOOTH",
"556 895 OFFCURVE",
"510 939 OFFCURVE",
"451 939 CURVE SMOOTH",
"379 939 OFFCURVE",
"316 876 OFFCURVE",
"316 804 CURVE SMOOTH",
"316 771 OFFCURVE",
"330 742 OFFCURVE",
"354 725 CURVE",
"-43 0 LINE"
);
},
{
closed = 1;
nodes = (
"372 595 LINE SMOOTH",
"385 619 OFFCURVE",
"397 644 OFFCURVE",
"402 679 CURVE",
"420 679 LINE",
"414 650 OFFCURVE",
"420 626 OFFCURVE",
"424 601 CURVE SMOOTH",
"481 269 LINE",
"197 269 LINE"
);
},
{
closed = 1;
nodes = (
"394 764 OFFCURVE",
"380 786 OFFCURVE",
"380 811 CURVE SMOOTH",
"380 842 OFFCURVE",
"403 878 OFFCURVE",
"447 878 CURVE SMOOTH",
"480 878 OFFCURVE",
"494 857 OFFCURVE",
"494 834 CURVE SMOOTH",
"494 802 OFFCURVE",
"468 764 OFFCURVE",
"425 764 CURVE SMOOTH"
);
}
);
width = 702;
},
{
guideLines = (
{
angle = 259.8292;
position = "{521, 865}";
},
{
angle = 259.8292;
position = "{459, 872}";
},
{
angle = 259.8292;
position = "{386, 865}";
}
);
layerId = "FD6EB2BB-8839-4CDB-86BF-4EEAE3F02079";
paths = (
{
closed = 1;
nodes = (
"137 0 LINE",
"203 137 LINE",
"457 137 LINE",
"473 0 LINE",
"660 0 LINE",
"540 742 LINE",
"567 772 OFFCURVE",
"581 810 OFFCURVE",
"581 845 CURVE SMOOTH",
"581 900 OFFCURVE",
"548 949 OFFCURVE",
"478 949 CURVE SMOOTH",
"374 949 OFFCURVE",
"315 870 OFFCURVE",
"315 798 CURVE SMOOTH",
"315 777 OFFCURVE",
"320 757 OFFCURVE",
"331 740 CURVE",
"-56 0 LINE"
);
},
{
closed = 1;
nodes = (
"362 466 LINE SMOOTH",
"388 519 OFFCURVE",
"393 551 OFFCURVE",
"397 580 CURVE",
"416 580 LINE",
"411 564 OFFCURVE",
"411 532 OFFCURVE",
"417 478 CURVE SMOOTH",
"437 292 LINE",
"277 292 LINE"
);
},
{
closed = 1;
nodes = (
"410 773 OFFCURVE",
"396 792 OFFCURVE",
"396 813 CURVE SMOOTH",
"396 841 OFFCURVE",
"419 872 OFFCURVE",
"459 872 CURVE SMOOTH",
"486 872 OFFCURVE",
"499 853 OFFCURVE",
"499 832 CURVE SMOOTH",
"499 805 OFFCURVE",
"477 773 OFFCURVE",
"441 773 CURVE SMOOTH"
);
}
);
width = 726;
},
{
guideLines = (
{
angle = 259.8292;
position = "{442, 878}";
}
);
layerId = "2F4EEC1B-9E89-4E08-AD53-AB625B6E887D";
paths = (
{
closed = 1;
nodes = (
"29 0 LINE",
"143 206 LINE",
"503 206 LINE",
"543 0 LINE",
"613 0 LINE",
"467 729 LINE",
"511 751 OFFCURVE",
"541 793 OFFCURVE",
"541 841 CURVE SMOOTH",
"541 895 OFFCURVE",
"499 934 OFFCURVE",
"446 934 CURVE SMOOTH",
"380 934 OFFCURVE",
"321 877 OFFCURVE",
"321 813 CURVE SMOOTH",
"321 778 OFFCURVE",
"338 749 OFFCURVE",
"363 730 CURVE",
"-43 0 LINE"
);
},
{
closed = 1;
nodes = (
"362 605 LINE SMOOTH",
"383 644 OFFCURVE",
"395 666 OFFCURVE",
"401 700 CURVE",
"417 700 LINE",
"412 670 OFFCURVE",
"418 648 OFFCURVE",
"426 609 CURVE SMOOTH",
"491 267 LINE",
"175 267 LINE"
);
},
{
closed = 1;
nodes = (
"386 764 OFFCURVE",
"370 788 OFFCURVE",
"370 816 CURVE SMOOTH",
"370 850 OFFCURVE",
"396 888 OFFCURVE",
"443 888 CURVE SMOOTH",
"478 888 OFFCURVE",
"494 865 OFFCURVE",
"494 839 CURVE SMOOTH",
"494 804 OFFCURVE",
"467 764 OFFCURVE",
"421 764 CURVE SMOOTH"
);
}
);
width = 691;
}
);
leftKerningGroup = A;
leftMetricsKey = A;
rightKerningGroup = A;
rightMetricsKey = A;
unicode = 00C5;
},
{
color = 1;
glyphname = AE;
lastChange = "2020-04-06 10:56:40 +0000";
layers = (
{
anchors = (
{
name = bottom;
position = "{480, 0}";
},
{
name = top;
position = "{615, 763}";
}
);
layerId = "11907447-A26F-432E-A335-7727E0303767";
paths = (
{
closed = 1;
nodes = (
"52 0 LINE",
"152 187 LINE",
"498 187 LINE",
"528 0 LINE",
"1001 0 LINE",
"985 83 LINE",
"608 83 LINE",
"559 342 LINE",
"935 342 LINE",
"920 424 LINE",
"543 424 LINE",
"494 680 LINE",
"871 680 LINE",
"855 763 LINE",
"373 763 LINE",
"-43 0 LINE"
);
},
{
closed = 1;
nodes = (
"372 595 LINE SMOOTH",
"384 620 OFFCURVE",
"397 644 OFFCURVE",
"402 679 CURVE",
"420 679 LINE",
"414 650 OFFCURVE",
"419 626 OFFCURVE",
"424 601 CURVE SMOOTH",
"481 269 LINE",
"197 269 LINE"
);
}
);
width = 1080;
},
{
anchors = (
{
name = bottom;
position = "{458, 0}";
},
{
name = top;
position = "{593, 763}";
}
);
guideLines = (
{
angle = 259.8292;
position = "{369, 359}";
}
);
layerId = "FD6EB2BB-8839-4CDB-86BF-4EEAE3F02079";
paths = (
{
closed = 1;
nodes = (
"137 0 LINE",
"203 137 LINE",
"457 137 LINE",
"473 0 LINE",
"968 0 LINE",
"943 160 LINE",
"636 160 LINE",
"613 302 LINE",
"919 302 LINE",
"893 461 LINE",
"586 461 LINE",
"563 603 LINE",
"869 603 LINE",
"841 763 LINE",
"340 763 LINE",
"-56 0 LINE"
);
},
{
closed = 1;
nodes = (
"362 466 LINE SMOOTH",
"388 519 OFFCURVE",
"393 551 OFFCURVE",
"397 580 CURVE",
"416 580 LINE",
"411 564 OFFCURVE",
"411 532 OFFCURVE",
"417 478 CURVE SMOOTH",
"437 292 LINE",
"277 292 LINE"
);
}
);
width = 1034;
},
{
anchors = (
{
name = bottom;
position = "{473, 0}";
},
{
name = top;
position = "{607, 763}";
}
);
layerId = "2F4EEC1B-9E89-4E08-AD53-AB625B6E887D";
paths = (
{
closed = 1;
nodes = (
"29 0 LINE",
"143 206 LINE",
"503 206 LINE",
"539 0 LINE",
"986 0 LINE",
"973 62 LINE",
"601 62 LINE",
"542 353 LINE",
"914 353 LINE",
"903 414 LINE",
"530 414 LINE",
"497 572 LINE",
"473 701 LINE",
"847 701 LINE",
"833 763 LINE",
"379 763 LINE",
"-43 0 LINE"
);
},
{
closed = 1;
nodes = (
"362 605 LINE SMOOTH",
"383 644 OFFCURVE",
"395 666 OFFCURVE",
"401 700 CURVE",
"417 700 LINE",
"412 670 OFFCURVE",
"418 648 OFFCURVE",
"426 609 CURVE SMOOTH",
"491 267 LINE",
"175 267 LINE"
);
}
);
width = 1064;
}
);
leftKerningGroup = A;
leftMetricsKey = A;
rightKerningGroup = A;
rightMetricsKey = A;
unicode = 00C6;
},
{
color = 1;
glyphname = B;
lastChange = "2020-04-07 12:27:31 +0000";
layers = (
{
anchors = (
{
name = bottom;
position = "{277, 0}";
},
{
name = top;
position = "{412, 763}";
}
);
guideLines = (
{
angle = 259.8292;
position = "{516, 865}";
},
{
angle = 259.8292;
position = "{517, 393}";
}
);
layerId = "FD6EB2BB-8839-4CDB-86BF-4EEAE3F02079";
paths = (
{
closed = 1;
nodes = (
"351 0 LINE SMOOTH",
"528 0 OFFCURVE",
"650 82 OFFCURVE",
"650 248 CURVE SMOOTH",
"650 337 OFFCURVE",
"584 393 OFFCURVE",
"517 393 CURVE",
"520 409 LINE",
"615 409 OFFCURVE",
"673 503 OFFCURVE",
"673 587 CURVE SMOOTH",
"673 713 OFFCURVE",
"583 763 OFFCURVE",
"440 763 CURVE SMOOTH",
"134 763 LINE",
"-1 0 LINE"
);
},
{
closed = 1;
nodes = (
"234 315 LINE",
"376 315 LINE SMOOTH",
"441 315 OFFCURVE",
"477 296 OFFCURVE",
"477 250 CURVE SMOOTH",
"477 175 OFFCURVE",
"409 160 OFFCURVE",
"325 160 CURVE SMOOTH",
"206 160 LINE"
);
},
{
closed = 1;
nodes = (
"284 603 LINE",
"384 603 LINE SMOOTH",
"440 603 OFFCURVE",
"488 594 OFFCURVE",
"488 541 CURVE SMOOTH",
"488 478 OFFCURVE",
"442 455 OFFCURVE",
"371 455 CURVE SMOOTH",
"258 455 LINE"
);
}
);
width = 710;
},
{
anchors = (
{
name = bottom;
position = "{275, 0}";
},
{
name = top;
position = "{410, 763}";
}
);
guideLines = (
{
angle = 259.8292;
position = "{479, 392}";
}
);
layerId = "11907447-A26F-432E-A335-7727E0303767";
paths = (
{
closed = 1;
nodes = (
"322 0 LINE SMOOTH",
"495 0 OFFCURVE",
"621 90 OFFCURVE",
"621 243 CURVE SMOOTH",
"621 338 OFFCURVE",
"572 392 OFFCURVE",
"479 392 CURVE",
"482 408 LINE",
"583 408 OFFCURVE",
"646 502 OFFCURVE",
"646 595 CURVE SMOOTH",
"646 709 OFFCURVE",
"569 763 OFFCURVE",
"439 763 CURVE SMOOTH",
"155 763 LINE",
"20 0 LINE"
);
},
{
closed = 1;
nodes = (
"174 350 LINE",
"394 350 LINE SMOOTH",
"432 350 OFFCURVE",
"531 353 OFFCURVE",
"531 247 CURVE SMOOTH",
"531 142 OFFCURVE",
"449 83 OFFCURVE",
"321 83 CURVE SMOOTH",
"127 83 LINE"
);
},
{
closed = 1;
nodes = (
"232 680 LINE",
"410 680 LINE SMOOTH",
"495 680 OFFCURVE",
"551 650 OFFCURVE",
"551 573 CURVE SMOOTH",
"551 493 OFFCURVE",
"482 432 OFFCURVE",
"381 432 CURVE SMOOTH",
"188 432 LINE"
);
}
);
width = 700;
},
{
anchors = (
{
name = bottom;
position = "{269, 0}";
},
{
name = top;
position = "{403, 763}";
}
);
guideLines = (
{
angle = 259.8292;
position = "{473, 391}";
}
);
layerId = "2F4EEC1B-9E89-4E08-AD53-AB625B6E887D";
paths = (
{
closed = 1;
nodes = (
"314 0 LINE SMOOTH",
"485 0 OFFCURVE",
"607 79 OFFCURVE",
"607 241 CURVE SMOOTH",
"607 326 OFFCURVE",
"558 391 OFFCURVE",
"473 391 CURVE",
"476 407 LINE",
"571 407 OFFCURVE",
"633 505 OFFCURVE",
"633 595 CURVE SMOOTH",
"633 709 OFFCURVE",
"556 763 OFFCURVE",
"432 763 CURVE SMOOTH",
"154 763 LINE",
"20 0 LINE"
);
},
{
closed = 1;
nodes = (
"152 361 LINE",
"387 361 LINE SMOOTH",
"454 361 OFFCURVE",
"539 337 OFFCURVE",
"539 243 CURVE SMOOTH",
"539 121 OFFCURVE",
"448 62 OFFCURVE",
"313 62 CURVE SMOOTH",
"100 62 LINE"
);
},
{
closed = 1;
nodes = (
"212 701 LINE",
"411 701 LINE SMOOTH",
"505 701 OFFCURVE",
"563 663 OFFCURVE",
"563 579 CURVE SMOOTH",
"563 492 OFFCURVE",
"488 423 OFFCURVE",
"372 423 CURVE SMOOTH",
"163 423 LINE"
);
}
);
width = 687;
}
);
leftKerningGroup = B;
note = B;
rightKerningGroup = B;
unicode = 0042;
},
{
color = 1;
glyphname = C;
lastChange = "2020-04-07 12:27:31 +0000";
layers = (
{
anchors = (
{
name = bottom;
position = "{346, 0}";
},
{
name = top;
position = "{481, 763}";
}
);
background = {
paths = (
{
closed = 1;
nodes = (
"650 -17 OFFCURVE",
"813 232 OFFCURVE",
"813 452 CURVE SMOOTH",
"813 624 OFFCURVE",
"712 779 OFFCURVE",
"495 779 CURVE SMOOTH",
"196 779 OFFCURVE",
"33 530 OFFCURVE",
"33 310 CURVE SMOOTH",
"33 138 OFFCURVE",
"134 -17 OFFCURVE",
"351 -17 CURVE SMOOTH"
);
},
{
closed = 1;
nodes = (
"264 143 OFFCURVE",
"212 231 OFFCURVE",
"212 331 CURVE SMOOTH",
"212 464 OFFCURVE",
"304 619 OFFCURVE",
"467 619 CURVE SMOOTH",
"582 619 OFFCURVE",
"634 531 OFFCURVE",
"634 431 CURVE SMOOTH",
"634 298 OFFCURVE",
"542 143 OFFCURVE",
"379 143 CURVE SMOOTH"
);
}
);
};
guideLines = (
{
position = "{390, 259}";
},
{
position = "{435, 505}";
},
{
angle = 259.8292;
position = "{544, 259}";
},
{
angle = 259.8292;
position = "{411, 376}";
},
{
angle = 259.8292;
position = "{730, 259}";
}
);
layerId = "FD6EB2BB-8839-4CDB-86BF-4EEAE3F02079";
paths = (
{
closed = 1;
nodes = (
"554 -17 OFFCURVE",
"672 81 OFFCURVE",
"730 259 CURVE",
"544 259 LINE",
"506 183 OFFCURVE",
"448 143 OFFCURVE",
"373 143 CURVE SMOOTH",
"258 143 OFFCURVE",
"206 231 OFFCURVE",
"206 331 CURVE SMOOTH",
"206 464 OFFCURVE",
"298 619 OFFCURVE",
"461 619 CURVE SMOOTH",
"543 619 OFFCURVE",
"585 571 OFFCURVE",
"588 505 CURVE",
"774 505 LINE",
"777 666 OFFCURVE",
"669 779 OFFCURVE",
"489 779 CURVE SMOOTH",
"190 779 OFFCURVE",
"27 531 OFFCURVE",
"27 310 CURVE SMOOTH",
"27 138 OFFCURVE",
"128 -17 OFFCURVE",
"345 -17 CURVE SMOOTH"
);
}
);
width = 784;
},
{
anchors = (
{
name = bottom;
position = "{338, 0}";
},
{
name = top;
position = "{473, 763}";
}
);
guideLines = (
{
position = "{586, 552}";
},
{
position = "{423, 231}";
}
);
layerId = "11907447-A26F-432E-A335-7727E0303767";
paths = (
{
closed = 1;
nodes = (
"510 -10 OFFCURVE",
"636 82 OFFCURVE",
"685 231 CURVE",
"583 231 LINE",
"545 128 OFFCURVE",
"455 72 OFFCURVE",
"344 72 CURVE SMOOTH",
"204 72 OFFCURVE",
"137 161 OFFCURVE",
"137 293 CURVE SMOOTH",
"137 501 OFFCURVE",
"261 691 OFFCURVE",
"463 691 CURVE SMOOTH",
"572 691 OFFCURVE",
"639 639 OFFCURVE",
"642 552 CURVE",
"740 552 LINE",
"738 680 OFFCURVE",
"641 773 OFFCURVE",
"469 773 CURVE SMOOTH",
"217 773 OFFCURVE",
"46 555 OFFCURVE",
"46 294 CURVE SMOOTH",
"46 125 OFFCURVE",
"135 -10 OFFCURVE",
"342 -10 CURVE SMOOTH"
);
}
);
width = 757;
},
{
anchors = (
{
name = bottom;
position = "{330, 0}";
},
{
name = top;
position = "{464, 763}";
}
);
guideLines = (
{
position = "{413, 216}";
},
{
position = "{596, 561}";
}
);
layerId = "2F4EEC1B-9E89-4E08-AD53-AB625B6E887D";
paths = (
{
closed = 1;
nodes = (
"495 -10 OFFCURVE",
"617 78 OFFCURVE",
"666 216 CURVE",
"591 216 LINE",
"551 113 OFFCURVE",
"454 52 OFFCURVE",
"333 52 CURVE SMOOTH",
"182 52 OFFCURVE",
"113 151 OFFCURVE",
"113 290 CURVE SMOOTH",
"113 510 OFFCURVE",
"245 711 OFFCURVE",
"458 711 CURVE SMOOTH",
"576 711 OFFCURVE",
"651 654 OFFCURVE",
"653 561 CURVE",
"725 561 LINE",
"721 684 OFFCURVE",
"627 773 OFFCURVE",
"463 773 CURVE SMOOTH",
"214 773 OFFCURVE",
"45 551 OFFCURVE",
"45 291 CURVE SMOOTH",
"45 123 OFFCURVE",
"132 -10 OFFCURVE",
"333 -10 CURVE SMOOTH"
);
}
);
width = 740;
}
);
leftKerningGroup = C;
note = C;
rightKerningGroup = C;
unicode = 0043;
},
{
color = 1;
glyphname = D;
lastChange = "2020-04-07 12:27:31 +0000";
layers = (
{
anchors = (
{
name = bottom;
position = "{287, 0}";
},
{
name = center;
position = "{218, 382}";
},
{
name = top;
position = "{422, 763}";
}
);
layerId = "FD6EB2BB-8839-4CDB-86BF-4EEAE3F02079";
paths = (
{
closed = 1;
nodes = (
"236 0 LINE SMOOTH",
"520 0 OFFCURVE",
"707 177 OFFCURVE",
"707 445 CURVE SMOOTH",
"707 656 OFFCURVE",
"590 763 OFFCURVE",
"359 763 CURVE SMOOTH",
"134 763 LINE",
"-1 0 LINE"
);
},
{
closed = 1;
nodes = (
"284 603 LINE",
"330 603 LINE SMOOTH",
"457 603 OFFCURVE",
"528 540 OFFCURVE",
"528 429 CURVE SMOOTH",
"528 270 OFFCURVE",
"412 160 OFFCURVE",
"241 160 CURVE SMOOTH",
"206 160 LINE"
);
}
);
width = 736;
},
{
anchors = (
{
name = bottom;
position = "{297, 0}";
},
{
name = center;
position = "{221, 382}";
},
{
name = top;
position = "{432, 763}";
}
);
layerId = "11907447-A26F-432E-A335-7727E0303767";
paths = (
{
closed = 1;
nodes = (
"232 0 LINE SMOOTH",
"519 0 OFFCURVE",
"697 186 OFFCURVE",
"697 470 CURVE SMOOTH",
"697 658 OFFCURVE",
"581 763 OFFCURVE",
"362 763 CURVE SMOOTH",
"155 763 LINE",
"20 0 LINE"
);
},
{
closed = 1;
nodes = (
"232 680 LINE",
"342 680 LINE SMOOTH",
"505 680 OFFCURVE",
"606 624 OFFCURVE",
"606 468 CURVE SMOOTH",
"606 235 OFFCURVE",
"481 83 OFFCURVE",
"230 83 CURVE SMOOTH",
"127 83 LINE"
);
}
);
width = 742;
},
{
anchors = (
{
name = bottom;
position = "{293, 0}";
},
{
name = center;
position = "{220, 382}";
},
{
name = top;
position = "{427, 763}";
}
);
layerId = "2F4EEC1B-9E89-4E08-AD53-AB625B6E887D";
paths = (
{
closed = 1;
nodes = (
"225 0 LINE SMOOTH",
"512 0 OFFCURVE",
"687 187 OFFCURVE",
"687 471 CURVE SMOOTH",
"687 659 OFFCURVE",
"573 763 OFFCURVE",
"356 763 CURVE SMOOTH",
"154 763 LINE",
"20 0 LINE"
);
},
{
closed = 1;
nodes = (
"212 701 LINE",
"339 701 LINE SMOOTH",
"517 701 OFFCURVE",
"620 633 OFFCURVE",
"620 470 CURVE SMOOTH",
"620 226 OFFCURVE",
"482 62 OFFCURVE",
"221 62 CURVE SMOOTH",
"100 62 LINE"
);
}
);
width = 733;
}
);
leftKerningGroup = B;
note = D;
rightKerningGroup = D;
unicode = 0044;
},
{
color = 1;
glyphname = E;
lastChange = "2020-04-07 12:27:31 +0000";
layers = (
{
anchors = (
{
name = bottom;
position = "{260, 0}";
},
{
name = ogonek;
position = "{520, 0}";
},
{
name = top;
position = "{395, 763}";
},
{
name = topleft;
position = "{66, 763}";
}
);
guideLines = (
{
angle = 180;
position = "{446, 461}";
},
{
angle = 180;
position = "{390, 302}";
}
);
layerId = "FD6EB2BB-8839-4CDB-86BF-4EEAE3F02079";
paths = (
{
closed = 1;
nodes = (
"520 0 LINE",
"548 160 LINE",
"206 160 LINE",
"231 302 LINE",
"540 302 LINE",
"568 461 LINE",
"259 461 LINE",
"284 603 LINE",
"626 603 LINE",
"655 763 LINE",
"134 763 LINE",
"-1 0 LINE"
);
}
);
width = 637;
},
{
anchors = (
{
name = bottom;
position = "{267, 0}";
},
{
name = ogonek;
position = "{513, 0}";
},
{
name = top;
position = "{402, 763}";
},
{
name = topleft;
position = "{74, 763}";
}
);
layerId = "11907447-A26F-432E-A335-7727E0303767";
paths = (
{
closed = 1;
nodes = (
"513 0 LINE",
"528 83 LINE",
"127 83 LINE",
"173 342 LINE",
"527 342 LINE",
"541 424 LINE",
"187 424 LINE",
"232 680 LINE",
"633 680 LINE",
"648 763 LINE",
"155 763 LINE",
"20 0 LINE"
);
}
);
width = 632;
},
{
anchors = (
{
name = bottom;
position = "{263, 0}";
},
{
name = ogonek;
position = "{506, 0}";
},
{
name = top;
position = "{397, 763}";
},
{
name = topleft;
position = "{69, 763}";
}
);
layerId = "2F4EEC1B-9E89-4E08-AD53-AB625B6E887D";
paths = (
{
closed = 1;
nodes = (
"506 0 LINE",
"517 62 LINE",
"100 62 LINE",
"151 352 LINE",
"517 352 LINE",
"528 414 LINE",
"162 414 LINE",
"212 701 LINE",
"629 701 LINE",
"640 763 LINE",
"154 763 LINE",
"20 0 LINE"
);
}
);
width = 618;
}
);
leftKerningGroup = B;
note = E;
rightKerningGroup = E;
unicode = 0045;
},
{
color = 1;
glyphname = F;
lastChange = "2020-04-07 12:27:31 +0000";
layers = (
{
layerId = "FD6EB2BB-8839-4CDB-86BF-4EEAE3F02079";
paths = (
{
closed = 1;
nodes = (
"178 0 LINE",
"231 302 LINE",
"540 302 LINE",
"568 461 LINE",
"259 461 LINE",
"284 603 LINE",
"626 603 LINE",
"655 763 LINE",
"134 763 LINE",
"-1 0 LINE"
);
}
);
width = 619;
},
{
layerId = "11907447-A26F-432E-A335-7727E0303767";
paths = (
{
closed = 1;
nodes = (
"112 0 LINE",
"173 342 LINE",
"527 342 LINE",
"541 424 LINE",
"187 424 LINE",
"232 680 LINE",
"633 680 LINE",
"648 763 LINE",
"155 763 LINE",
"20 0 LINE"
);
}
);
width = 616;
},
{
anchors = (
{
name = bottom;
position = "{226, 0}";
},
{
name = top;
position = "{360, 763}";
}
);
layerId = "2F4EEC1B-9E89-4E08-AD53-AB625B6E887D";
paths = (
{
closed = 1;
nodes = (
"89 0 LINE",
"151 353 LINE",
"517 353 LINE",
"528 414 LINE",
"162 414 LINE",
"212 701 LINE",
"629 701 LINE",
"640 763 LINE",
"154 763 LINE",
"20 0 LINE"
);
}
);
width = 604;
}
);
leftKerningGroup = B;
note = F;
rightKerningGroup = F;
unicode = 0046;
},
{
color = 1;
glyphname = G;
lastChange = "2020-04-07 12:27:31 +0000";
layers = (
{
anchors = (
{
name = bottom;
position = "{348, 0}";
},
{
name = top;
position = "{483, 763}";
}
);
background = {
components = (
{
name = C;
transform = "{1, 0, 0, 1, -8, 0}";
}
);
guideLines = (
{
position = "{517, 505}";
}
);
};
guideLines = (
{
position = "{588, 505}";
}
);
layerId = "FD6EB2BB-8839-4CDB-86BF-4EEAE3F02079";
paths = (
{
closed = 1;
nodes = (
"464 -17 OFFCURVE",
"533 18 OFFCURVE",
"549 95 CURVE",
"567 95 LINE",
"549 0 LINE",
"712 0 LINE",
"787 426 LINE",
"449 426 LINE",
"424 282 LINE",
"531 282 LINE SMOOTH",
"561 282 OFFCURVE",
"572 284 OFFCURVE",
"591 300 CURVE",
"596 294 LINE",
"576 279 OFFCURVE",
"576 261 OFFCURVE",
"566 242 CURVE SMOOTH",
"536 182 OFFCURVE",
"468 143 OFFCURVE",
"373 143 CURVE SMOOTH",
"258 143 OFFCURVE",
"206 231 OFFCURVE",
"206 331 CURVE SMOOTH",
"206 464 OFFCURVE",
"298 619 OFFCURVE",
"461 619 CURVE SMOOTH",
"552 619 OFFCURVE",
"598 585 OFFCURVE",
"605 505 CURVE",
"796 505 LINE",
"797 667 OFFCURVE",
"691 779 OFFCURVE",
"485 779 CURVE SMOOTH",
"190 779 OFFCURVE",
"27 530 OFFCURVE",
"27 310 CURVE SMOOTH",
"27 138 OFFCURVE",
"128 -17 OFFCURVE",
"345 -17 CURVE SMOOTH"
);
}
);
width = 829;
},
{
anchors = (
{
name = bottom;
position = "{339, 0}";
},
{
name = top;
position = "{474, 763}";
}
);
guideLines = (
{
position = "{585, 552}";
}
);
layerId = "11907447-A26F-432E-A335-7727E0303767";
paths = (
{
closed = 1;
nodes = (
"454 -10 OFFCURVE",
"585 35 OFFCURVE",
"601 125 CURVE",
"618 125 LINE",
"595 0 LINE",
"679 0 LINE",
"750 399 LINE",
"477 399 LINE",
"462 317 LINE",
"572 317 LINE SMOOTH",
"617 317 OFFCURVE",
"628 315 OFFCURVE",
"650 331 CURVE",
"657 323 LINE",
"639 308 OFFCURVE",
"641 272 OFFCURVE",
"608 217 CURVE SMOOTH",
"559 129 OFFCURVE",
"462 72 OFFCURVE",
"352 72 CURVE SMOOTH",
"203 72 OFFCURVE",
"137 172 OFFCURVE",
"137 302 CURVE SMOOTH",
"137 507 OFFCURVE",
"269 691 OFFCURVE",
"469 691 CURVE SMOOTH",
"579 691 OFFCURVE",
"645 637 OFFCURVE",
"663 552 CURVE",
"762 552 LINE",
"742 682 OFFCURVE",
"647 773 OFFCURVE",
"475 773 CURVE SMOOTH",
"223 773 OFFCURVE",
"45 557 OFFCURVE",
"45 298 CURVE SMOOTH",
"45 131 OFFCURVE",
"134 -10 OFFCURVE",
"349 -10 CURVE SMOOTH"
);
}
);
width = 813;
},
{
anchors = (
{
name = bottom;
position = "{335, 0}";
},
{
name = top;
position = "{469, 763}";
}
);
guideLines = (
{
position = "{595, 561}";
}
);
layerId = "2F4EEC1B-9E89-4E08-AD53-AB625B6E887D";
paths = (
{
closed = 1;
nodes = (
"447 -10 OFFCURVE",
"584 54 OFFCURVE",
"600 146 CURVE",
"617 146 LINE",
"591 0 LINE",
"655 0 LINE",
"724 392 LINE",
"468 392 LINE",
"457 330 LINE",
"578 330 LINE SMOOTH",
"600 330 OFFCURVE",
"633 326 OFFCURVE",
"649 339 CURVE",
"655 332 LINE",
"639 317 OFFCURVE",
"631 269 OFFCURVE",
"620 249 CURVE",
"570 126 OFFCURVE",
"462 52 OFFCURVE",
"339 52 CURVE SMOOTH",
"183 52 OFFCURVE",
"113 159 OFFCURVE",
"113 297 CURVE SMOOTH",
"113 514 OFFCURVE",
"252 711 OFFCURVE",
"463 711 CURVE SMOOTH",
"589 711 OFFCURVE",
"657 651 OFFCURVE",
"666 561 CURVE",
"741 561 LINE",
"729 682 OFFCURVE",
"639 773 OFFCURVE",
"467 773 CURVE SMOOTH",
"216 773 OFFCURVE",
"45 553 OFFCURVE",
"45 293 CURVE SMOOTH",
"45 127 OFFCURVE",
"131 -10 OFFCURVE",
"338 -10 CURVE SMOOTH"
);
}
);
width = 787;
}
);
leftKerningGroup = C;
note = G;
rightKerningGroup = G;
unicode = 0047;
},
{
color = 1;
glyphname = H;
lastChange = "2020-04-07 12:27:31 +0000";
layers = (
{
anchors = (
{
name = bottom;
position = "{323, 0}";
},
{
name = center;
position = "{436, 639}";
},
{
name = top;
position = "{458, 763}";
},
{
name = topleft;
position = "{94, 763}";
}
);
layerId = "FD6EB2BB-8839-4CDB-86BF-4EEAE3F02079";
paths = (
{
closed = 1;
nodes = (
"178 0 LINE",
"231 301 LINE",
"521 301 LINE",
"468 0 LINE",
"647 0 LINE",
"782 763 LINE",
"603 763 LINE",
"549 461 LINE",
"259 461 LINE",
"313 763 LINE",
"134 763 LINE",
"-1 0 LINE"
);
}
);
width = 781;
},
{
anchors = (
{
name = bottom;
position = "{304, 0}";
},
{
name = center;
position = "{413, 616}";
},
{
name = top;
position = "{439, 763}";
},
{
name = topleft;
position = "{96, 763}";
}
);
layerId = "11907447-A26F-432E-A335-7727E0303767";
paths = (
{
closed = 1;
nodes = (
"112 0 LINE",
"173 343 LINE",
"555 343 LINE",
"494 0 LINE",
"586 0 LINE",
"721 763 LINE",
"629 763 LINE",
"569 425 LINE",
"187 425 LINE",
"247 763 LINE",
"155 763 LINE",
"20 0 LINE"
);
}
);
width = 740;
},
{
anchors = (
{
name = bottom;
position = "{292, 0}";
},
{
name = center;
position = "{399, 609}";
},
{
name = top;
position = "{426, 763}";
},
{
name = topleft;
position = "{69, 763}";
}
);
layerId = "2F4EEC1B-9E89-4E08-AD53-AB625B6E887D";
paths = (
{
closed = 1;
nodes = (
"89 0 LINE",
"151 354 LINE",
"557 354 LINE",
"495 0 LINE",
"564 0 LINE",
"698 763 LINE",
"629 763 LINE",
"568 416 LINE",
"162 416 LINE",
"223 763 LINE",
"154 763 LINE",
"20 0 LINE"
);
}
);
width = 718;
}
);
leftKerningGroup = B;
note = H;
rightKerningGroup = H;
unicode = 0048;
},
{
color = 1;
glyphname = I;
lastChange = "2020-04-07 12:27:31 +0000";
layers = (
{
anchors = (
{
name = bottom;
position = "{89, 0}";
},
{
name = ogonek;
position = "{178, 0}";
},
{
name = top;
position = "{224, 763}";
},
{
name = topleft;
position = "{66, 763}";
}
);
background = {
anchors = (
{
name = bottom;
position = "{58, 0}";
},
{
name = ogonek;
position = "{147, 0}";
},
{
name = top;
position = "{193, 763}";
},
{
name = topleft;
position = "{35, 763}";
}
);
paths = (
{
closed = 1;
nodes = (
"147 0 LINE",
"282 763 LINE",
"103 763 LINE",
"-32 0 LINE"
);
}
);
};
layerId = "FD6EB2BB-8839-4CDB-86BF-4EEAE3F02079";
paths = (
{
closed = 1;
nodes = (
"178 0 LINE",
"313 763 LINE",
"134 763 LINE",
"-1 0 LINE"
);
}
);
width = 312;
},
{
anchors = (
{
name = bottom;
position = "{66, 0}";
},
{
name = ogonek;
position = "{112, 0}";
},
{
name = top;
position = "{201, 763}";
},
{
name = topleft;
position = "{74, 763}";
}
);
layerId = "11907447-A26F-432E-A335-7727E0303767";
paths = (
{
closed = 1;
nodes = (
"112 0 LINE",
"247 763 LINE",
"155 763 LINE",
"20 0 LINE"
);
}
);
width = 266;
},
{
anchors = (
{
name = bottom;
position = "{55, 0}";
},
{
name = ogonek;
position = "{89, 0}";
},
{
name = top;
position = "{189, 763}";
},
{
name = topleft;
position = "{69, 763}";
}
);
layerId = "2F4EEC1B-9E89-4E08-AD53-AB625B6E887D";
paths = (
{
closed = 1;
nodes = (
"89 0 LINE",
"223 763 LINE",
"154 763 LINE",
"20 0 LINE"
);
}
);
width = 243;
}
);
leftKerningGroup = B;
note = I;
rightKerningGroup = H;
unicode = 0049;
},
{
color = 1;
glyphname = J;
lastChange = "2020-04-07 12:27:31 +0000";
layers = (
{
layerId = "FD6EB2BB-8839-4CDB-86BF-4EEAE3F02079";
paths = (
{
closed = 1;
nodes = (
"52 0 LINE SMOOTH",
"222 0 OFFCURVE",
"293 40 OFFCURVE",
"323 212 CURVE SMOOTH",
"421 763 LINE",
"241 763 LINE",
"146 226 LINE SMOOTH",
"138 182 OFFCURVE",
"106 160 OFFCURVE",
"69 160 CURVE SMOOTH",
"-24 160 LINE",
"-52 0 LINE"
);
}
);
width = 416;
},
{
layerId = "11907447-A26F-432E-A335-7727E0303767";
paths = (
{
closed = 1;
nodes = (
"53 0 LINE SMOOTH",
"209 0 OFFCURVE",
"257 65 OFFCURVE",
"277 181 CURVE SMOOTH",
"380 763 LINE",
"288 763 LINE",
"186 188 LINE SMOOTH",
"174 116 OFFCURVE",
"130 83 OFFCURVE",
"62 83 CURVE SMOOTH",
"-31 83 LINE",
"-46 0 LINE"
);
}
);
width = 396;
},
{
anchors = (
{
name = bottom;
position = "{129, 0}";
},
{
name = top;
position = "{263, 763}";
}
);
layerId = "2F4EEC1B-9E89-4E08-AD53-AB625B6E887D";
paths = (
{
closed = 1;
nodes = (
"50 0 LINE SMOOTH",
"195 0 OFFCURVE",
"242 65 OFFCURVE",
"261 173 CURVE SMOOTH",
"365 763 LINE",
"296 763 LINE",
"193 178 LINE SMOOTH",
"180 102 OFFCURVE",
"136 62 OFFCURVE",
"56 62 CURVE SMOOTH",
"-37 62 LINE",
"-48 0 LINE"
);
}
);
width = 382;
}
);
leftKerningGroup = J;
note = J;
rightKerningGroup = J;
unicode = 004A;
},
{
color = 1;
glyphname = K;
lastChange = "2020-04-07 12:27:31 +0000";
layers = (
{
anchors = (
{
name = bottom;
position = "{287, 0}";
},
{
name = top;
position = "{422, 763}";
}
);
guideLines = (
{
angle = 270;
position = "{364, 510}";
}
);
layerId = "FD6EB2BB-8839-4CDB-86BF-4EEAE3F02079";
paths = (
{
closed = 1;
nodes = (
"178 0 LINE",
"223 255 LINE SMOOTH",
"233 312 OFFCURVE",
"230 328 OFFCURVE",
"218 359 CURVE",
"243 369 LINE",
"253 332 OFFCURVE",
"275 286 OFFCURVE",
"284 267 CURVE SMOOTH",
"419 0 LINE",
"632 0 LINE",
"419 393 LINE",
"767 763 LINE",
"547 763 LINE",
"320 515 LINE SMOOTH",
"306 496 OFFCURVE",
"275 458 OFFCURVE",
"268 413 CURVE",
"250 413 LINE",
"313 763 LINE",
"134 763 LINE",
"-1 0 LINE"
);
}
);
width = 712;
},
{
anchors = (
{
name = bottom;
position = "{257, 0}";
},
{
name = top;
position = "{392, 763}";
}
);
layerId = "11907447-A26F-432E-A335-7727E0303767";
paths = (
{
closed = 1;
nodes = (
"112 0 LINE",
"166 303 LINE SMOOTH",
"173 341 OFFCURVE",
"170 350 OFFCURVE",
"158 365 CURVE",
"177 381 LINE",
"191 360 OFFCURVE",
"209 332 OFFCURVE",
"217 321 CURVE SMOOTH",
"444 0 LINE",
"559 0 LINE",
"278 391 LINE",
"689 763 LINE",
"563 763 LINE",
"238 465 LINE SMOOTH",
"227 454 OFFCURVE",
"205 434 OFFCURVE",
"201 410 CURVE",
"184 410 LINE",
"247 763 LINE",
"155 763 LINE",
"20 0 LINE"
);
}
);
width = 657;
},
{
anchors = (
{
name = bottom;
position = "{240, 0}";
},
{
name = top;
position = "{374, 763}";
}
);
guideLines = (
{
angle = 270;
position = "{206, 326}";
}
);
layerId = "2F4EEC1B-9E89-4E08-AD53-AB625B6E887D";
paths = (
{
closed = 1;
nodes = (
"89 0 LINE",
"145 322 LINE SMOOTH",
"151 356 OFFCURVE",
"150 361 OFFCURVE",
"141 379 CURVE",
"160 390 LINE",
"169 369 OFFCURVE",
"190 340 OFFCURVE",
"199 328 CURVE SMOOTH",
"448 0 LINE",
"535 0 LINE",
"232 392 LINE",
"659 763 LINE",
"566 763 LINE",
"219 464 LINE SMOOTH",
"206 452 OFFCURVE",
"180 430 OFFCURVE",
"177 406 CURVE",
"160 406 LINE",
"223 763 LINE",
"154 763 LINE",
"20 0 LINE"
);
}
);
width = 631;
}
);
leftKerningGroup = B;
note = K;
rightKerningGroup = K;
unicode = 004B;
},
{
color = 1;
glyphname = L;
lastChange = "2020-04-07 12:27:31 +0000";
layers = (
{
anchors = (
{
name = bottom;
position = "{244, 0}";
},
{
name = center;
position = "{268, 382}";
},
{
name = top;
position = "{224, 763}";
},
{
name = topright;
position = "{352, 567}";
}
);
layerId = "FD6EB2BB-8839-4CDB-86BF-4EEAE3F02079";
paths = (
{
closed = 1;
nodes = (
"489 0 LINE",
"517 160 LINE",
"206 160 LINE",
"313 763 LINE",
"134 763 LINE",
"-1 0 LINE"
);
}
);
width = 563;
},
{
anchors = (
{
name = bottom;
position = "{237, 0}";
},
{
name = center;
position = "{265, 382}";
},
{
name = top;
position = "{201, 763}";
},
{
name = topright;
position = "{385, 553}";
}
);
layerId = "11907447-A26F-432E-A335-7727E0303767";
paths = (
{
closed = 1;
nodes = (
"454 0 LINE",
"469 83 LINE",
"127 83 LINE",
"247 763 LINE",
"155 763 LINE",
"20 0 LINE"
);
}
);
width = 533;
},
{
anchors = (
{
name = bottom;
position = "{230, 0}";
},
{
name = center;
position = "{256, 382}";
},
{
name = top;
position = "{189, 763}";
},
{
name = topright;
position = "{368, 549}";
}
);
layerId = "2F4EEC1B-9E89-4E08-AD53-AB625B6E887D";
paths = (
{
closed = 1;
nodes = (
"439 0 LINE",
"450 62 LINE",
"100 62 LINE",
"223 763 LINE",
"154 763 LINE",
"20 0 LINE"
);
}
);
width = 515;
}
);
leftKerningGroup = B;
note = L;
rightKerningGroup = L;
unicode = 004C;
},
{
color = 1;
glyphname = Lslash;
lastChange = "2020-04-06 10:22:29 +0000";
layers = (
{
anchors = (
{
name = bottom;
position = "{276, 0}";
},
{
name = center;
position = "{302, 382}";
},
{
name = top;
position = "{369, 763}";
},
{
name = topright;
position = "{623, 763}";
}
);
layerId = "2F4EEC1B-9E89-4E08-AD53-AB625B6E887D";
paths = (
{
closed = 1;
nodes = (
"485 0 LINE",
"496 62 LINE",
"146 62 LINE",
"203 388 LINE",
"440 501 LINE",
"450 563 LINE",
"214 451 LINE",
"269 763 LINE",
"200 763 LINE",
"139 416 LINE",
"59 378 LINE",
"49 315 LINE",
"128 353 LINE",
"66 0 LINE"
);
}
);
width = 562;
},
{
anchors = (
{
name = bottom;
position = "{283, 0}";
},
{
name = center;
position = "{311, 382}";
},
{
name = top;
position = "{378, 763}";
},
{
name = topright;
position = "{636, 763}";
}
);
layerId = "11907447-A26F-432E-A335-7727E0303767";
paths = (
{
closed = 1;
nodes = (
"500 0 LINE",
"515 83 LINE",
"173 83 LINE",
"227 389 LINE",
"444 492 LINE",
"457 570 LINE",
"240 467 LINE",
"293 763 LINE",
"201 763 LINE",
"140 420 LINE",
"57 381 LINE",
"44 303 LINE",
"127 340 LINE",
"66 0 LINE"
);
}
);
width = 570;
},
{
anchors = (
{
name = bottom;
position = "{302, 0}";
},
{
name = center;
position = "{326, 382}";
},
{
name = top;
position = "{394, 763}";
},
{
name = topright;
position = "{664, 763}";
}
);
layerId = "FD6EB2BB-8839-4CDB-86BF-4EEAE3F02079";
paths = (
{
closed = 1;
nodes = (
"547 0 LINE",
"575 160 LINE",
"264 160 LINE",
"303 373 LINE",
"457 446 LINE",
"479 584 LINE",
"325 511 LINE",
"371 763 LINE",
"192 763 LINE",
"130 419 LINE",
"49 381 LINE",
"27 243 LINE",
"107 279 LINE",
"57 0 LINE"
);
}
);
width = 599;
}
);
unicode = 0141;
},
{
color = 1;
glyphname = M;
lastChange = "2020-04-07 12:27:31 +0000";
layers = (
{
anchors = (
{
name = bottom;
position = "{413, 0}";
},
{
name = top;
position = "{548, 763}";
}
);
guideLines = (
{
position = "{315, 480}";
},
{
position = "{452, 320}";
}
);
layerId = "FD6EB2BB-8839-4CDB-86BF-4EEAE3F02079";
paths = (
{
closed = 1;
nodes = (
"178 0 LINE",
"262 474 LINE SMOOTH",
"269 517 OFFCURVE",
"272 540 OFFCURVE",
"276 610 CURVE",
"296 610 LINE",
"294 562 OFFCURVE",
"296 509 OFFCURVE",
"298 486 CURVE SMOOTH",
"327 0 LINE",
"501 0 LINE",
"701 474 LINE SMOOTH",
"710 497 OFFCURVE",
"730 550 OFFCURVE",
"747 610 CURVE",
"764 610 LINE",
"745 552 OFFCURVE",
"741 529 OFFCURVE",
"734 486 CURVE SMOOTH",
"648 0 LINE",
"827 0 LINE",
"962 763 LINE",
"671 763 LINE",
"492 326 LINE SMOOTH",
"483 301 OFFCURVE",
"464 246 OFFCURVE",
"455 185 CURVE",
"436 185 LINE",
"446 234 OFFCURVE",
"445 289 OFFCURVE",
"443 314 CURVE SMOOTH",
"420 763 LINE",
"134 763 LINE",
"-1 0 LINE"
);
}
);
width = 962;
},
{
anchors = (
{
name = bottom;
position = "{391, 0}";
},
{
name = top;
position = "{526, 763}";
}
);
guideLines = (
{
position = "{358, 590}";
},
{
position = "{432, 242}";
}
);
layerId = "11907447-A26F-432E-A335-7727E0303767";
paths = (
{
closed = 1;
nodes = (
"112 0 LINE",
"216 587 LINE SMOOTH",
"221 614 OFFCURVE",
"224 632 OFFCURVE",
"230 693 CURVE",
"247 693 LINE",
"247 648 OFFCURVE",
"250 620 OFFCURVE",
"255 593 CURVE SMOOTH",
"346 0 LINE",
"437 0 LINE",
"735 587 LINE SMOOTH",
"748 614 OFFCURVE",
"762 642 OFFCURVE",
"780 693 CURVE",
"796 693 LINE",
"782 638 OFFCURVE",
"779 620 OFFCURVE",
"774 593 CURVE SMOOTH",
"669 0 LINE",
"761 0 LINE",
"896 763 LINE",
"729 763 LINE",
"455 209 LINE SMOOTH",
"432 163 OFFCURVE",
"424 142 OFFCURVE",
"414 82 CURVE",
"395 82 LINE",
"405 136 OFFCURVE",
"403 157 OFFCURVE",
"396 203 CURVE SMOOTH",
"319 763 LINE",
"155 763 LINE",
"20 0 LINE"
);
}
);
width = 916;
},
{
anchors = (
{
name = bottom;
position = "{379, 0}";
},
{
name = top;
position = "{513, 763}";
}
);
guideLines = (
{
position = "{602, 599}";
},
{
position = "{381, 145}";
}
);
layerId = "2F4EEC1B-9E89-4E08-AD53-AB625B6E887D";
paths = (
{
closed = 1;
nodes = (
"89 0 LINE",
"194 597 LINE SMOOTH",
"198 621 OFFCURVE",
"202 644 OFFCURVE",
"207 711 CURVE",
"223 711 LINE",
"219 648 OFFCURVE",
"224 625 OFFCURVE",
"228 601 CURVE SMOOTH",
"336 0 LINE",
"422 0 LINE",
"740 597 LINE SMOOTH",
"752 621 OFFCURVE",
"764 644 OFFCURVE",
"784 711 CURVE",
"800 711 LINE",
"783 648 OFFCURVE",
"779 625 OFFCURVE",
"775 601 CURVE SMOOTH",
"669 0 LINE",
"738 0 LINE",
"872 763 LINE",
"759 763 LINE",
"430 147 LINE SMOOTH",
"420 125 OFFCURVE",
"403 93 OFFCURVE",
"396 51 CURVE",
"379 51 LINE",
"386 89 OFFCURVE",
"379 121 OFFCURVE",
"376 143 CURVE SMOOTH",
"264 763 LINE",
"154 763 LINE",
"20 0 LINE"
);
}
);
width = 892;
}
);
leftKerningGroup = B;
note = M;
rightKerningGroup = H;
unicode = 004D;
},
{
color = 1;
glyphname = N;
lastChange = "2020-04-07 12:27:31 +0000";
layers = (
{
anchors = (
{
name = bottom;
position = "{326, 0}";
},
{
name = top;
position = "{461, 763}";
}
);
layerId = "FD6EB2BB-8839-4CDB-86BF-4EEAE3F02079";
paths = (
{
closed = 1;
nodes = (
"178 0 LINE",
"245 380 LINE SMOOTH",
"252 419 OFFCURVE",
"253 437 OFFCURVE",
"252 484 CURVE",
"274 484 LINE",
"280 433 OFFCURVE",
"291 412 OFFCURVE",
"299 393 CURVE SMOOTH",
"473 0 LINE",
"653 0 LINE",
"788 763 LINE",
"609 763 LINE",
"542 386 LINE SMOOTH",
"535 347 OFFCURVE",
"534 328 OFFCURVE",
"535 281 CURVE",
"512 281 LINE",
"506 334 OFFCURVE",
"496 355 OFFCURVE",
"486 376 CURVE SMOOTH",
"313 763 LINE",
"134 763 LINE",
"-1 0 LINE"
);
}
);
width = 787;
},
{
anchors = (
{
name = bottom;
position = "{304, 0}";
},
{
name = top;
position = "{439, 763}";
}
);
layerId = "11907447-A26F-432E-A335-7727E0303767";
paths = (
{
closed = 1;
nodes = (
"112 0 LINE",
"213 569 LINE SMOOTH",
"217 593 OFFCURVE",
"221 617 OFFCURVE",
"225 666 CURVE",
"243 666 LINE",
"247 626 OFFCURVE",
"256 601 OFFCURVE",
"264 577 CURVE SMOOTH",
"455 0 LINE",
"588 0 LINE",
"723 763 LINE",
"632 763 LINE",
"531 191 LINE SMOOTH",
"527 167 OFFCURVE",
"523 144 OFFCURVE",
"519 96 CURVE",
"500 96 LINE",
"496 136 OFFCURVE",
"487 161 OFFCURVE",
"479 186 CURVE SMOOTH",
"288 763 LINE",
"155 763 LINE",
"20 0 LINE"
);
}
);
width = 742;
},
{
anchors = (
{
name = bottom;
position = "{293, 0}";
},
{
name = top;
position = "{427, 763}";
}
);
layerId = "2F4EEC1B-9E89-4E08-AD53-AB625B6E887D";
paths = (
{
closed = 1;
nodes = (
"89 0 LINE",
"196 607 LINE SMOOTH",
"200 630 OFFCURVE",
"203 652 OFFCURVE",
"205 696 CURVE",
"224 696 LINE",
"228 656 OFFCURVE",
"236 634 OFFCURVE",
"244 611 CURVE SMOOTH",
"459 0 LINE",
"565 0 LINE",
"699 763 LINE",
"631 763 LINE",
"524 155 LINE SMOOTH",
"520 131 OFFCURVE",
"516 107 OFFCURVE",
"516 63 CURVE",
"497 63 LINE",
"492 103 OFFCURVE",
"483 128 OFFCURVE",
"474 152 CURVE SMOOTH",
"259 763 LINE",
"154 763 LINE",
"20 0 LINE"
);
}
);
width = 719;
}
);
leftKerningGroup = B;
note = N;
rightKerningGroup = H;
unicode = 004E;
},
{
color = 1;
glyphname = O;
lastChange = "2020-04-07 12:27:31 +0000";
layers = (
{
anchors = (
{
name = bottom;
position = "{349, 0}";
},
{
name = center;
position = "{417, 382}";
},
{
name = ogonek;
position = "{473, 0}";
},
{
name = top;
position = "{484, 763}";
},
{
name = topleft;
position = "{93, 763}";
},
{
name = topright;
position = "{875, 763}";
}
);
guideLines = (
{
position = "{899, 763}";
},
{
position = "{762, 0}";
},
{
position = "{861, 567}";
}
);
layerId = "FD6EB2BB-8839-4CDB-86BF-4EEAE3F02079";
paths = (
{
closed = 1;
nodes = (
"644 -17 OFFCURVE",
"807 232 OFFCURVE",
"807 452 CURVE SMOOTH",
"807 624 OFFCURVE",
"706 779 OFFCURVE",
"489 779 CURVE SMOOTH",
"190 779 OFFCURVE",
"27 530 OFFCURVE",
"27 310 CURVE SMOOTH",
"27 138 OFFCURVE",
"128 -17 OFFCURVE",
"345 -17 CURVE SMOOTH"
);
},
{
closed = 1;
nodes = (
"258 143 OFFCURVE",
"206 231 OFFCURVE",
"206 331 CURVE SMOOTH",
"206 464 OFFCURVE",
"298 619 OFFCURVE",
"461 619 CURVE SMOOTH",
"576 619 OFFCURVE",
"628 531 OFFCURVE",
"628 431 CURVE SMOOTH",
"628 298 OFFCURVE",
"536 143 OFFCURVE",
"373 143 CURVE SMOOTH"
);
}
);
width = 834;
},
{
anchors = (
{
name = bottom;
position = "{340, 0}";
},
{
name = center;
position = "{408, 382}";
},
{
name = ogonek;
position = "{429, 0}";
},
{
name = top;
position = "{475, 763}";
},
{
name = topleft;
position = "{88, 763}";
},
{
name = topright;
position = "{862, 763}";
}
);
guideLines = (
{
angle = 260;
position = "{408, 382}";
}
);
layerId = "11907447-A26F-432E-A335-7727E0303767";
paths = (
{
closed = 1;
nodes = (
"596 -10 OFFCURVE",
"770 208 OFFCURVE",
"770 468 CURVE SMOOTH",
"770 638 OFFCURVE",
"678 773 OFFCURVE",
"477 773 CURVE SMOOTH",
"218 773 OFFCURVE",
"45 555 OFFCURVE",
"45 294 CURVE SMOOTH",
"45 124 OFFCURVE",
"137 -10 OFFCURVE",
"339 -10 CURVE SMOOTH"
);
},
{
closed = 1;
nodes = (
"206 73 OFFCURVE",
"137 163 OFFCURVE",
"137 297 CURVE SMOOTH",
"137 502 OFFCURVE",
"265 690 OFFCURVE",
"462 690 CURVE SMOOTH",
"609 690 OFFCURVE",
"679 600 OFFCURVE",
"679 467 CURVE SMOOTH",
"679 261 OFFCURVE",
"550 73 OFFCURVE",
"354 73 CURVE SMOOTH"
);
}
);
width = 815;
},
{
anchors = (
{
name = bottom;
position = "{334, 0}";
},
{
name = center;
position = "{401, 382}";
},
{
name = ogonek;
position = "{418, 0}";
},
{
name = top;
position = "{468, 763}";
},
{
name = topleft;
position = "{83, 763}";
},
{
name = topright;
position = "{853, 763}";
}
);
guideLines = (
{
angle = 260;
position = "{401, 382}";
}
);
layerId = "2F4EEC1B-9E89-4E08-AD53-AB625B6E887D";
paths = (
{
closed = 1;
nodes = (
"584 -10 OFFCURVE",
"755 212 OFFCURVE",
"755 471 CURVE SMOOTH",
"755 640 OFFCURVE",
"666 773 OFFCURVE",
"470 773 CURVE SMOOTH",
"215 773 OFFCURVE",
"45 552 OFFCURVE",
"45 292 CURVE SMOOTH",
"45 123 OFFCURVE",
"134 -10 OFFCURVE",
"332 -10 CURVE SMOOTH"
);
},
{
closed = 1;
nodes = (
"186 52 OFFCURVE",
"113 152 OFFCURVE",
"113 293 CURVE SMOOTH",
"113 511 OFFCURVE",
"250 711 OFFCURVE",
"459 711 CURVE SMOOTH",
"614 711 OFFCURVE",
"687 611 OFFCURVE",
"687 470 CURVE SMOOTH",
"687 253 OFFCURVE",
"550 52 OFFCURVE",
"343 52 CURVE SMOOTH"
);
}
);
width = 800;
}
);
leftKerningGroup = C;
note = O;
rightKerningGroup = O;
unicode = 004F;
},
{
glyphname = OE;
lastChange = "2020-04-06 10:56:40 +0000";
layers = (
{
anchors = (
{
name = bottom;
position = "{539, 0}";
},
{
name = top;
position = "{673, 763}";
}
);
layerId = "2F4EEC1B-9E89-4E08-AD53-AB625B6E887D";
paths = (
{
closed = 1;
nodes = (
"453 -10 OFFCURVE",
"550 36 OFFCURVE",
"635 123 CURVE",
"643 120 LINE",
"627 90 OFFCURVE",
"624 71 OFFCURVE",
"621 51 CURVE SMOOTH",
"612 0 LINE",
"1098 0 LINE",
"1109 62 LINE",
"692 62 LINE",
"743 353 LINE",
"1109 353 LINE",
"1120 414 LINE",
"754 414 LINE",
"804 701 LINE",
"1221 701 LINE",
"1232 763 LINE",
"746 763 LINE",
"739 721 LINE SMOOTH",
"735 699 OFFCURVE",
"732 677 OFFCURVE",
"734 635 CURVE",
"719 628 LINE",
"670 721 OFFCURVE",
"589 773 OFFCURVE",
"465 773 CURVE SMOOTH",
"215 773 OFFCURVE",
"45 552 OFFCURVE",
"45 292 CURVE SMOOTH",
"45 123 OFFCURVE",
"134 -10 OFFCURVE",
"335 -10 CURVE SMOOTH"
);
},
{
closed = 1;
nodes = (
"186 52 OFFCURVE",
"113 152 OFFCURVE",
"113 293 CURVE SMOOTH",
"113 511 OFFCURVE",
"250 711 OFFCURVE",
"462 711 CURVE SMOOTH",
"616 711 OFFCURVE",
"687 612 OFFCURVE",
"687 472 CURVE SMOOTH",
"687 252 OFFCURVE",
"551 52 OFFCURVE",
"338 52 CURVE SMOOTH"
);
}
);
width = 1210;
},
{
anchors = (
{
name = bottom;
position = "{537, 0}";
},
{
name = top;
position = "{671, 763}";
}
);
layerId = "11907447-A26F-432E-A335-7727E0303767";
paths = (
{
closed = 1;
nodes = (
"446 -10 OFFCURVE",
"536 28 OFFCURVE",
"623 109 CURVE",
"631 108 LINE",
"614 72 OFFCURVE",
"611 55 OFFCURVE",
"609 39 CURVE SMOOTH",
"602 0 LINE",
"1095 0 LINE",
"1109 83 LINE",
"708 83 LINE",
"754 342 LINE",
"1108 342 LINE",
"1122 424 LINE",
"768 424 LINE",
"814 680 LINE",
"1215 680 LINE",
"1229 763 LINE",
"736 763 LINE",
"731 734 LINE SMOOTH",
"728 716 OFFCURVE",
"727 683 OFFCURVE",
"729 662 CURVE",
"712 652 LINE",
"660 731 OFFCURVE",
"582 773 OFFCURVE",
"470 773 CURVE SMOOTH",
"218 773 OFFCURVE",
"45 556 OFFCURVE",
"45 296 CURVE SMOOTH",
"45 125 OFFCURVE",
"136 -10 OFFCURVE",
"342 -10 CURVE SMOOTH"
);
},
{
closed = 1;
nodes = (
"206 73 OFFCURVE",
"136 163 OFFCURVE",
"136 297 CURVE SMOOTH",
"136 502 OFFCURVE",
"265 690 OFFCURVE",
"466 690 CURVE SMOOTH",
"608 690 OFFCURVE",
"678 600 OFFCURVE",
"678 467 CURVE SMOOTH",
"678 260 OFFCURVE",
"550 73 OFFCURVE",
"346 73 CURVE SMOOTH"
);
}
);
width = 1214;
},
{
anchors = (
{
name = bottom;
position = "{520, 0}";
},
{
name = top;
position = "{654, 763}";
}
);
layerId = "FD6EB2BB-8839-4CDB-86BF-4EEAE3F02079";
paths = (
{
closed = 1;
nodes = (
"430 -17 OFFCURVE",
"514 12 OFFCURVE",
"556 72 CURVE",
"563 77 LINE",
"552 59 OFFCURVE",
"549 42 OFFCURVE",
"546 25 CURVE SMOOTH",
"542 0 LINE",
"1063 0 LINE",
"1091 160 LINE",
"749 160 LINE",
"774 302 LINE",
"1083 302 LINE",
"1111 461 LINE",
"802 461 LINE",
"827 603 LINE",
"1169 603 LINE",
"1197 763 LINE",
"676 763 LINE",
"673 745 LINE SMOOTH",
"671 731 OFFCURVE",
"673 717 OFFCURVE",
"676 697 CURVE",
"655 681 LINE",
"636 732 OFFCURVE",
"560 779 OFFCURVE",
"456 779 CURVE SMOOTH",
"201 779 OFFCURVE",
"27 563 OFFCURVE",
"27 301 CURVE SMOOTH",
"27 123 OFFCURVE",
"124 -17 OFFCURVE",
"338 -17 CURVE SMOOTH"
);
},
{
closed = 1;
nodes = (
"265 143 OFFCURVE",
"214 204 OFFCURVE",
"214 305 CURVE SMOOTH",
"214 463 OFFCURVE",
"310 619 OFFCURVE",
"467 619 CURVE SMOOTH",
"562 619 OFFCURVE",
"613 559 OFFCURVE",
"613 459 CURVE SMOOTH",
"613 300 OFFCURVE",
"517 143 OFFCURVE",
"361 143 CURVE SMOOTH"
);
}
);
width = 1180;
}
);
leftKerningGroup = C;
leftMetricsKey = O;
rightKerningGroup = E;
rightMetricsKey = E;
unicode = 0152;
},
{
color = 1;
glyphname = P;
lastChange = "2020-04-07 12:27:31 +0000";
layers = (
{
anchors = (
{
name = bottom;
position = "{264, 0}";
},
{
name = top;
position = "{398, 763}";
}
);
layerId = "FD6EB2BB-8839-4CDB-86BF-4EEAE3F02079";
paths = (
{
closed = 1;
nodes = (
"179 0 LINE",
"231 294 LINE",
"417 294 LINE SMOOTH",
"621 294 OFFCURVE",
"702 436 OFFCURVE",
"702 563 CURVE SMOOTH",
"702 668 OFFCURVE",
"634 763 OFFCURVE",
"489 763 CURVE SMOOTH",
"134 763 LINE",
"0 0 LINE"
);
},
{
closed = 1;
nodes = (
"285 603 LINE",
"447 603 LINE SMOOTH",
"499 603 OFFCURVE",
"522 575 OFFCURVE",
"522 542 CURVE SMOOTH",
"522 499 OFFCURVE",
"501 449 OFFCURVE",
"408 449 CURVE SMOOTH",
"258 449 LINE"
);
}
);
width = 698;
},
{
anchors = (
{
name = bottom;
position = "{251, 0}";
},
{
name = top;
position = "{385, 763}";
}
);
layerId = "11907447-A26F-432E-A335-7727E0303767";
paths = (
{
closed = 1;
nodes = (
"112 0 LINE",
"169 322 LINE",
"363 322 LINE SMOOTH",
"577 322 OFFCURVE",
"648 456 OFFCURVE",
"648 571 CURVE SMOOTH",
"648 674 OFFCURVE",
"582 763 OFFCURVE",
"436 763 CURVE SMOOTH",
"154 763 LINE",
"20 0 LINE"
);
},
{
closed = 1;
nodes = (
"232 680 LINE",
"414 680 LINE SMOOTH",
"511 680 OFFCURVE",
"556 625 OFFCURVE",
"556 560 CURVE SMOOTH",
"556 489 OFFCURVE",
"516 404 OFFCURVE",
"360 404 CURVE SMOOTH",
"183 404 LINE"
);
}
);
width = 656;
},
{
anchors = (
{
name = bottom;
position = "{241, 0}";
},
{
name = top;
position = "{375, 763}";
}
);
layerId = "2F4EEC1B-9E89-4E08-AD53-AB625B6E887D";
paths = (
{
closed = 1;
nodes = (
"89 0 LINE",
"147 332 LINE",
"344 332 LINE SMOOTH",
"558 332 OFFCURVE",
"629 463 OFFCURVE",
"629 570 CURVE SMOOTH",
"629 676 OFFCURVE",
"562 763 OFFCURVE",
"416 763 CURVE SMOOTH",
"154 763 LINE",
"20 0 LINE"
);
},
{
closed = 1;
nodes = (
"212 701 LINE",
"401 701 LINE SMOOTH",
"510 701 OFFCURVE",
"560 640 OFFCURVE",
"560 561 CURVE SMOOTH",
"560 487 OFFCURVE",
"513 392 OFFCURVE",
"342 392 CURVE SMOOTH",
"158 392 LINE"
);
}
);
width = 636;
}
);
leftKerningGroup = B;
note = P;
rightKerningGroup = P;
unicode = 0050;
},
{
color = 1;
glyphname = Thorn;
lastChange = "2020-04-06 10:56:40 +0000";
layers = (
{
anchors = (
{
name = bottom;
position = "{293, 0}";
},
{
name = top;
position = "{428, 763}";
}
);
layerId = "FD6EB2BB-8839-4CDB-86BF-4EEAE3F02079";
paths = (
{
closed = 1;
nodes = (
"178 0 LINE",
"212 194 LINE",
"398 194 LINE SMOOTH",
"602 194 OFFCURVE",
"683 336 OFFCURVE",
"683 463 CURVE SMOOTH",
"683 568 OFFCURVE",
"615 663 OFFCURVE",
"470 663 CURVE SMOOTH",
"294 663 LINE",
"312 763 LINE",
"134 763 LINE",
"0 0 LINE"
);
},
{
closed = 1;
nodes = (
"266 503 LINE",
"428 503 LINE SMOOTH",
"480 503 OFFCURVE",
"503 475 OFFCURVE",
"503 442 CURVE SMOOTH",
"503 399 OFFCURVE",
"482 349 OFFCURVE",
"389 349 CURVE SMOOTH",
"239 349 LINE"
);
}
);
width = 668;
},
{
anchors = (
{
name = bottom;
position = "{280, 0}";
},
{
name = top;
position = "{415, 763}";
}
);
layerId = "11907447-A26F-432E-A335-7727E0303767";
paths = (
{
closed = 1;
nodes = (
"111 0 LINE",
"150 221 LINE",
"344 221 LINE SMOOTH",
"492 221 OFFCURVE",
"598 299 OFFCURVE",
"622 434 CURVE SMOOTH",
"648 581 OFFCURVE",
"562 655 OFFCURVE",
"416 655 CURVE SMOOTH",
"226 655 LINE",
"245 763 LINE",
"154 763 LINE",
"20 0 LINE"
);
},
{
closed = 1;
nodes = (
"212 572 LINE",
"396 572 LINE SMOOTH",
"498 572 OFFCURVE",
"547 526 OFFCURVE",
"533 443 CURVE SMOOTH",
"517 352 OFFCURVE",
"446 302 OFFCURVE",
"343 302 CURVE SMOOTH",
"164 302 LINE"
);
}
);
width = 630;
},
{
anchors = (
{
name = bottom;
position = "{241, 0}";
},
{
name = top;
position = "{375, 763}";
}
);
layerId = "2F4EEC1B-9E89-4E08-AD53-AB625B6E887D";
paths = (
{
closed = 1;
nodes = (
"88 0 LINE",
"128 226 LINE",
"325 226 LINE SMOOTH",
"475 226 OFFCURVE",
"579 303 OFFCURVE",
"602 435 CURVE SMOOTH",
"628 578 OFFCURVE",
"544 653 OFFCURVE",
"396 653 CURVE SMOOTH",
"203 653 LINE",
"222 763 LINE",
"154 763 LINE",
"20 0 LINE"
);
},
{
closed = 1;
nodes = (
"192 591 LINE",
"382 591 LINE SMOOTH",
"497 591 OFFCURVE",
"552 537 OFFCURVE",
"536 443 CURVE SMOOTH",
"518 342 OFFCURVE",
"440 287 OFFCURVE",
"324 287 CURVE SMOOTH",
"138 287 LINE"
);
}
);
width = 617;
}
);
leftKerningGroup = B;
leftMetricsKey = P;
note = Thorn;
rightKerningGroup = Thorn;
unicode = 00DE;
},
{
color = 1;
glyphname = Q;
lastChange = "2020-04-14 09:56:40 +0000";
layers = (
{
anchors = (
{
name = bottom;
position = "{350, 0}";
},
{
name = top;
position = "{485, 763}";
}
);
layerId = "FD6EB2BB-8839-4CDB-86BF-4EEAE3F02079";
paths = (
{
closed = 1;
nodes = (
"685 -87 LINE",
"631 79 LINE",
"746 172 OFFCURVE",
"807 317 OFFCURVE",
"807 452 CURVE SMOOTH",
"807 624 OFFCURVE",
"706 779 OFFCURVE",
"489 779 CURVE SMOOTH",
"190 779 OFFCURVE",
"27 530 OFFCURVE",
"27 310 CURVE SMOOTH",
"27 138 OFFCURVE",
"128 -17 OFFCURVE",
"345 -17 CURVE SMOOTH",
"390 -17 OFFCURVE",
"420 -13 OFFCURVE",
"441 -3 CURVE SMOOTH",
"461 6 OFFCURVE",
"473 19 OFFCURVE",
"482 31 CURVE",
"500 31 LINE",
"493 23 OFFCURVE",
"491 14 OFFCURVE",
"491 3 CURVE SMOOTH",
"491 -11 OFFCURVE",
"496 -27 OFFCURVE",
"502 -44 CURVE SMOOTH",
"516 -87 LINE"
);
},
{
closed = 1;
nodes = (
"258 143 OFFCURVE",
"206 231 OFFCURVE",
"206 331 CURVE SMOOTH",
"206 464 OFFCURVE",
"298 619 OFFCURVE",
"461 619 CURVE SMOOTH",
"576 619 OFFCURVE",
"628 531 OFFCURVE",
"628 431 CURVE SMOOTH",
"628 298 OFFCURVE",
"536 143 OFFCURVE",
"373 143 CURVE SMOOTH"
);
}
);
width = 834;
},
{
anchors = (
{
name = bottom;
position = "{341, 0}";
},
{
name = top;
position = "{475, 763}";
}
);
layerId = "11907447-A26F-432E-A335-7727E0303767";
paths = (
{
closed = 1;
nodes = (
"654 -87 LINE",
"584 68 LINE",
"702 156 OFFCURVE",
"769 315 OFFCURVE",
"769 468 CURVE SMOOTH",
"769 638 OFFCURVE",
"678 773 OFFCURVE",
"470 773 CURVE SMOOTH",
"217 773 OFFCURVE",
"45 556 OFFCURVE",
"45 296 CURVE SMOOTH",
"45 125 OFFCURVE",
"136 -10 OFFCURVE",
"342 -10 CURVE SMOOTH",
"377 -10 OFFCURVE",
"406 -8 OFFCURVE",
"431 -2 CURVE SMOOTH",
"458 5 OFFCURVE",
"481 17 OFFCURVE",
"506 38 CURVE",
"518 38 LINE",
"513 31 OFFCURVE",
"511 25 OFFCURVE",
"511 19 CURVE SMOOTH",
"511 10 OFFCURVE",
"515 0 OFFCURVE",
"521 -13 CURVE SMOOTH",
"555 -87 LINE"
);
},
{
closed = 1;
nodes = (
"206 72 OFFCURVE",
"136 163 OFFCURVE",
"136 297 CURVE SMOOTH",
"136 502 OFFCURVE",
"265 691 OFFCURVE",
"466 691 CURVE SMOOTH",
"608 691 OFFCURVE",
"678 600 OFFCURVE",
"678 467 CURVE SMOOTH",
"678 260 OFFCURVE",
"549 72 OFFCURVE",
"346 72 CURVE SMOOTH"
);
}
);
width = 814;
},
{
anchors = (
{
name = bottom;
position = "{334, 0}";
},
{
name = top;
position = "{468, 763}";
}
);
layerId = "2F4EEC1B-9E89-4E08-AD53-AB625B6E887D";
paths = (
{
closed = 1;
nodes = (
"636 -87 LINE",
"567 64 LINE",
"686 150 OFFCURVE",
"755 317 OFFCURVE",
"755 473 CURVE SMOOTH",
"755 641 OFFCURVE",
"667 773 OFFCURVE",
"465 773 CURVE SMOOTH",
"215 773 OFFCURVE",
"45 552 OFFCURVE",
"45 292 CURVE SMOOTH",
"45 123 OFFCURVE",
"134 -10 OFFCURVE",
"335 -10 CURVE SMOOTH",
"380 -10 OFFCURVE",
"415 -7 OFFCURVE",
"447 6 CURVE SMOOTH",
"467 14 OFFCURVE",
"487 26 OFFCURVE",
"506 43 CURVE",
"518 43 LINE",
"514 38 OFFCURVE",
"512 33 OFFCURVE",
"512 27 CURVE SMOOTH",
"512 16 OFFCURVE",
"518 4 OFFCURVE",
"523 -6 CURVE SMOOTH",
"562 -87 LINE"
);
},
{
closed = 1;
nodes = (
"186 52 OFFCURVE",
"113 152 OFFCURVE",
"113 293 CURVE SMOOTH",
"113 511 OFFCURVE",
"249 711 OFFCURVE",
"462 711 CURVE SMOOTH",
"616 711 OFFCURVE",
"687 612 OFFCURVE",
"687 472 CURVE SMOOTH",
"687 252 OFFCURVE",
"552 52 OFFCURVE",
"338 52 CURVE SMOOTH"
);
}
);
width = 799;
}
);
leftKerningGroup = C;
leftMetricsKey = O;
note = Q;
rightKerningGroup = Q;
rightMetricsKey = O;
unicode = 0051;
},
{
color = 1;
glyphname = R;
lastChange = "2020-04-07 12:27:31 +0000";
layers = (
{
anchors = (
{
name = bottom;
position = "{307, 0}";
},
{
name = top;
position = "{416, 763}";
}
);
background = {
components = (
{
name = P;
transform = "{1, 0, 0, 1, -41, 0}";
}
);
};
layerId = "FD6EB2BB-8839-4CDB-86BF-4EEAE3F02079";
paths = (
{
closed = 1;
nodes = (
"179 0 LINE",
"231 294 LINE",
"377 294 LINE",
"436 0 LINE",
"622 0 LINE",
"563 242 LINE SMOOTH",
"553 282 OFFCURVE",
"550 300 OFFCURVE",
"529 324 CURVE",
"539 342 LINE",
"546 340 OFFCURVE",
"553 339 OFFCURVE",
"560 339 CURVE SMOOTH",
"629 339 OFFCURVE",
"702 448 OFFCURVE",
"702 563 CURVE SMOOTH",
"702 668 OFFCURVE",
"634 763 OFFCURVE",
"489 763 CURVE SMOOTH",
"134 763 LINE",
"0 0 LINE"
);
},
{
closed = 1;
nodes = (
"285 603 LINE",
"447 603 LINE SMOOTH",
"499 603 OFFCURVE",
"522 575 OFFCURVE",
"522 542 CURVE SMOOTH",
"522 499 OFFCURVE",
"501 449 OFFCURVE",
"408 449 CURVE SMOOTH",
"258 449 LINE"
);
}
);
width = 719;
},
{
anchors = (
{
name = bottom;
position = "{285, 0}";
},
{
name = top;
position = "{396, 763}";
}
);
background = {
components = (
{
name = P;
transform = "{1, 0, 0, 1, -26, 0}";
}
);
};
layerId = "11907447-A26F-432E-A335-7727E0303767";
paths = (
{
closed = 1;
nodes = (
"112 0 LINE",
"169 324 LINE",
"380 324 LINE",
"459 0 LINE",
"555 0 LINE",
"477 291 LINE SMOOTH",
"474 304 OFFCURVE",
"469 330 OFFCURVE",
"449 341 CURVE",
"456 357 LINE",
"466 355 OFFCURVE",
"473 354 OFFCURVE",
"482 354 CURVE SMOOTH",
"574 354 OFFCURVE",
"648 456 OFFCURVE",
"648 571 CURVE SMOOTH",
"648 674 OFFCURVE",
"582 763 OFFCURVE",
"436 763 CURVE SMOOTH",
"154 763 LINE",
"20 0 LINE"
);
},
{
closed = 1;
nodes = (
"232 680 LINE",
"414 680 LINE SMOOTH",
"511 680 OFFCURVE",
"556 625 OFFCURVE",
"556 560 CURVE SMOOTH",
"556 489 OFFCURVE",
"516 404 OFFCURVE",
"360 404 CURVE SMOOTH",
"183 404 LINE"
);
}
);
width = 674;
},
{
anchors = (
{
name = bottom;
position = "{274, 0}";
},
{
name = top;
position = "{385, 763}";
}
);
background = {
components = (
{
name = P;
transform = "{1, 0, 0, 1, -25, 0}";
}
);
};
layerId = "2F4EEC1B-9E89-4E08-AD53-AB625B6E887D";
paths = (
{
closed = 1;
nodes = (
"89 0 LINE",
"147 332 LINE",
"374 332 LINE",
"459 0 LINE",
"532 0 LINE",
"451 299 LINE SMOOTH",
"448 310 OFFCURVE",
"442 332 OFFCURVE",
"430 343 CURVE",
"436 359 LINE",
"443 358 OFFCURVE",
"450 357 OFFCURVE",
"458 357 CURVE SMOOTH",
"546 357 OFFCURVE",
"629 463 OFFCURVE",
"629 570 CURVE SMOOTH",
"629 677 OFFCURVE",
"562 763 OFFCURVE",
"416 763 CURVE SMOOTH",
"154 763 LINE",
"20 0 LINE"
);
},
{
closed = 1;
nodes = (
"212 701 LINE",
"401 701 LINE SMOOTH",
"510 701 OFFCURVE",
"560 640 OFFCURVE",
"560 561 CURVE SMOOTH",
"560 487 OFFCURVE",
"513 392 OFFCURVE",
"342 392 CURVE SMOOTH",
"158 392 LINE"
);
}
);
width = 652;
}
);
leftKerningGroup = B;
note = R;
rightKerningGroup = R;
unicode = 0052;
},
{
color = 1;
glyphname = S;
lastChange = "2020-04-07 12:27:31 +0000";
layers = (
{
anchors = (
{
name = bottom;
position = "{291, 0}";
},
{
name = top;
position = "{425, 763}";
}
);
guideLines = (
{
position = "{472, 525}";
},
{
position = "{78, 259}";
}
);
layerId = "FD6EB2BB-8839-4CDB-86BF-4EEAE3F02079";
paths = (
{
closed = 1;
nodes = (
"522 -17 OFFCURVE",
"656 88 OFFCURVE",
"656 252 CURVE SMOOTH",
"656 394 OFFCURVE",
"540 432 OFFCURVE",
"433 456 CURVE SMOOTH",
"334 478 OFFCURVE",
"261 501 OFFCURVE",
"261 551 CURVE SMOOTH",
"261 603 OFFCURVE",
"310 629 OFFCURVE",
"377 629 CURVE SMOOTH",
"459 629 OFFCURVE",
"501 594 OFFCURVE",
"506 525 CURVE",
"685 525 LINE",
"688 691 OFFCURVE",
"559 779 OFFCURVE",
"385 779 CURVE SMOOTH",
"211 779 OFFCURVE",
"80 682 OFFCURVE",
"80 527 CURVE SMOOTH",
"80 396 OFFCURVE",
"190 356 OFFCURVE",
"286 329 CURVE SMOOTH",
"393 299 OFFCURVE",
"475 288 OFFCURVE",
"475 230 CURVE SMOOTH",
"475 164 OFFCURVE",
"413 133 OFFCURVE",
"341 133 CURVE SMOOTH",
"263 133 OFFCURVE",
"200 154 OFFCURVE",
"194 259 CURVE",
"12 259 LINE",
"5 74 OFFCURVE",
"141 -17 OFFCURVE",
"334 -17 CURVE SMOOTH"
);
}
);
width = 717;
},
{
anchors = (
{
name = bottom;
position = "{274, 0}";
},
{
name = top;
position = "{408, 763}";
}
);
guideLines = (
{
angle = 180;
position = "{650, 552}";
},
{
position = "{594, 231}";
}
);
layerId = "11907447-A26F-432E-A335-7727E0303767";
paths = (
{
closed = 1;
nodes = (
"478 -10 OFFCURVE",
"600 78 OFFCURVE",
"600 237 CURVE SMOOTH",
"600 370 OFFCURVE",
"483 411 OFFCURVE",
"374 435 CURVE SMOOTH",
"284 455 OFFCURVE",
"200 480 OFFCURVE",
"200 560 CURVE SMOOTH",
"200 645 OFFCURVE",
"276 691 OFFCURVE",
"372 691 CURVE SMOOTH",
"465 691 OFFCURVE",
"546 659 OFFCURVE",
"547 552 CURVE",
"634 552 LINE",
"636 707 OFFCURVE",
"518 773 OFFCURVE",
"377 773 CURVE SMOOTH",
"229 773 OFFCURVE",
"107 688 OFFCURVE",
"107 546 CURVE SMOOTH",
"107 416 OFFCURVE",
"235 381 OFFCURVE",
"337 359 CURVE SMOOTH",
"426 340 OFFCURVE",
"508 313 OFFCURVE",
"508 225 CURVE SMOOTH",
"508 123 OFFCURVE",
"430 72 OFFCURVE",
"319 72 CURVE SMOOTH",
"217 72 OFFCURVE",
"114 107 OFFCURVE",
"112 231 CURVE",
"21 231 LINE",
"19 62 OFFCURVE",
"149 -10 OFFCURVE",
"311 -10 CURVE SMOOTH"
);
}
);
width = 680;
},
{
anchors = (
{
name = bottom;
position = "{262, 0}";
},
{
name = top;
position = "{396, 763}";
}
);
guideLines = (
{
angle = 180;
position = "{153, 216}";
},
{
angle = 180;
position = "{512, 562}";
}
);
layerId = "2F4EEC1B-9E89-4E08-AD53-AB625B6E887D";
paths = (
{
closed = 1;
nodes = (
"462 -10 OFFCURVE",
"580 80 OFFCURVE",
"580 238 CURVE SMOOTH",
"580 369 OFFCURVE",
"461 405 OFFCURVE",
"351 430 CURVE SMOOTH",
"262 450 OFFCURVE",
"177 483 OFFCURVE",
"177 567 CURVE SMOOTH",
"177 659 OFFCURVE",
"253 711 OFFCURVE",
"365 711 CURVE SMOOTH",
"462 711 OFFCURVE",
"548 672 OFFCURVE",
"548 562 CURVE",
"613 562 LINE",
"615 710 OFFCURVE",
"503 773 OFFCURVE",
"369 773 CURVE SMOOTH",
"219 773 OFFCURVE",
"108 693 OFFCURVE",
"108 558 CURVE SMOOTH",
"108 440 OFFCURVE",
"217 397 OFFCURVE",
"325 372 CURVE SMOOTH",
"420 349 OFFCURVE",
"512 326 OFFCURVE",
"512 229 CURVE SMOOTH",
"512 118 OFFCURVE",
"426 52 OFFCURVE",
"305 52 CURVE SMOOTH",
"194 52 OFFCURVE",
"85 89 OFFCURVE",
"86 216 CURVE",
"18 216 LINE",
"15 57 OFFCURVE",
"142 -10 OFFCURVE",
"297 -10 CURVE SMOOTH"
);
}
);
width = 659;
}
);
leftKerningGroup = S;
note = S;
rightKerningGroup = S;
unicode = 0053;
},
{
color = 1;
glyphname = Germandbls;
lastChange = "2020-04-06 10:59:50 +0000";
layers = (
{
anchors = (
{
name = bottom;
position = "{269, 0}";
},
{
name = top;
position = "{403, 763}";
}
);
layerId = "2F4EEC1B-9E89-4E08-AD53-AB625B6E887D";
paths = (
{
closed = 1;
nodes = (
"89 0 LINE",
"168 450 LINE SMOOTH",
"196 609 OFFCURVE",
"254 711 OFFCURVE",
"404 711 CURVE SMOOTH",
"520 711 OFFCURVE",
"528 659 OFFCURVE",
"569 659 CURVE",
"569 643 LINE",
"544 643 OFFCURVE",
"517 629 OFFCURVE",
"482 599 CURVE SMOOTH",
"316 457 LINE",
"301 371 LINE",
"399 371 LINE SMOOTH",
"455 371 OFFCURVE",
"540 357 OFFCURVE",
"540 259 CURVE SMOOTH",
"540 129 OFFCURVE",
"448 62 OFFCURVE",
"313 62 CURVE SMOOTH",
"192 62 LINE",
"181 0 LINE",
"314 0 LINE SMOOTH",
"485 0 OFFCURVE",
"609 93 OFFCURVE",
"609 260 CURVE SMOOTH",
"609 365 OFFCURVE",
"535 432 OFFCURVE",
"431 432 CURVE SMOOTH",
"410 432 OFFCURVE",
"387 429 OFFCURVE",
"364 423 CURVE",
"364 435 LINE",
"401 457 OFFCURVE",
"417 469 OFFCURVE",
"432 482 CURVE SMOOTH",
"611 635 LINE",
"618 686 LINE",
"558 749 OFFCURVE",
"495 773 OFFCURVE",
"407 773 CURVE SMOOTH",
"216 773 OFFCURVE",
"136 660 OFFCURVE",
"100 454 CURVE SMOOTH",
"20 0 LINE"
);
}
);
width = 686;
},
{
anchors = (
{
name = bottom;
position = "{275, 0}";
},
{
name = top;
position = "{409, 763}";
}
);
layerId = "11907447-A26F-432E-A335-7727E0303767";
paths = (
{
closed = 1;
nodes = (
"112 0 LINE",
"201 504 LINE SMOOTH",
"221 620 OFFCURVE",
"282 690 OFFCURVE",
"405 690 CURVE SMOOTH",
"519 690 OFFCURVE",
"541 636 OFFCURVE",
"578 636 CURVE",
"578 620 LINE",
"541 620 OFFCURVE",
"518 612 OFFCURVE",
"485 584 CURVE SMOOTH",
"365 481 LINE",
"344 360 LINE",
"395 360 LINE SMOOTH",
"433 360 OFFCURVE",
"531 362 OFFCURVE",
"531 261 CURVE SMOOTH",
"531 137 OFFCURVE",
"442 83 OFFCURVE",
"321 83 CURVE SMOOTH",
"226 83 LINE",
"212 0 LINE",
"321 0 LINE SMOOTH",
"492 0 OFFCURVE",
"621 86 OFFCURVE",
"621 256 CURVE SMOOTH",
"621 359 OFFCURVE",
"559 433 OFFCURVE",
"464 433 CURVE SMOOTH",
"452 433 OFFCURVE",
"440 431 OFFCURVE",
"427 429 CURVE",
"427 440 LINE",
"468 464 OFFCURVE",
"486 480 OFFCURVE",
"504 495 CURVE SMOOTH",
"625 600 LINE",
"635 673 LINE",
"579 734 OFFCURVE",
"519 773 OFFCURVE",
"409 773 CURVE SMOOTH",
"245 773 OFFCURVE",
"141 686 OFFCURVE",
"110 510 CURVE SMOOTH",
"20 0 LINE"
);
}
);
width = 698;
},
{
anchors = (
{
name = bottom;
position = "{277, 0}";
},
{
name = top;
position = "{411, 763}";
}
);
layerId = "FD6EB2BB-8839-4CDB-86BF-4EEAE3F02079";
paths = (
{
closed = 1;
nodes = (
"178 0 LINE",
"256 444 LINE SMOOTH",
"274 547 OFFCURVE",
"313 619 OFFCURVE",
"418 619 CURVE SMOOTH",
"491 619 OFFCURVE",
"482 588 OFFCURVE",
"521 588 CURVE",
"521 574 LINE",
"482 574 OFFCURVE",
"467 567 OFFCURVE",
"448 550 CURVE SMOOTH",
"338 452 LINE",
"316 315 LINE",
"387 315 LINE SMOOTH",
"449 315 OFFCURVE",
"475 300 OFFCURVE",
"475 267 CURVE SMOOTH",
"475 204 OFFCURVE",
"419 160 OFFCURVE",
"355 160 CURVE SMOOTH",
"266 160 LINE",
"238 0 LINE",
"330 0 LINE SMOOTH",
"500 0 OFFCURVE",
"652 79 OFFCURVE",
"652 267 CURVE SMOOTH",
"652 343 OFFCURVE",
"615 405 OFFCURVE",
"554 425 CURVE SMOOTH",
"539 429 OFFCURVE",
"523 432 OFFCURVE",
"505 431 CURVE",
"505 439 LINE",
"549 460 OFFCURVE",
"562 469 OFFCURVE",
"576 482 CURVE SMOOTH",
"634 535 LINE",
"654 682 LINE",
"607 734 OFFCURVE",
"532 779 OFFCURVE",
"424 779 CURVE SMOOTH",
"211 779 OFFCURVE",
"118 678 OFFCURVE",
"79 456 CURVE SMOOTH",
"-1 0 LINE"
);
}
);
width = 709;
}
);
leftKerningGroup = S;
leftMetricsKey = I;
rightMetricsKey = B;
unicode = 1E9E;
},
{
color = 1;
glyphname = T;
lastChange = "2020-04-07 12:27:31 +0000";
layers = (
{
anchors = (
{
name = bottom;
position = "{244, 0}";
},
{
name = center;
position = "{311, 382}";
},
{
name = top;
position = "{378, 763}";
}
);
layerId = "FD6EB2BB-8839-4CDB-86BF-4EEAE3F02079";
paths = (
{
closed = 1;
nodes = (
"333 0 LINE",
"439 603 LINE",
"654 603 LINE",
"682 763 LINE",
"73 763 LINE",
"45 603 LINE",
"260 603 LINE",
"154 0 LINE"
);
}
);
width = 629;
},
{
anchors = (
{
name = bottom;
position = "{249, 0}";
},
{
name = center;
position = "{316, 382}";
},
{
name = top;
position = "{383, 763}";
}
);
layerId = "11907447-A26F-432E-A335-7727E0303767";
paths = (
{
closed = 1;
nodes = (
"294 0 LINE",
"414 680 LINE",
"673 680 LINE",
"687 763 LINE",
"78 763 LINE",
"64 680 LINE",
"322 680 LINE",
"202 0 LINE"
);
}
);
width = 640;
},
{
anchors = (
{
name = bottom;
position = "{245, 0}";
},
{
name = center;
position = "{312, 382}";
},
{
name = top;
position = "{379, 763}";
}
);
layerId = "2F4EEC1B-9E89-4E08-AD53-AB625B6E887D";
paths = (
{
closed = 1;
nodes = (
"279 0 LINE",
"402 701 LINE",
"671 701 LINE",
"682 763 LINE",
"76 763 LINE",
"65 701 LINE",
"333 701 LINE",
"210 0 LINE"
);
}
);
width = 632;
}
);
leftKerningGroup = T;
note = T;
rightKerningGroup = T;
unicode = 0054;
},
{
color = 1;
glyphname = U;
lastChange = "2020-07-09 08:30:51 +0000";
layers = (
{
anchors = (
{
name = bottom;
position = "{312, 0}";
},
{
name = ogonek;
position = "{408, 0}";
},
{
name = top;
position = "{446, 763}";
},
{
name = topright;
position = "{820, 763}";
}
);
layerId = "FD6EB2BB-8839-4CDB-86BF-4EEAE3F02079";
paths = (
{
closed = 1;
nodes = (
"549 -17 OFFCURVE",
"654 104 OFFCURVE",
"685 279 CURVE SMOOTH",
"770 763 LINE",
"590 763 LINE",
"507 291 LINE SMOOTH",
"493 213 OFFCURVE",
"447 143 OFFCURVE",
"326 143 CURVE SMOOTH",
"214 143 OFFCURVE",
"202 201 OFFCURVE",
"216 279 CURVE SMOOTH",
"301 763 LINE",
"121 763 LINE",
"38 291 LINE SMOOTH",
"7 116 OFFCURVE",
"78 -17 OFFCURVE",
"320 -17 CURVE SMOOTH"
);
}
);
width = 761;
},
{
anchors = (
{
name = bottom;
position = "{291, 0}";
},
{
name = ogonek;
position = "{354, 0}";
},
{
name = top;
position = "{425, 763}";
},
{
name = topright;
position = "{774, 763}";
}
);
layerId = "11907447-A26F-432E-A335-7727E0303767";
paths = (
{
closed = 1;
nodes = (
"485 -10 OFFCURVE",
"590 92 OFFCURVE",
"620 261 CURVE SMOOTH",
"708 763 LINE",
"616 763 LINE",
"529 267 LINE SMOOTH",
"508 148 OFFCURVE",
"434 72 OFFCURVE",
"298 72 CURVE SMOOTH",
"168 72 OFFCURVE",
"125 142 OFFCURVE",
"146 261 CURVE SMOOTH",
"234 763 LINE",
"142 763 LINE",
"55 267 LINE SMOOTH",
"25 98 OFFCURVE",
"99 -10 OFFCURVE",
"294 -10 CURVE SMOOTH"
);
}
);
width = 720;
},
{
anchors = (
{
name = bottom;
position = "{281, 0}";
},
{
name = ogonek;
position = "{336, 0}";
},
{
name = top;
position = "{415, 763}";
},
{
name = topright;
position = "{757, 763}";
}
);
layerId = "2F4EEC1B-9E89-4E08-AD53-AB625B6E887D";
paths = (
{
closed = 1;
nodes = (
"467 -10 OFFCURVE",
"568 94 OFFCURVE",
"599 268 CURVE SMOOTH",
"686 763 LINE",
"617 763 LINE",
"531 272 LINE SMOOTH",
"507 136 OFFCURVE",
"430 52 OFFCURVE",
"285 52 CURVE SMOOTH",
"144 52 OFFCURVE",
"100 132 OFFCURVE",
"124 268 CURVE SMOOTH",
"211 763 LINE",
"142 763 LINE",
"56 272 LINE SMOOTH",
"26 98 OFFCURVE",
"93 -10 OFFCURVE",
"282 -10 CURVE SMOOTH"
);
}
);
width = 699;
}
);
leftKerningGroup = U;
note = U;
rightKerningGroup = U;
unicode = 0055;
},
{
color = 1;
glyphname = V;
lastChange = "2020-04-07 12:27:31 +0000";
layers = (
{
anchors = (
{
name = bottom;
position = "{290, 0}";
},
{
name = top;
position = "{424, 763}";
}
);
layerId = "FD6EB2BB-8839-4CDB-86BF-4EEAE3F02079";
paths = (
{
closed = 1;
nodes = (
"388 0 LINE",
"784 763 LINE",
"584 763 LINE",
"359 297 LINE SMOOTH",
"333 244 OFFCURVE",
"328 212 OFFCURVE",
"324 183 CURVE",
"305 183 LINE",
"310 216 OFFCURVE",
"310 231 OFFCURVE",
"304 285 CURVE SMOOTH",
"248 763 LINE",
"68 763 LINE",
"194 0 LINE"
);
}
);
width = 728;
},
{
anchors = (
{
name = bottom;
position = "{279, 0}";
},
{
name = top;
position = "{413, 763}";
}
);
layerId = "11907447-A26F-432E-A335-7727E0303767";
paths = (
{
closed = 1;
nodes = (
"332 0 LINE",
"747 763 LINE",
"649 763 LINE",
"330 171 LINE SMOOTH",
"317 147 OFFCURVE",
"305 122 OFFCURVE",
"300 87 CURVE",
"282 87 LINE",
"286 118 OFFCURVE",
"283 140 OFFCURVE",
"278 165 CURVE SMOOTH",
"169 763 LINE",
"81 763 LINE",
"228 0 LINE"
);
}
);
width = 703;
},
{
anchors = (
{
name = bottom;
position = "{272, 0}";
},
{
name = top;
position = "{406, 763}";
}
);
layerId = "2F4EEC1B-9E89-4E08-AD53-AB625B6E887D";
paths = (
{
closed = 1;
nodes = (
"312 0 LINE",
"735 763 LINE",
"660 763 LINE",
"327 158 LINE SMOOTH",
"305 118 OFFCURVE",
"294 96 OFFCURVE",
"288 63 CURVE",
"271 63 LINE",
"273 96 OFFCURVE",
"271 114 OFFCURVE",
"263 154 CURVE SMOOTH",
"146 763 LINE",
"79 763 LINE",
"232 0 LINE"
);
}
);
width = 692;
}
);
leftKerningGroup = V;
note = V;
rightKerningGroup = V;
unicode = 0056;
},
{
color = 1;
glyphname = W;
lastChange = "2020-04-07 12:27:31 +0000";
layers = (
{
anchors = (
{
name = bottom;
position = "{497, 0}";
},
{
name = top;
position = "{631, 763}";
}
);
guideLines = (
{
position = "{338, 226}";
},
{
position = "{604, 534}";
}
);
layerId = "FD6EB2BB-8839-4CDB-86BF-4EEAE3F02079";
paths = (
{
closed = 1;
nodes = (
"392 0 LINE",
"571 528 LINE SMOOTH",
"576 543 OFFCURVE",
"582 567 OFFCURVE",
"593 618 CURVE",
"608 618 LINE",
"601 579 OFFCURVE",
"600 555 OFFCURVE",
"600 540 CURVE SMOOTH",
"603 0 LINE",
"873 0 LINE",
"1190 763 LINE",
"995 763 LINE",
"785 232 LINE SMOOTH",
"776 209 OFFCURVE",
"767 186 OFFCURVE",
"759 137 CURVE",
"740 137 LINE",
"748 176 OFFCURVE",
"746 197 OFFCURVE",
"746 220 CURVE SMOOTH",
"746 763 LINE",
"501 763 LINE",
"313 232 LINE SMOOTH",
"305 209 OFFCURVE",
"296 185 OFFCURVE",
"289 137 CURVE",
"270 137 LINE",
"278 175 OFFCURVE",
"274 197 OFFCURVE",
"273 220 CURVE SMOOTH",
"254 763 LINE",
"74 763 LINE",
"122 0 LINE"
);
}
);
width = 1142;
},
{
anchors = (
{
name = bottom;
position = "{466, 0}";
},
{
name = top;
position = "{600, 763}";
}
);
guideLines = (
{
position = "{517, 220}";
}
);
layerId = "11907447-A26F-432E-A335-7727E0303767";
paths = (
{
closed = 1;
nodes = (
"280 0 LINE",
"543 550 LINE SMOOTH",
"549 563 OFFCURVE",
"555 576 OFFCURVE",
"564 612 CURVE",
"578 612 LINE",
"576 582 OFFCURVE",
"578 569 OFFCURVE",
"580 556 CURVE SMOOTH",
"652 0 LINE",
"755 0 LINE",
"1117 763 LINE",
"1017 763 LINE",
"758 223 LINE SMOOTH",
"747 201 OFFCURVE",
"732 169 OFFCURVE",
"726 133 CURVE",
"709 133 LINE",
"714 166 OFFCURVE",
"708 195 OFFCURVE",
"705 217 CURVE SMOOTH",
"638 763 LINE",
"553 763 LINE",
"295 223 LINE SMOOTH",
"284 200 OFFCURVE",
"268 168 OFFCURVE",
"263 133 CURVE",
"245 133 LINE",
"251 165 OFFCURVE",
"244 194 OFFCURVE",
"241 217 CURVE SMOOTH",
"176 763 LINE",
"85 763 LINE",
"176 0 LINE"
);
}
);
width = 1078;
},
{
anchors = (
{
name = bottom;
position = "{468, 0}";
},
{
name = top;
position = "{602, 763}";
}
);
guideLines = (
{
position = "{275, 203}";
}
);
layerId = "2F4EEC1B-9E89-4E08-AD53-AB625B6E887D";
paths = (
{
closed = 1;
nodes = (
"260 0 LINE",
"529 547 LINE SMOOTH",
"543 575 OFFCURVE",
"556 602 OFFCURVE",
"572 652 CURVE",
"588 652 LINE",
"587 606 OFFCURVE",
"591 579 OFFCURVE",
"595 551 CURVE SMOOTH",
"675 0 LINE",
"755 0 LINE",
"1121 763 LINE",
"1045 763 LINE",
"761 178 LINE SMOOTH",
"752 159 OFFCURVE",
"737 128 OFFCURVE",
"732 98 CURVE",
"716 98 LINE",
"721 127 OFFCURVE",
"716 155 OFFCURVE",
"713 174 CURVE SMOOTH",
"631 763 LINE",
"566 763 LINE",
"276 178 LINE SMOOTH",
"267 159 OFFCURVE",
"252 128 OFFCURVE",
"247 98 CURVE",
"231 98 LINE",
"236 127 OFFCURVE",
"230 155 OFFCURVE",
"228 174 CURVE SMOOTH",
"153 763 LINE",
"84 763 LINE",
"179 0 LINE"
);
}
);
width = 1081;
}
);
leftKerningGroup = W;
note = W;
rightKerningGroup = W;
unicode = 0057;
},
{
color = 1;
glyphname = X;
lastChange = "2020-04-07 12:27:31 +0000";
layers = (
{
guideLines = (
{
position = "{457, 563}";
},
{
position = "{321, 189}";
}
);
layerId = "FD6EB2BB-8839-4CDB-86BF-4EEAE3F02079";
paths = (
{
closed = 1;
nodes = (
"161 0 LINE",
"314 184 LINE SMOOTH",
"336 215 OFFCURVE",
"348 236 OFFCURVE",
"351 279 CURVE",
"370 279 LINE",
"366 248 OFFCURVE",
"376 225 OFFCURVE",
"391 194 CURVE SMOOTH",
"478 0 LINE",
"686 0 LINE",
"508 379 LINE",
"826 763 LINE",
"609 763 LINE",
"451 569 LINE SMOOTH",
"429 537 OFFCURVE",
"418 516 OFFCURVE",
"415 473 CURVE",
"396 473 LINE",
"400 504 OFFCURVE",
"390 527 OFFCURVE",
"376 558 CURVE SMOOTH",
"291 763 LINE",
"82 763 LINE",
"262 379 LINE",
"-54 0 LINE"
);
}
);
width = 771;
},
{
guideLines = (
{
position = "{398, 503}";
},
{
position = "{344, 249}";
}
);
layerId = "11907447-A26F-432E-A335-7727E0303767";
paths = (
{
closed = 1;
nodes = (
"76 0 LINE",
"290 246 LINE SMOOTH",
"306 264 OFFCURVE",
"338 305 OFFCURVE",
"341 337 CURVE",
"358 337 LINE",
"355 311 OFFCURVE",
"373 270 OFFCURVE",
"383 251 CURVE SMOOTH",
"510 0 LINE",
"612 0 LINE",
"416 384 LINE",
"744 763 LINE",
"627 763 LINE",
"406 506 LINE SMOOTH",
"393 491 OFFCURVE",
"370 456 OFFCURVE",
"367 428 CURVE",
"350 428 LINE",
"353 450 OFFCURVE",
"339 486 OFFCURVE",
"332 501 CURVE SMOOTH",
"202 763 LINE",
"100 763 LINE",
"292 384 LINE",
"-40 0 LINE"
);
}
);
width = 706;
},
{
anchors = (
{
name = bottom;
position = "{274, 0}";
},
{
name = top;
position = "{408, 763}";
}
);
guideLines = (
{
position = "{386, 483}";
},
{
position = "{306, 269}";
}
);
layerId = "2F4EEC1B-9E89-4E08-AD53-AB625B6E887D";
paths = (
{
closed = 1;
nodes = (
"43 0 LINE",
"277 267 LINE SMOOTH",
"292 285 OFFCURVE",
"320 314 OFFCURVE",
"325 344 CURVE",
"342 344 LINE",
"337 318 OFFCURVE",
"357 289 OFFCURVE",
"367 271 CURVE SMOOTH",
"507 0 LINE",
"587 0 LINE",
"388 385 LINE",
"718 763 LINE",
"633 763 LINE",
"392 485 LINE SMOOTH",
"382 472 OFFCURVE",
"361 448 OFFCURVE",
"357 423 CURVE",
"340 423 LINE",
"344 444 OFFCURVE",
"329 468 OFFCURVE",
"322 481 CURVE SMOOTH",
"180 763 LINE",
"100 763 LINE",
"296 385 LINE",
"-41 0 LINE"
);
}
);
width = 680;
}
);
leftKerningGroup = X;
note = X;
rightKerningGroup = X;
unicode = 0058;
},
{
color = 1;
glyphname = Y;
lastChange = "2020-04-07 12:27:31 +0000";
layers = (
{
anchors = (
{
name = bottom;
position = "{291, 0}";
},
{
name = top;
position = "{425, 763}";
},
{
name = topleft;
position = "{92, 763}";
}
);
layerId = "FD6EB2BB-8839-4CDB-86BF-4EEAE3F02079";
paths = (
{
closed = 1;
nodes = (
"387 0 LINE",
"442 303 LINE",
"796 763 LINE",
"573 763 LINE",
"407 542 LINE SMOOTH",
"388 516 OFFCURVE",
"379 489 OFFCURVE",
"372 436 CURVE",
"354 436 LINE",
"361 477 OFFCURVE",
"349 504 OFFCURVE",
"339 531 CURVE SMOOTH",
"255 763 LINE",
"59 763 LINE",
"254 301 LINE",
"199 0 LINE"
);
}
);
width = 732;
},
{
anchors = (
{
name = bottom;
position = "{270, 0}";
},
{
name = top;
position = "{404, 763}";
},
{
name = topleft;
position = "{75, 763}";
}
);
layerId = "11907447-A26F-432E-A335-7727E0303767";
paths = (
{
closed = 1;
nodes = (
"319 0 LINE",
"371 292 LINE",
"737 763 LINE",
"625 763 LINE",
"381 452 LINE SMOOTH",
"355 419 OFFCURVE",
"343 390 OFFCURVE",
"337 354 CURVE",
"320 354 LINE",
"326 384 OFFCURVE",
"316 413 OFFCURVE",
"303 445 CURVE SMOOTH",
"172 763 LINE",
"72 763 LINE",
"275 292 LINE",
"223 0 LINE"
);
}
);
width = 687;
},
{
anchors = (
{
name = bottom;
position = "{260, 0}";
},
{
name = top;
position = "{394, 763}";
},
{
name = topleft;
position = "{70, 763}";
}
);
guideLines = (
{
position = "{349, 455}";
}
);
layerId = "2F4EEC1B-9E89-4E08-AD53-AB625B6E887D";
paths = (
{
closed = 1;
nodes = (
"297 0 LINE",
"349 292 LINE",
"719 763 LINE",
"633 763 LINE",
"359 413 LINE SMOOTH",
"343 392 OFFCURVE",
"331 370 OFFCURVE",
"324 330 CURVE",
"307 330 LINE",
"314 366 OFFCURVE",
"305 388 OFFCURVE",
"296 409 CURVE SMOOTH",
"146 763 LINE",
"72 763 LINE",
"277 292 LINE",
"225 0 LINE"
);
}
);
width = 668;
}
);
leftKerningGroup = Y;
note = Y;
rightKerningGroup = Y;
unicode = 0059;
},
{
color = 1;
glyphname = Z;
lastChange = "2020-04-07 12:27:31 +0000";
layers = (
{
anchors = (
{
name = bottom;
position = "{255, 0}";
},
{
name = center;
position = "{322, 382}";
},
{
name = top;
position = "{389, 763}";
}
);
layerId = "FD6EB2BB-8839-4CDB-86BF-4EEAE3F02079";
paths = (
{
closed = 1;
nodes = (
"534 0 LINE",
"562 160 LINE",
"292 160 LINE SMOOTH",
"267 160 OFFCURVE",
"234 155 OFFCURVE",
"205 141 CURVE",
"201 149 LINE",
"236 162 OFFCURVE",
"263 193 OFFCURVE",
"282 215 CURVE SMOOTH",
"646 636 LINE",
"666 763 LINE",
"122 763 LINE",
"94 603 LINE",
"337 603 LINE SMOOTH",
"359 603 OFFCURVE",
"399 608 OFFCURVE",
"434 621 CURVE",
"437 612 LINE",
"396 595 OFFCURVE",
"368 561 OFFCURVE",
"352 543 CURVE SMOOTH",
"-14 121 LINE",
"-33 0 LINE"
);
}
);
width = 639;
},
{
anchors = (
{
name = bottom;
position = "{260, 0}";
},
{
name = center;
position = "{327, 382}";
},
{
name = top;
position = "{394, 763}";
}
);
background = {
paths = (
{
closed = 0;
nodes = (
"501 680 LINE"
);
}
);
};
layerId = "11907447-A26F-432E-A335-7727E0303767";
paths = (
{
closed = 1;
nodes = (
"543 0 LINE",
"557 83 LINE",
"191 83 LINE SMOOTH",
"166 83 OFFCURVE",
"141 84 OFFCURVE",
"104 74 CURVE",
"100 83 LINE",
"133 112 OFFCURVE",
"150 130 OFFCURVE",
"167 149 CURVE SMOOTH",
"667 694 LINE",
"678 763 LINE",
"129 763 LINE",
"115 680 LINE",
"469 680 LINE SMOOTH",
"491 680 OFFCURVE",
"514 679 OFFCURVE",
"548 689 CURVE",
"552 680 LINE",
"521 654 OFFCURVE",
"508 639 OFFCURVE",
"493 623 CURVE SMOOTH",
"-18 67 LINE",
"-29 0 LINE"
);
}
);
width = 652;
},
{
anchors = (
{
name = bottom;
position = "{259, 0}";
},
{
name = center;
position = "{326, 382}";
},
{
name = top;
position = "{393, 763}";
}
);
background = {
paths = (
{
closed = 0;
nodes = (
"17 62 LINE"
);
}
);
};
layerId = "2F4EEC1B-9E89-4E08-AD53-AB625B6E887D";
paths = (
{
closed = 1;
nodes = (
"543 0 LINE",
"554 62 LINE",
"137 62 LINE SMOOTH",
"117 62 OFFCURVE",
"98 63 OFFCURVE",
"66 53 CURVE",
"61 62 LINE",
"91 87 OFFCURVE",
"104 101 OFFCURVE",
"117 116 CURVE SMOOTH",
"670 708 LINE",
"679 763 LINE",
"126 763 LINE",
"115 701 LINE",
"523 701 LINE SMOOTH",
"539 701 OFFCURVE",
"554 700 OFFCURVE",
"582 710 CURVE",
"586 701 LINE",
"560 680 OFFCURVE",
"550 668 OFFCURVE",
"539 657 CURVE SMOOTH",
"-24 54 LINE",
"-32 0 LINE"
);
}
);
width = 649;
}
);
leftKerningGroup = Z;
note = Z;
rightKerningGroup = Z;
unicode = 005A;
},
{
color = 1;
glyphname = a;
lastChange = "2020-04-07 12:27:31 +0000";
layers = (
{
anchors = (
{
name = bottom;
position = "{263, 0}";
},
{
name = ogonek;
position = "{508, 0}";
},
{
name = top;
position = "{363, 567}";
}
);
guideLines = (
{
angle = 270;
position = "{694, 763}";
},
{
position = "{485, 367}";
}
);
layerId = "FD6EB2BB-8839-4CDB-86BF-4EEAE3F02079";
paths = (
{
closed = 1;
nodes = (
"219 -12 OFFCURVE",
"265 -5 OFFCURVE",
"302 17 CURVE SMOOTH",
"322 30 OFFCURVE",
"339 46 OFFCURVE",
"352 69 CURVE",
"366 60 LINE",
"351 42 OFFCURVE",
"345 28 OFFCURVE",
"342 9 CURVE SMOOTH",
"340 0 LINE",
"508 0 LINE",
"555 269 LINE SMOOTH",
"564 318 OFFCURVE",
"572 364 OFFCURVE",
"572 405 CURVE SMOOTH",
"572 451 OFFCURVE",
"562 491 OFFCURVE",
"530 523 CURVE SMOOTH",
"492 562 OFFCURVE",
"430 579 OFFCURVE",
"364 579 CURVE SMOOTH",
"250 579 OFFCURVE",
"123 520 OFFCURVE",
"77 378 CURVE",
"244 378 LINE",
"260 426 OFFCURVE",
"302 453 OFFCURVE",
"341 453 CURVE SMOOTH",
"366 453 OFFCURVE",
"384 447 OFFCURVE",
"394 433 CURVE SMOOTH",
"403 421 OFFCURVE",
"407 405 OFFCURVE",
"407 385 CURVE SMOOTH",
"407 379 OFFCURVE",
"407 373 OFFCURVE",
"406 367 CURVE",
"254 341 LINE SMOOTH",
"210 333 OFFCURVE",
"157 322 OFFCURVE",
"112 296 CURVE SMOOTH",
"49 259 OFFCURVE",
"14 196 OFFCURVE",
"14 123 CURVE SMOOTH",
"14 33 OFFCURVE",
"82 -12 OFFCURVE",
"173 -12 CURVE SMOOTH"
);
},
{
closed = 1;
nodes = (
"211 115 OFFCURVE",
"185 127 OFFCURVE",
"185 156 CURVE SMOOTH",
"185 177 OFFCURVE",
"195 190 OFFCURVE",
"207 201 CURVE SMOOTH",
"224 214 OFFCURVE",
"243 221 OFFCURVE",
"281 228 CURVE SMOOTH",
"315 234 LINE SMOOTH",
"337 238 OFFCURVE",
"359 242 OFFCURVE",
"404 251 CURVE",
"404 235 LINE",
"392 234 OFFCURVE",
"387 227 OFFCURVE",
"382 214 CURVE SMOOTH",
"365 172 OFFCURVE",
"351 148 OFFCURVE",
"308 129 CURVE SMOOTH",
"286 120 OFFCURVE",
"263 115 OFFCURVE",
"244 115 CURVE SMOOTH"
);
}
);
width = 608;
},
{
anchors = (
{
name = bottom;
position = "{252, 0}";
},
{
name = ogonek;
position = "{468, 0}";
},
{
name = top;
position = "{350, 553}";
}
);
guideLines = (
{
angle = 270;
position = "{458, 351}";
}
);
layerId = "11907447-A26F-432E-A335-7727E0303767";
paths = (
{
closed = 1;
nodes = (
"241 -10 OFFCURVE",
"283 0 OFFCURVE",
"320 22 CURVE SMOOTH",
"347 38 OFFCURVE",
"371 59 OFFCURVE",
"395 89 CURVE",
"408 83 LINE",
"393 51 OFFCURVE",
"390 38 OFFCURVE",
"388 26 CURVE SMOOTH",
"383 0 LINE",
"468 0 LINE",
"526 326 LINE SMOOTH",
"529 343 OFFCURVE",
"533 369 OFFCURVE",
"533 398 CURVE SMOOTH",
"533 434 OFFCURVE",
"526 475 OFFCURVE",
"499 506 CURVE SMOOTH",
"467 544 OFFCURVE",
"412 563 OFFCURVE",
"348 563 CURVE SMOOTH",
"242 563 OFFCURVE",
"134 502 OFFCURVE",
"94 387 CURVE",
"179 387 LINE",
"203 449 OFFCURVE",
"265 488 OFFCURVE",
"333 488 CURVE SMOOTH",
"376 488 OFFCURVE",
"409 474 OFFCURVE",
"429 450 CURVE SMOOTH",
"442 434 OFFCURVE",
"449 413 OFFCURVE",
"449 388 CURVE SMOOTH",
"449 376 OFFCURVE",
"448 364 OFFCURVE",
"445 351 CURVE",
"241 313 LINE SMOOTH",
"184 302 OFFCURVE",
"139 285 OFFCURVE",
"105 261 CURVE SMOOTH",
"56 227 OFFCURVE",
"28 174 OFFCURVE",
"28 115 CURVE SMOOTH",
"28 37 OFFCURVE",
"85 -10 OFFCURVE",
"183 -10 CURVE SMOOTH"
);
},
{
closed = 1;
nodes = (
"150 65 OFFCURVE",
"116 91 OFFCURVE",
"116 134 CURVE SMOOTH",
"116 165 OFFCURVE",
"128 189 OFFCURVE",
"150 207 CURVE SMOOTH",
"172 225 OFFCURVE",
"204 238 OFFCURVE",
"248 246 CURVE SMOOTH",
"321 260 LINE SMOOTH",
"356 267 OFFCURVE",
"391 274 OFFCURVE",
"455 287 CURVE",
"455 271 LINE",
"441 270 OFFCURVE",
"434 259 OFFCURVE",
"427 241 CURVE SMOOTH",
"396 166 OFFCURVE",
"375 120 OFFCURVE",
"298 84 CURVE SMOOTH",
"271 72 OFFCURVE",
"241 65 OFFCURVE",
"207 65 CURVE SMOOTH"
);
}
);
width = 584;
},
{
anchors = (
{
name = bottom;
position = "{246, 0}";
},
{
name = ogonek;
position = "{454, 0}";
},
{
name = top;
position = "{342, 549}";
}
);
guideLines = (
{
angle = 270;
position = "{463, 347}";
}
);
layerId = "2F4EEC1B-9E89-4E08-AD53-AB625B6E887D";
paths = (
{
closed = 1;
nodes = (
"226 -10 OFFCURVE",
"267 0 OFFCURVE",
"306 21 CURVE SMOOTH",
"342 40 OFFCURVE",
"374 67 OFFCURVE",
"403 105 CURVE",
"416 98 LINE",
"400 65 OFFCURVE",
"398 51 OFFCURVE",
"395 38 CURVE SMOOTH",
"389 0 LINE",
"454 0 LINE",
"511 328 LINE SMOOTH",
"515 352 OFFCURVE",
"518 374 OFFCURVE",
"518 394 CURVE SMOOTH",
"518 438 OFFCURVE",
"507 475 OFFCURVE",
"486 502 CURVE SMOOTH",
"458 539 OFFCURVE",
"409 559 OFFCURVE",
"339 559 CURVE SMOOTH",
"233 559 OFFCURVE",
"130 498 OFFCURVE",
"94 389 CURVE",
"159 389 LINE",
"184 457 OFFCURVE",
"254 501 OFFCURVE",
"328 501 CURVE SMOOTH",
"379 501 OFFCURVE",
"414 488 OFFCURVE",
"433 461 CURVE SMOOTH",
"447 442 OFFCURVE",
"453 416 OFFCURVE",
"453 386 CURVE SMOOTH",
"453 374 OFFCURVE",
"452 361 OFFCURVE",
"450 347 CURVE",
"247 308 LINE SMOOTH",
"207 300 OFFCURVE",
"154 288 OFFCURVE",
"111 261 CURVE SMOOTH",
"59 229 OFFCURVE",
"28 177 OFFCURVE",
"28 116 CURVE SMOOTH",
"28 34 OFFCURVE",
"93 -10 OFFCURVE",
"181 -10 CURVE SMOOTH"
);
},
{
closed = 1;
nodes = (
"137 48 OFFCURVE",
"94 76 OFFCURVE",
"94 128 CURVE SMOOTH",
"94 167 OFFCURVE",
"114 195 OFFCURVE",
"139 214 CURVE SMOOTH",
"167 234 OFFCURVE",
"204 244 OFFCURVE",
"238 251 CURVE SMOOTH",
"363 276 LINE SMOOTH",
"389 281 OFFCURVE",
"430 289 OFFCURVE",
"460 296 CURVE",
"461 280 LINE",
"445 277 OFFCURVE",
"440 269 OFFCURVE",
"435 254 CURVE SMOOTH",
"407 173 OFFCURVE",
"372 104 OFFCURVE",
"294 70 CURVE SMOOTH",
"261 55 OFFCURVE",
"229 48 OFFCURVE",
"196 48 CURVE SMOOTH"
);
}
);
width = 569;
}
);
leftKerningGroup = a;
note = a;
rightKerningGroup = a;
unicode = 0061;
},
{
glyphname = ae;
lastChange = "2020-04-16 06:24:30 +0000";
layers = (
{
anchors = (
{
name = bottom;
position = "{453, 0}";
},
{
name = top;
position = "{549, 549}";
}
);
layerId = "2F4EEC1B-9E89-4E08-AD53-AB625B6E887D";
paths = (
{
closed = 1;
nodes = (
"280 -10 OFFCURVE",
"358 32 OFFCURVE",
"425 115 CURVE",
"451 115 LINE",
"482 34 OFFCURVE",
"551 -10 OFFCURVE",
"643 -10 CURVE SMOOTH",
"775 -10 OFFCURVE",
"873 71 OFFCURVE",
"923 173 CURVE",
"854 173 LINE",
"817 104 OFFCURVE",
"744 48 OFFCURVE",
"653 48 CURVE SMOOTH",
"569 48 OFFCURVE",
"509 101 OFFCURVE",
"496 187 CURVE SMOOTH",
"490 222 OFFCURVE",
"497 245 OFFCURVE",
"479 250 CURVE",
"485 265 LINE",
"510 263 OFFCURVE",
"546 263 OFFCURVE",
"567 263 CURVE SMOOTH",
"951 263 LINE",
"953 274 OFFCURVE",
"954 284 OFFCURVE",
"955 293 CURVE SMOOTH",
"957 308 OFFCURVE",
"958 323 OFFCURVE",
"958 337 CURVE SMOOTH",
"958 478 OFFCURVE",
"866 559 OFFCURVE",
"742 559 CURVE SMOOTH",
"645 559 OFFCURVE",
"571 519 OFFCURVE",
"518 459 CURVE",
"505 459 LINE",
"499 476 OFFCURVE",
"492 490 OFFCURVE",
"483 502 CURVE SMOOTH",
"455 539 OFFCURVE",
"409 559 OFFCURVE",
"339 559 CURVE SMOOTH",
"233 559 OFFCURVE",
"130 498 OFFCURVE",
"94 389 CURVE",
"159 389 LINE",
"184 457 OFFCURVE",
"254 501 OFFCURVE",
"328 501 CURVE SMOOTH",
"379 501 OFFCURVE",
"414 488 OFFCURVE",
"433 461 CURVE SMOOTH",
"447 442 OFFCURVE",
"453 416 OFFCURVE",
"453 386 CURVE SMOOTH",
"453 374 OFFCURVE",
"452 361 OFFCURVE",
"450 347 CURVE",
"247 308 LINE SMOOTH",
"207 300 OFFCURVE",
"154 288 OFFCURVE",
"111 261 CURVE SMOOTH",
"59 229 OFFCURVE",
"28 177 OFFCURVE",
"28 116 CURVE SMOOTH",
"28 34 OFFCURVE",
"93 -10 OFFCURVE",
"191 -10 CURVE SMOOTH"
);
},
{
closed = 1;
nodes = (
"137 48 OFFCURVE",
"94 76 OFFCURVE",
"94 128 CURVE SMOOTH",
"94 167 OFFCURVE",
"114 195 OFFCURVE",
"139 214 CURVE SMOOTH",
"167 234 OFFCURVE",
"204 244 OFFCURVE",
"238 251 CURVE SMOOTH",
"363 276 LINE SMOOTH",
"389 281 OFFCURVE",
"430 289 OFFCURVE",
"460 296 CURVE",
"461 280 LINE",
"445 277 OFFCURVE",
"440 269 OFFCURVE",
"435 254 CURVE SMOOTH",
"407 173 OFFCURVE",
"372 104 OFFCURVE",
"294 70 CURVE SMOOTH",
"261 55 OFFCURVE",
"229 48 OFFCURVE",
"196 48 CURVE SMOOTH"
);
},
{
closed = 1;
nodes = (
"498 317 LINE",
"515 329 OFFCURVE",
"517 352 OFFCURVE",
"539 388 CURVE SMOOTH",
"583 459 OFFCURVE",
"653 501 OFFCURVE",
"733 501 CURVE SMOOTH",
"812 501 OFFCURVE",
"873 458 OFFCURVE",
"891 384 CURVE SMOOTH",
"894 370 OFFCURVE",
"895 358 OFFCURVE",
"895 349 CURVE SMOOTH",
"895 336 OFFCURVE",
"896 326 OFFCURVE",
"904 317 CURVE",
"892 303 LINE",
"866 316 OFFCURVE",
"849 316 OFFCURVE",
"831 316 CURVE SMOOTH",
"576 316 LINE SMOOTH",
"556 316 OFFCURVE",
"537 316 OFFCURVE",
"505 303 CURVE"
);
}
);
width = 1001;
},
{
anchors = (
{
name = bottom;
position = "{456, 0}";
},
{
name = top;
position = "{554, 553}";
}
);
layerId = "11907447-A26F-432E-A335-7727E0303767";
paths = (
{
closed = 1;
nodes = (
"284 -10 OFFCURVE",
"359 23 OFFCURVE",
"420 109 CURVE",
"444 109 LINE",
"477 36 OFFCURVE",
"547 -10 OFFCURVE",
"645 -10 CURVE SMOOTH",
"782 -10 OFFCURVE",
"881 74 OFFCURVE",
"934 178 CURVE",
"843 178 LINE",
"808 117 OFFCURVE",
"742 65 OFFCURVE",
"658 65 CURVE SMOOTH",
"578 65 OFFCURVE",
"522 120 OFFCURVE",
"509 205 CURVE SMOOTH",
"505 232 OFFCURVE",
"510 243 OFFCURVE",
"493 246 CURVE",
"498 262 LINE",
"520 259 OFFCURVE",
"539 260 OFFCURVE",
"563 260 CURVE SMOOTH",
"958 260 LINE",
"960 270 OFFCURVE",
"961 280 OFFCURVE",
"963 290 CURVE SMOOTH",
"967 311 OFFCURVE",
"969 331 OFFCURVE",
"969 349 CURVE SMOOTH",
"969 489 OFFCURVE",
"868 563 OFFCURVE",
"745 563 CURVE SMOOTH",
"661 563 OFFCURVE",
"588 529 OFFCURVE",
"531 476 CURVE",
"517 476 LINE",
"513 487 OFFCURVE",
"507 497 OFFCURVE",
"499 506 CURVE SMOOTH",
"467 544 OFFCURVE",
"412 563 OFFCURVE",
"348 563 CURVE SMOOTH",
"242 563 OFFCURVE",
"134 502 OFFCURVE",
"94 387 CURVE",
"179 387 LINE",
"203 449 OFFCURVE",
"265 488 OFFCURVE",
"333 488 CURVE SMOOTH",
"376 488 OFFCURVE",
"409 474 OFFCURVE",
"429 450 CURVE SMOOTH",
"442 434 OFFCURVE",
"449 413 OFFCURVE",
"449 388 CURVE SMOOTH",
"449 376 OFFCURVE",
"448 364 OFFCURVE",
"445 351 CURVE",
"241 313 LINE SMOOTH",
"184 302 OFFCURVE",
"139 285 OFFCURVE",
"105 261 CURVE SMOOTH",
"56 227 OFFCURVE",
"28 174 OFFCURVE",
"28 115 CURVE SMOOTH",
"28 37 OFFCURVE",
"85 -10 OFFCURVE",
"193 -10 CURVE SMOOTH"
);
},
{
closed = 1;
nodes = (
"150 65 OFFCURVE",
"116 91 OFFCURVE",
"116 134 CURVE SMOOTH",
"116 165 OFFCURVE",
"128 189 OFFCURVE",
"150 207 CURVE SMOOTH",
"172 225 OFFCURVE",
"204 237 OFFCURVE",
"248 246 CURVE SMOOTH",
"455 287 LINE",
"455 271 LINE",
"441 270 OFFCURVE",
"434 259 OFFCURVE",
"427 241 CURVE SMOOTH",
"396 166 OFFCURVE",
"375 118 OFFCURVE",
"298 84 CURVE SMOOTH",
"271 72 OFFCURVE",
"241 65 OFFCURVE",
"207 65 CURVE SMOOTH"
);
},
{
closed = 1;
nodes = (
"516 328 LINE",
"546 348 OFFCURVE",
"529 350 OFFCURVE",
"555 389 CURVE SMOOTH",
"596 452 OFFCURVE",
"659 488 OFFCURVE",
"733 488 CURVE SMOOTH",
"804 488 OFFCURVE",
"860 453 OFFCURVE",
"878 389 CURVE SMOOTH",
"882 378 OFFCURVE",
"882 369 OFFCURVE",
"882 359 CURVE SMOOTH",
"882 347 OFFCURVE",
"880 342 OFFCURVE",
"894 328 CURVE",
"881 316 LINE",
"867 329 OFFCURVE",
"853 335 OFFCURVE",
"827 335 CURVE SMOOTH",
"579 335 LINE SMOOTH",
"555 335 OFFCURVE",
"541 329 OFFCURVE",
"525 316 CURVE"
);
}
);
width = 1010;
},
{
anchors = (
{
name = bottom;
position = "{451, 0}";
},
{
name = top;
position = "{551, 567}";
}
);
layerId = "FD6EB2BB-8839-4CDB-86BF-4EEAE3F02079";
paths = (
{
closed = 1;
nodes = (
"265 -12 OFFCURVE",
"365 14 OFFCURVE",
"417 103 CURVE",
"434 103 LINE",
"453 32 OFFCURVE",
"520 -12 OFFCURVE",
"627 -12 CURVE SMOOTH",
"787 -12 OFFCURVE",
"891 84 OFFCURVE",
"943 196 CURVE",
"774 196 LINE",
"753 161 OFFCURVE",
"712 132 OFFCURVE",
"661 132 CURVE SMOOTH",
"619 132 OFFCURVE",
"588 145 OFFCURVE",
"569 175 CURVE SMOOTH",
"551 203 OFFCURVE",
"561 231 OFFCURVE",
"540 237 CURVE",
"547 252 LINE",
"564 248 OFFCURVE",
"607 248 OFFCURVE",
"630 248 CURVE SMOOTH",
"961 248 LINE",
"963 258 OFFCURVE",
"964 267 OFFCURVE",
"966 277 CURVE SMOOTH",
"970 303 OFFCURVE",
"973 328 OFFCURVE",
"973 350 CURVE SMOOTH",
"973 515 OFFCURVE",
"857 579 OFFCURVE",
"726 579 CURVE SMOOTH",
"657 579 OFFCURVE",
"594 559 OFFCURVE",
"536 508 CURVE",
"522 508 LINE",
"515 519 OFFCURVE",
"507 529 OFFCURVE",
"498 537 CURVE SMOOTH",
"464 568 OFFCURVE",
"418 579 OFFCURVE",
"364 579 CURVE SMOOTH",
"250 579 OFFCURVE",
"123 520 OFFCURVE",
"77 378 CURVE",
"244 378 LINE",
"260 426 OFFCURVE",
"302 453 OFFCURVE",
"341 453 CURVE SMOOTH",
"366 453 OFFCURVE",
"384 447 OFFCURVE",
"394 433 CURVE SMOOTH",
"403 421 OFFCURVE",
"407 405 OFFCURVE",
"407 385 CURVE SMOOTH",
"407 379 OFFCURVE",
"407 373 OFFCURVE",
"406 367 CURVE",
"254 341 LINE SMOOTH",
"210 333 OFFCURVE",
"157 322 OFFCURVE",
"112 296 CURVE SMOOTH",
"49 259 OFFCURVE",
"14 196 OFFCURVE",
"14 123 CURVE SMOOTH",
"14 33 OFFCURVE",
"82 -12 OFFCURVE",
"193 -12 CURVE SMOOTH"
);
},
{
closed = 1;
nodes = (
"211 115 OFFCURVE",
"185 127 OFFCURVE",
"185 156 CURVE SMOOTH",
"185 177 OFFCURVE",
"195 190 OFFCURVE",
"207 201 CURVE SMOOTH",
"224 214 OFFCURVE",
"243 221 OFFCURVE",
"281 228 CURVE SMOOTH",
"404 251 LINE",
"404 235 LINE",
"392 234 OFFCURVE",
"387 227 OFFCURVE",
"382 214 CURVE SMOOTH",
"365 172 OFFCURVE",
"351 148 OFFCURVE",
"308 129 CURVE SMOOTH",
"286 120 OFFCURVE",
"263 115 OFFCURVE",
"244 115 CURVE SMOOTH"
);
},
{
closed = 1;
nodes = (
"569 370 LINE",
"590 376 OFFCURVE",
"581 390 OFFCURVE",
"614 418 CURVE SMOOTH",
"642 442 OFFCURVE",
"676 451 OFFCURVE",
"710 451 CURVE SMOOTH",
"744 451 OFFCURVE",
"774 442 OFFCURVE",
"794 418 CURVE SMOOTH",
"805 404 OFFCURVE",
"807 394 OFFCURVE",
"809 386 CURVE SMOOTH",
"810 378 OFFCURVE",
"811 373 OFFCURVE",
"821 370 CURVE",
"812 355 LINE",
"787 367 OFFCURVE",
"772 367 OFFCURVE",
"757 367 CURVE SMOOTH",
"633 367 LINE SMOOTH",
"618 367 OFFCURVE",
"603 367 OFFCURVE",
"574 355 CURVE"
);
}
);
width = 1001;
}
);
leftKerningGroup = a;
leftMetricsKey = a;
rightKerningGroup = e;
rightMetricsKey = e;
unicode = 00E6;
},
{
color = 1;
glyphname = b;
lastChange = "2020-04-07 12:27:31 +0000";
layers = (
{
anchors = (
{
name = bottom;
position = "{268, 0}";
},
{
name = top;
position = "{403, 763}";
}
);
guideLines = (
{
angle = 270;
position = "{103, 0}";
}
);
layerId = "FD6EB2BB-8839-4CDB-86BF-4EEAE3F02079";
paths = (
{
closed = 1;
nodes = (
"500 -12 OFFCURVE",
"628 169 OFFCURVE",
"628 355 CURVE SMOOTH",
"628 489 OFFCURVE",
"550 579 OFFCURVE",
"426 579 CURVE SMOOTH",
"364 579 OFFCURVE",
"314 562 OFFCURVE",
"264 501 CURVE",
"252 511 LINE",
"268 527 OFFCURVE",
"274 540 OFFCURVE",
"278 561 CURVE SMOOTH",
"314 763 LINE",
"146 763 LINE",
"11 0 LINE",
"179 0 LINE",
"180 6 LINE SMOOTH",
"181 13 OFFCURVE",
"182 18 OFFCURVE",
"182 24 CURVE SMOOTH",
"182 36 OFFCURVE",
"179 45 OFFCURVE",
"172 56 CURVE",
"188 66 LINE",
"216 5 OFFCURVE",
"260 -12 OFFCURVE",
"322 -12 CURVE SMOOTH"
);
},
{
closed = 1;
nodes = (
"237 131 OFFCURVE",
"199 175 OFFCURVE",
"199 245 CURVE SMOOTH",
"199 339 OFFCURVE",
"259 436 OFFCURVE",
"354 436 CURVE SMOOTH",
"418 436 OFFCURVE",
"455 391 OFFCURVE",
"455 323 CURVE SMOOTH",
"455 229 OFFCURVE",
"395 131 OFFCURVE",
"300 131 CURVE SMOOTH"
);
}
);
width = 658;
},
{
anchors = (
{
name = bottom;
position = "{263, 0}";
},
{
name = top;
position = "{409, 763}";
}
);
guideLines = (
{
position = "{16, 0}";
}
);
layerId = "11907447-A26F-432E-A335-7727E0303767";
paths = (
{
closed = 1;
nodes = (
"474 -10 OFFCURVE",
"596 161 OFFCURVE",
"596 346 CURVE SMOOTH",
"596 477 OFFCURVE",
"522 563 OFFCURVE",
"395 563 CURVE SMOOTH",
"311 563 OFFCURVE",
"260 534 OFFCURVE",
"198 466 CURVE",
"186 475 LINE",
"197 487 OFFCURVE",
"202 498 OFFCURVE",
"205 517 CURVE SMOOTH",
"249 763 LINE",
"164 763 LINE",
"29 0 LINE",
"114 0 LINE",
"121 36 LINE SMOOTH",
"122 43 OFFCURVE",
"123 48 OFFCURVE",
"123 53 CURVE SMOOTH",
"123 63 OFFCURVE",
"121 70 OFFCURVE",
"116 78 CURVE",
"132 87 LINE",
"170 19 OFFCURVE",
"209 -10 OFFCURVE",
"293 -10 CURVE SMOOTH"
);
},
{
closed = 1;
nodes = (
"211 65 OFFCURVE",
"155 131 OFFCURVE",
"155 226 CURVE SMOOTH",
"155 355 OFFCURVE",
"245 488 OFFCURVE",
"373 488 CURVE SMOOTH",
"461 488 OFFCURVE",
"510 423 OFFCURVE",
"510 329 CURVE SMOOTH",
"510 200 OFFCURVE",
"426 65 OFFCURVE",
"299 65 CURVE SMOOTH"
);
}
);
width = 642;
},
{
anchors = (
{
name = bottom;
position = "{259, 0}";
},
{
name = top;
position = "{393, 763}";
}
);
layerId = "2F4EEC1B-9E89-4E08-AD53-AB625B6E887D";
paths = (
{
closed = 1;
nodes = (
"461 -10 OFFCURVE",
"584 162 OFFCURVE",
"584 342 CURVE SMOOTH",
"584 472 OFFCURVE",
"511 559 OFFCURVE",
"388 559 CURVE SMOOTH",
"313 559 OFFCURVE",
"239 525 OFFCURVE",
"174 446 CURVE",
"162 454 LINE",
"173 468 OFFCURVE",
"178 479 OFFCURVE",
"182 501 CURVE SMOOTH",
"228 763 LINE",
"163 763 LINE",
"29 0 LINE",
"94 0 LINE",
"102 48 LINE SMOOTH",
"104 56 OFFCURVE",
"104 63 OFFCURVE",
"104 69 CURVE SMOOTH",
"104 79 OFFCURVE",
"102 86 OFFCURVE",
"98 95 CURVE",
"114 103 LINE",
"151 24 OFFCURVE",
"213 -10 OFFCURVE",
"288 -10 CURVE SMOOTH"
);
},
{
closed = 1;
nodes = (
"196 48 OFFCURVE",
"135 120 OFFCURVE",
"135 223 CURVE SMOOTH",
"135 364 OFFCURVE",
"238 501 OFFCURVE",
"372 501 CURVE SMOOTH",
"467 501 OFFCURVE",
"518 431 OFFCURVE",
"518 332 CURVE SMOOTH",
"518 192 OFFCURVE",
"428 48 OFFCURVE",
"292 48 CURVE SMOOTH"
);
}
);
width = 630;
}
);
leftKerningGroup = B;
note = b;
rightKerningGroup = b;
unicode = 0062;
},
{
color = 1;
glyphname = c;
lastChange = "2020-04-07 12:27:31 +0000";
layers = (
{
anchors = (
{
name = bottom;
position = "{268, 0}";
},
{
name = top;
position = "{368, 567}";
}
);
layerId = "FD6EB2BB-8839-4CDB-86BF-4EEAE3F02079";
paths = (
{
closed = 1;
nodes = (
"423 -12 OFFCURVE",
"540 59 OFFCURVE",
"591 190 CURVE",
"403 190 LINE",
"382 149 OFFCURVE",
"345 122 OFFCURVE",
"288 122 CURVE SMOOTH",
"231 122 OFFCURVE",
"198 160 OFFCURVE",
"198 227 CURVE SMOOTH",
"198 336 OFFCURVE",
"262 446 OFFCURVE",
"368 446 CURVE SMOOTH",
"412 446 OFFCURVE",
"434 430 OFFCURVE",
"441 384 CURVE",
"619 384 LINE",
"607 500 OFFCURVE",
"512 579 OFFCURVE",
"369 579 CURVE SMOOTH",
"170 579 OFFCURVE",
"30 431 OFFCURVE",
"30 231 CURVE SMOOTH",
"30 83 OFFCURVE",
"127 -12 OFFCURVE",
"287 -12 CURVE SMOOTH"
);
}
);
width = 635;
},
{
anchors = (
{
name = bottom;
position = "{256, 0}";
},
{
name = top;
position = "{353, 553}";
}
);
layerId = "11907447-A26F-432E-A335-7727E0303767";
paths = (
{
closed = 1;
nodes = (
"395 -10 OFFCURVE",
"501 57 OFFCURVE",
"546 175 CURVE",
"452 175 LINE",
"421 110 OFFCURVE",
"354 65 OFFCURVE",
"276 65 CURVE SMOOTH",
"188 65 OFFCURVE",
"131 128 OFFCURVE",
"131 225 CURVE SMOOTH",
"131 360 OFFCURVE",
"231 488 OFFCURVE",
"361 488 CURVE SMOOTH",
"429 488 OFFCURVE",
"479 452 OFFCURVE",
"489 390 CURVE",
"578 390 LINE",
"569 494 OFFCURVE",
"488 563 OFFCURVE",
"364 563 CURVE SMOOTH",
"183 563 OFFCURVE",
"46 406 OFFCURVE",
"46 222 CURVE SMOOTH",
"46 84 OFFCURVE",
"134 -10 OFFCURVE",
"273 -10 CURVE SMOOTH"
);
}
);
width = 608;
},
{
anchors = (
{
name = bottom;
position = "{267, 0}";
},
{
name = top;
position = "{364, 549}";
}
);
layerId = "2F4EEC1B-9E89-4E08-AD53-AB625B6E887D";
paths = (
{
closed = 1;
nodes = (
"384 -10 OFFCURVE",
"489 59 OFFCURVE",
"531 171 CURVE",
"458 171 LINE",
"428 99 OFFCURVE",
"353 48 OFFCURVE",
"267 48 CURVE SMOOTH",
"170 48 OFFCURVE",
"109 117 OFFCURVE",
"109 221 CURVE SMOOTH",
"109 361 OFFCURVE",
"212 501 OFFCURVE",
"355 501 CURVE SMOOTH",
"433 501 OFFCURVE",
"488 459 OFFCURVE",
"496 391 CURVE",
"564 391 LINE",
"556 492 OFFCURVE",
"476 559 OFFCURVE",
"357 559 CURVE SMOOTH",
"184 559 OFFCURVE",
"45 404 OFFCURVE",
"45 220 CURVE SMOOTH",
"45 84 OFFCURVE",
"130 -10 OFFCURVE",
"265 -10 CURVE SMOOTH"
);
}
);
width = 594;
}
);
leftKerningGroup = c;
note = c;
rightKerningGroup = c;
unicode = 0063;
},
{
color = 1;
glyphname = d;
lastChange = "2020-04-07 12:27:31 +0000";
layers = (
{
anchors = (
{
name = bottom;
position = "{350, 0}";
},
{
name = center;
position = "{455, 671}";
},
{
name = top;
position = "{350, 763}";
},
{
name = topright;
position = "{656, 567}";
}
);
guideLines = (
{
angle = 270;
position = "{464, 0}";
}
);
layerId = "FD6EB2BB-8839-4CDB-86BF-4EEAE3F02079";
paths = (
{
closed = 1;
nodes = (
"296 -12 OFFCURVE",
"346 5 OFFCURVE",
"396 66 CURVE",
"408 56 LINE",
"392 40 OFFCURVE",
"386 27 OFFCURVE",
"382 6 CURVE SMOOTH",
"381 0 LINE",
"549 0 LINE",
"683 763 LINE",
"515 763 LINE",
"480 561 LINE SMOOTH",
"479 554 OFFCURVE",
"478 549 OFFCURVE",
"478 543 CURVE SMOOTH",
"478 531 OFFCURVE",
"481 522 OFFCURVE",
"488 511 CURVE",
"472 501 LINE",
"444 562 OFFCURVE",
"400 579 OFFCURVE",
"338 579 CURVE SMOOTH",
"160 579 OFFCURVE",
"32 398 OFFCURVE",
"32 212 CURVE SMOOTH",
"32 78 OFFCURVE",
"110 -12 OFFCURVE",
"234 -12 CURVE SMOOTH"
);
},
{
closed = 1;
nodes = (
"242 131 OFFCURVE",
"205 176 OFFCURVE",
"205 244 CURVE SMOOTH",
"205 339 OFFCURVE",
"266 436 OFFCURVE",
"360 436 CURVE SMOOTH",
"423 436 OFFCURVE",
"461 392 OFFCURVE",
"461 322 CURVE SMOOTH",
"461 228 OFFCURVE",
"401 131 OFFCURVE",
"306 131 CURVE SMOOTH"
);
}
);
width = 662;
},
{
anchors = (
{
name = bottom;
position = "{355, 0}";
},
{
name = center;
position = "{470, 671}";
},
{
name = top;
position = "{355, 763}";
},
{
name = topright;
position = "{651, 553}";
}
);
layerId = "11907447-A26F-432E-A335-7727E0303767";
paths = (
{
closed = 1;
nodes = (
"332 -10 OFFCURVE",
"383 19 OFFCURVE",
"445 87 CURVE",
"457 78 LINE",
"446 66 OFFCURVE",
"443 63 OFFCURVE",
"438 36 CURVE SMOOTH",
"431 0 LINE",
"516 0 LINE",
"651 763 LINE",
"566 763 LINE",
"522 517 LINE SMOOTH",
"521 511 OFFCURVE",
"520 506 OFFCURVE",
"520 501 CURVE SMOOTH",
"520 491 OFFCURVE",
"522 483 OFFCURVE",
"527 475 CURVE",
"511 466 LINE",
"473 534 OFFCURVE",
"434 563 OFFCURVE",
"350 563 CURVE SMOOTH",
"170 563 OFFCURVE",
"47 392 OFFCURVE",
"47 207 CURVE SMOOTH",
"47 76 OFFCURVE",
"121 -10 OFFCURVE",
"248 -10 CURVE SMOOTH"
);
},
{
closed = 1;
nodes = (
"182 65 OFFCURVE",
"133 130 OFFCURVE",
"133 224 CURVE SMOOTH",
"133 354 OFFCURVE",
"217 488 OFFCURVE",
"344 488 CURVE SMOOTH",
"432 488 OFFCURVE",
"488 422 OFFCURVE",
"488 326 CURVE SMOOTH",
"488 198 OFFCURVE",
"398 65 OFFCURVE",
"270 65 CURVE SMOOTH"
);
}
);
width = 646;
},
{
anchors = (
{
name = bottom;
position = "{348, 0}";
},
{
name = center;
position = "{468, 671}";
},
{
name = top;
position = "{348, 763}";
},
{
name = topright;
position = "{640, 549}";
}
);
layerId = "2F4EEC1B-9E89-4E08-AD53-AB625B6E887D";
paths = (
{
closed = 1;
nodes = (
"317 -10 OFFCURVE",
"391 24 OFFCURVE",
"456 103 CURVE",
"468 95 LINE",
"457 81 OFFCURVE",
"452 70 OFFCURVE",
"448 48 CURVE SMOOTH",
"440 0 LINE",
"505 0 LINE",
"639 763 LINE",
"574 763 LINE",
"530 511 LINE SMOOTH",
"529 503 OFFCURVE",
"527 494 OFFCURVE",
"527 480 CURVE SMOOTH",
"527 472 OFFCURVE",
"528 463 OFFCURVE",
"529 451 CURVE",
"516 446 LINE",
"479 525 OFFCURVE",
"417 559 OFFCURVE",
"342 559 CURVE SMOOTH",
"169 559 OFFCURVE",
"46 388 OFFCURVE",
"46 207 CURVE SMOOTH",
"46 77 OFFCURVE",
"119 -10 OFFCURVE",
"242 -10 CURVE SMOOTH"
);
},
{
closed = 1;
nodes = (
"163 48 OFFCURVE",
"112 118 OFFCURVE",
"112 217 CURVE SMOOTH",
"112 357 OFFCURVE",
"202 501 OFFCURVE",
"338 501 CURVE SMOOTH",
"434 501 OFFCURVE",
"495 429 OFFCURVE",
"495 326 CURVE SMOOTH",
"495 185 OFFCURVE",
"392 48 OFFCURVE",
"258 48 CURVE SMOOTH"
);
}
);
width = 632;
}
);
leftKerningGroup = d;
note = d;
rightKerningGroup = H;
unicode = 0064;
},
{
color = 1;
glyphname = eth;
lastChange = "2020-04-06 10:22:29 +0000";
layers = (
{
layerId = "2F4EEC1B-9E89-4E08-AD53-AB625B6E887D";
paths = (
{
closed = 1;
nodes = (
"456 -10 OFFCURVE",
"575 234 OFFCURVE",
"575 498 CURVE SMOOTH",
"575 567 OFFCURVE",
"563 628 OFFCURVE",
"536 675 CURVE",
"613 716 LINE",
"596 756 LINE",
"512 710 LINE",
"477 747 OFFCURVE",
"427 771 OFFCURVE",
"355 771 CURVE SMOOTH",
"302 771 OFFCURVE",
"251 758 OFFCURVE",
"209 733 CURVE",
"236 681 LINE",
"270 701 OFFCURVE",
"310 713 OFFCURVE",
"354 713 CURVE SMOOTH",
"393 713 OFFCURVE",
"426 702 OFFCURVE",
"452 679 CURVE",
"286 593 LINE",
"303 553 LINE",
"483 648 LINE",
"505 614 OFFCURVE",
"514 560 OFFCURVE",
"514 503 CURVE SMOOTH",
"514 458 OFFCURVE",
"509 412 OFFCURVE",
"499 371 CURVE",
"476 433 OFFCURVE",
"406 487 OFFCURVE",
"304 487 CURVE SMOOTH",
"145 487 OFFCURVE",
"27 355 OFFCURVE",
"27 195 CURVE SMOOTH",
"27 77 OFFCURVE",
"102 -10 OFFCURVE",
"227 -10 CURVE SMOOTH"
);
},
{
closed = 1;
nodes = (
"142 48 OFFCURVE",
"91 114 OFFCURVE",
"91 200 CURVE SMOOTH",
"91 319 OFFCURVE",
"183 429 OFFCURVE",
"306 429 CURVE SMOOTH",
"401 429 OFFCURVE",
"464 366 OFFCURVE",
"464 282 CURVE SMOOTH",
"464 162 OFFCURVE",
"359 48 OFFCURVE",
"230 48 CURVE SMOOTH"
);
}
);
width = 602;
},
{
layerId = "11907447-A26F-432E-A335-7727E0303767";
paths = (
{
closed = 1;
nodes = (
"464 -9 OFFCURVE",
"582 232 OFFCURVE",
"582 496 CURVE SMOOTH",
"582 565 OFFCURVE",
"570 624 OFFCURVE",
"546 670 CURVE",
"616 708 LINE",
"593 763 LINE",
"509 718 LINE",
"474 751 OFFCURVE",
"426 772 OFFCURVE",
"358 772 CURVE SMOOTH",
"306 772 OFFCURVE",
"258 761 OFFCURVE",
"218 740 CURVE",
"256 670 LINE",
"283 686 OFFCURVE",
"316 697 OFFCURVE",
"355 697 CURVE SMOOTH",
"383 697 OFFCURVE",
"410 689 OFFCURVE",
"430 677 CURVE",
"283 600 LINE",
"306 545 LINE",
"475 634 LINE",
"493 601 OFFCURVE",
"501 558 OFFCURVE",
"501 508 CURVE SMOOTH",
"501 473 OFFCURVE",
"497 435 OFFCURVE",
"490 395 CURVE",
"450 457 OFFCURVE",
"386 492 OFFCURVE",
"306 492 CURVE SMOOTH",
"142 492 OFFCURVE",
"23 362 OFFCURVE",
"23 200 CURVE SMOOTH",
"23 78 OFFCURVE",
"103 -9 OFFCURVE",
"232 -9 CURVE SMOOTH"
);
},
{
closed = 1;
nodes = (
"151 66 OFFCURVE",
"108 133 OFFCURVE",
"108 209 CURVE SMOOTH",
"108 306 OFFCURVE",
"180 417 OFFCURVE",
"311 417 CURVE SMOOTH",
"406 417 OFFCURVE",
"450 350 OFFCURVE",
"450 275 CURVE SMOOTH",
"450 177 OFFCURVE",
"377 66 OFFCURVE",
"248 66 CURVE SMOOTH"
);
}
);
width = 607;
},
{
layerId = "FD6EB2BB-8839-4CDB-86BF-4EEAE3F02079";
paths = (
{
closed = 1;
nodes = (
"486 -17 OFFCURVE",
"608 218 OFFCURVE",
"608 471 CURVE SMOOTH",
"608 557 OFFCURVE",
"588 623 OFFCURVE",
"555 672 CURVE",
"617 708 LINE",
"592 763 LINE",
"510 718 LINE",
"465 756 OFFCURVE",
"403 779 OFFCURVE",
"321 779 CURVE SMOOTH",
"277 779 OFFCURVE",
"225 776 OFFCURVE",
"165 757 CURVE",
"221 620 LINE",
"252 630 OFFCURVE",
"284 634 OFFCURVE",
"319 634 CURVE SMOOTH",
"328 634 OFFCURVE",
"338 634 OFFCURVE",
"349 631 CURVE",
"285 600 LINE",
"309 545 LINE",
"416 604 LINE",
"441 580 OFFCURVE",
"456 548 OFFCURVE",
"456 507 CURVE SMOOTH",
"456 489 OFFCURVE",
"453 469 OFFCURVE",
"447 448 CURVE",
"408 492 OFFCURVE",
"347 511 OFFCURVE",
"291 511 CURVE SMOOTH",
"119 511 OFFCURVE",
"7 381 OFFCURVE",
"7 211 CURVE SMOOTH",
"7 72 OFFCURVE",
"102 -17 OFFCURVE",
"248 -17 CURVE SMOOTH"
);
},
{
closed = 1;
nodes = (
"199 138 OFFCURVE",
"167 184 OFFCURVE",
"167 235 CURVE SMOOTH",
"167 301 OFFCURVE",
"219 377 OFFCURVE",
"310 377 CURVE SMOOTH",
"379 377 OFFCURVE",
"411 331 OFFCURVE",
"411 279 CURVE SMOOTH",
"411 213 OFFCURVE",
"359 138 OFFCURVE",
"268 138 CURVE SMOOTH"
);
}
);
width = 623;
}
);
unicode = 00F0;
},
{
color = 1;
glyphname = e;
lastChange = "2020-07-09 08:31:05 +0000";
layers = (
{
anchors = (
{
name = bottom;
position = "{277, 0}";
},
{
name = ogonek;
position = "{359, 0}";
},
{
name = top;
position = "{377, 567}";
}
);
layerId = "FD6EB2BB-8839-4CDB-86BF-4EEAE3F02079";
paths = (
{
closed = 1;
nodes = (
"438 -12 OFFCURVE",
"542 84 OFFCURVE",
"594 196 CURVE",
"425 196 LINE",
"404 161 OFFCURVE",
"363 132 OFFCURVE",
"312 132 CURVE SMOOTH",
"270 132 OFFCURVE",
"239 145 OFFCURVE",
"220 175 CURVE SMOOTH",
"202 203 OFFCURVE",
"212 231 OFFCURVE",
"191 237 CURVE",
"198 252 LINE",
"215 248 OFFCURVE",
"258 248 OFFCURVE",
"281 248 CURVE SMOOTH",
"612 248 LINE",
"614 258 OFFCURVE",
"615 267 OFFCURVE",
"617 277 CURVE SMOOTH",
"622 303 OFFCURVE",
"624 328 OFFCURVE",
"624 350 CURVE SMOOTH",
"624 515 OFFCURVE",
"508 579 OFFCURVE",
"377 579 CURVE SMOOTH",
"180 579 OFFCURVE",
"28 416 OFFCURVE",
"28 221 CURVE SMOOTH",
"28 83 OFFCURVE",
"120 -12 OFFCURVE",
"278 -12 CURVE SMOOTH"
);
},
{
closed = 1;
nodes = (
"220 370 LINE",
"241 376 OFFCURVE",
"232 390 OFFCURVE",
"265 418 CURVE SMOOTH",
"293 442 OFFCURVE",
"327 451 OFFCURVE",
"361 451 CURVE SMOOTH",
"395 451 OFFCURVE",
"425 442 OFFCURVE",
"445 418 CURVE SMOOTH",
"456 404 OFFCURVE",
"458 394 OFFCURVE",
"460 386 CURVE SMOOTH",
"461 378 OFFCURVE",
"462 373 OFFCURVE",
"472 370 CURVE",
"463 355 LINE",
"438 367 OFFCURVE",
"423 367 OFFCURVE",
"408 367 CURVE SMOOTH",
"284 367 LINE SMOOTH",
"269 367 OFFCURVE",
"254 367 OFFCURVE",
"225 355 CURVE"
);
}
);
width = 652;
},
{
anchors = (
{
name = bottom;
position = "{266, 0}";
},
{
name = ogonek;
position = "{334, 0}";
},
{
name = top;
position = "{364, 553}";
}
);
background = {
paths = (
{
closed = 0;
nodes = (
"503 359 LINE SMOOTH"
);
}
);
};
layerId = "11907447-A26F-432E-A335-7727E0303767";
paths = (
{
closed = 1;
nodes = (
"404 -10 OFFCURVE",
"503 74 OFFCURVE",
"556 178 CURVE",
"465 178 LINE",
"430 117 OFFCURVE",
"364 65 OFFCURVE",
"280 65 CURVE SMOOTH",
"200 65 OFFCURVE",
"144 120 OFFCURVE",
"131 205 CURVE SMOOTH",
"127 232 OFFCURVE",
"132 243 OFFCURVE",
"115 246 CURVE",
"120 262 LINE",
"142 259 OFFCURVE",
"161 260 OFFCURVE",
"185 260 CURVE SMOOTH",
"580 260 LINE",
"582 270 OFFCURVE",
"583 280 OFFCURVE",
"585 290 CURVE SMOOTH",
"589 311 OFFCURVE",
"591 331 OFFCURVE",
"591 349 CURVE SMOOTH",
"591 489 OFFCURVE",
"490 563 OFFCURVE",
"367 563 CURVE SMOOTH",
"184 563 OFFCURVE",
"44 398 OFFCURVE",
"44 215 CURVE SMOOTH",
"44 83 OFFCURVE",
"128 -10 OFFCURVE",
"267 -10 CURVE SMOOTH"
);
},
{
closed = 1;
nodes = (
"138 328 LINE",
"168 348 OFFCURVE",
"151 350 OFFCURVE",
"177 389 CURVE SMOOTH",
"218 452 OFFCURVE",
"281 488 OFFCURVE",
"355 488 CURVE SMOOTH",
"426 488 OFFCURVE",
"482 453 OFFCURVE",
"500 389 CURVE SMOOTH",
"504 378 OFFCURVE",
"504 369 OFFCURVE",
"504 359 CURVE SMOOTH",
"504 347 OFFCURVE",
"502 342 OFFCURVE",
"516 328 CURVE",
"503 316 LINE",
"489 329 OFFCURVE",
"475 335 OFFCURVE",
"449 335 CURVE SMOOTH",
"201 335 LINE SMOOTH",
"177 335 OFFCURVE",
"163 329 OFFCURVE",
"147 316 CURVE"
);
}
);
width = 632;
},
{
anchors = (
{
name = bottom;
position = "{261, 0}";
},
{
name = ogonek;
position = "{323, 0}";
},
{
name = top;
position = "{357, 549}";
}
);
layerId = "2F4EEC1B-9E89-4E08-AD53-AB625B6E887D";
paths = (
{
closed = 1;
nodes = (
"393 -10 OFFCURVE",
"491 71 OFFCURVE",
"541 173 CURVE",
"472 173 LINE",
"435 104 OFFCURVE",
"362 48 OFFCURVE",
"271 48 CURVE SMOOTH",
"187 48 OFFCURVE",
"127 101 OFFCURVE",
"114 187 CURVE SMOOTH",
"108 222 OFFCURVE",
"115 245 OFFCURVE",
"97 250 CURVE",
"103 265 LINE",
"128 263 OFFCURVE",
"164 263 OFFCURVE",
"185 263 CURVE SMOOTH",
"569 263 LINE",
"571 274 OFFCURVE",
"572 284 OFFCURVE",
"573 293 CURVE SMOOTH",
"575 308 OFFCURVE",
"576 323 OFFCURVE",
"576 337 CURVE SMOOTH",
"576 478 OFFCURVE",
"484 559 OFFCURVE",
"360 559 CURVE SMOOTH",
"182 559 OFFCURVE",
"44 393 OFFCURVE",
"44 214 CURVE SMOOTH",
"44 83 OFFCURVE",
"128 -10 OFFCURVE",
"261 -10 CURVE SMOOTH"
);
},
{
closed = 1;
nodes = (
"116 317 LINE",
"133 329 OFFCURVE",
"135 352 OFFCURVE",
"157 388 CURVE SMOOTH",
"201 459 OFFCURVE",
"271 501 OFFCURVE",
"351 501 CURVE SMOOTH",
"430 501 OFFCURVE",
"491 458 OFFCURVE",
"509 384 CURVE SMOOTH",
"512 370 OFFCURVE",
"513 358 OFFCURVE",
"513 349 CURVE SMOOTH",
"513 336 OFFCURVE",
"514 326 OFFCURVE",
"522 317 CURVE",
"510 303 LINE",
"484 316 OFFCURVE",
"467 316 OFFCURVE",
"449 316 CURVE SMOOTH",
"194 316 LINE SMOOTH",
"174 316 OFFCURVE",
"155 316 OFFCURVE",
"123 303 CURVE"
);
}
);
width = 619;
}
);
leftKerningGroup = c;
note = e;
rightKerningGroup = e;
unicode = 0065;
},
{
color = 1;
glyphname = f;
lastChange = "2020-04-08 13:31:17 +0000";
layers = (
{
anchors = (
{
name = bottom;
position = "{137, 0}";
},
{
name = top;
position = "{272, 763}";
}
);
layerId = "FD6EB2BB-8839-4CDB-86BF-4EEAE3F02079";
paths = (
{
closed = 1;
nodes = (
"221 0 LINE",
"298 437 LINE",
"383 437 LINE",
"406 567 LINE",
"362 567 LINE SMOOTH",
"352 567 OFFCURVE",
"331 568 OFFCURVE",
"319 558 CURVE",
"311 568 LINE",
"324 578 OFFCURVE",
"325 591 OFFCURVE",
"326 598 CURVE SMOOTH",
"332 629 OFFCURVE",
"353 634 OFFCURVE",
"366 634 CURVE SMOOTH",
"418 634 LINE",
"441 763 LINE",
"348 763 LINE SMOOTH",
"244 763 OFFCURVE",
"177 711 OFFCURVE",
"161 622 CURVE SMOOTH",
"151 567 LINE",
"70 567 LINE",
"47 437 LINE",
"128 437 LINE",
"51 0 LINE"
);
}
);
width = 384;
},
{
anchors = (
{
name = bottom;
position = "{128, 0}";
},
{
name = top;
position = "{263, 763}";
}
);
layerId = "11907447-A26F-432E-A335-7727E0303767";
paths = (
{
closed = 1;
nodes = (
"154 0 LINE",
"239 478 LINE",
"368 478 LINE",
"381 553 LINE",
"298 553 LINE SMOOTH",
"286 553 OFFCURVE",
"274 553 OFFCURVE",
"250 543 CURVE",
"242 553 LINE",
"256 576 OFFCURVE",
"258 589 OFFCURVE",
"260 602 CURVE SMOOTH",
"271 661 OFFCURVE",
"300 688 OFFCURVE",
"353 688 CURVE SMOOTH",
"405 688 LINE",
"418 763 LINE",
"347 763 LINE SMOOTH",
"252 763 OFFCURVE",
"195 711 OFFCURVE",
"177 613 CURVE SMOOTH",
"167 553 LINE",
"75 553 LINE",
"62 478 LINE",
"154 478 LINE",
"69 0 LINE"
);
}
);
width = 363;
},
{
anchors = (
{
name = bottom;
position = "{122, 0}";
},
{
name = top;
position = "{256, 763}";
}
);
layerId = "2F4EEC1B-9E89-4E08-AD53-AB625B6E887D";
paths = (
{
closed = 1;
nodes = (
"133 0 LINE",
"219 491 LINE",
"358 491 LINE",
"368 549 LINE",
"285 549 LINE SMOOTH",
"260 549 OFFCURVE",
"244 549 OFFCURVE",
"228 539 CURVE",
"219 549 LINE",
"232 562 OFFCURVE",
"235 578 OFFCURVE",
"242 618 CURVE SMOOTH",
"254 690 OFFCURVE",
"293 705 OFFCURVE",
"344 705 CURVE SMOOTH",
"396 705 LINE",
"406 763 LINE",
"340 763 LINE SMOOTH",
"248 763 OFFCURVE",
"193 711 OFFCURVE",
"175 611 CURVE SMOOTH",
"164 549 LINE",
"72 549 LINE",
"62 491 LINE",
"154 491 LINE",
"68 0 LINE"
);
}
);
width = 348;
}
);
leftKerningGroup = f;
note = f;
rightKerningGroup = f;
unicode = 0066;
},
{
color = 1;
glyphname = g;
lastChange = "2020-04-07 12:27:31 +0000";
layers = (
{
anchors = (
{
name = bottom;
position = "{232, -237}";
},
{
name = top;
position = "{374, 567}";
}
);
guideLines = (
{
angle = 270;
position = "{641, 567}";
}
);
layerId = "FD6EB2BB-8839-4CDB-86BF-4EEAE3F02079";
paths = (
{
closed = 1;
nodes = (
"384 -208 OFFCURVE",
"517 -155 OFFCURVE",
"552 48 CURVE SMOOTH",
"644 567 LINE",
"476 567 LINE",
"475 561 LINE SMOOTH",
"474 554 OFFCURVE",
"473 549 OFFCURVE",
"473 543 CURVE SMOOTH",
"473 531 OFFCURVE",
"476 522 OFFCURVE",
"483 511 CURVE",
"467 501 LINE",
"439 562 OFFCURVE",
"395 579 OFFCURVE",
"333 579 CURVE SMOOTH",
"160 579 OFFCURVE",
"30 408 OFFCURVE",
"30 229 CURVE SMOOTH",
"30 99 OFFCURVE",
"107 8 OFFCURVE",
"232 8 CURVE SMOOTH",
"294 8 OFFCURVE",
"344 25 OFFCURVE",
"394 86 CURVE",
"406 76 LINE",
"391 60 OFFCURVE",
"384 47 OFFCURVE",
"381 26 CURVE SMOOTH",
"377 5 LINE SMOOTH",
"369 -42 OFFCURVE",
"331 -83 OFFCURVE",
"255 -83 CURVE SMOOTH",
"205 -83 OFFCURVE",
"176 -68 OFFCURVE",
"166 -20 CURVE",
"-2 -20 LINE",
"-3 -173 OFFCURVE",
"117 -208 OFFCURVE",
"234 -208 CURVE SMOOTH"
);
},
{
closed = 1;
nodes = (
"240 151 OFFCURVE",
"203 198 OFFCURVE",
"203 261 CURVE SMOOTH",
"203 348 OFFCURVE",
"265 436 OFFCURVE",
"355 436 CURVE SMOOTH",
"419 436 OFFCURVE",
"457 390 OFFCURVE",
"457 325 CURVE SMOOTH",
"457 238 OFFCURVE",
"394 151 OFFCURVE",
"305 151 CURVE SMOOTH"
);
}
);
width = 655;
},
{
anchors = (
{
name = bottom;
position = "{226, -237}";
},
{
name = top;
position = "{366, 553}";
}
);
layerId = "11907447-A26F-432E-A335-7727E0303767";
paths = (
{
closed = 1;
nodes = (
"371 -220 OFFCURVE",
"486 -161 OFFCURVE",
"518 19 CURVE SMOOTH",
"612 553 LINE",
"527 553 LINE",
"520 517 LINE SMOOTH",
"519 510 OFFCURVE",
"518 505 OFFCURVE",
"518 500 CURVE SMOOTH",
"518 490 OFFCURVE",
"520 483 OFFCURVE",
"525 475 CURVE",
"509 466 LINE",
"471 534 OFFCURVE",
"432 563 OFFCURVE",
"347 563 CURVE SMOOTH",
"167 563 OFFCURVE",
"45 390 OFFCURVE",
"45 205 CURVE SMOOTH",
"45 76 OFFCURVE",
"119 -10 OFFCURVE",
"246 -10 CURVE SMOOTH",
"330 -10 OFFCURVE",
"381 19 OFFCURVE",
"443 87 CURVE",
"455 78 LINE",
"442 64 OFFCURVE",
"440 59 OFFCURVE",
"436 36 CURVE SMOOTH",
"430 3 LINE SMOOTH",
"414 -89 OFFCURVE",
"355 -145 OFFCURVE",
"239 -145 CURVE SMOOTH",
"148 -145 OFFCURVE",
"103 -111 OFFCURVE",
"97 -45 CURVE",
"10 -45 LINE",
"9 -179 OFFCURVE",
"114 -220 OFFCURVE",
"226 -220 CURVE SMOOTH"
);
},
{
closed = 1;
nodes = (
"180 65 OFFCURVE",
"131 130 OFFCURVE",
"131 224 CURVE SMOOTH",
"131 353 OFFCURVE",
"215 488 OFFCURVE",
"342 488 CURVE SMOOTH",
"430 488 OFFCURVE",
"486 422 OFFCURVE",
"486 326 CURVE SMOOTH",
"486 198 OFFCURVE",
"396 65 OFFCURVE",
"268 65 CURVE SMOOTH"
);
}
);
width = 640;
},
{
anchors = (
{
name = bottom;
position = "{223, -237}";
},
{
name = top;
position = "{372, 549}";
}
);
layerId = "2F4EEC1B-9E89-4E08-AD53-AB625B6E887D";
paths = (
{
closed = 1;
nodes = (
"372 -224 OFFCURVE",
"476 -161 OFFCURVE",
"506 7 CURVE SMOOTH",
"601 549 LINE",
"536 549 LINE",
"530 511 LINE SMOOTH",
"528 503 OFFCURVE",
"527 495 OFFCURVE",
"527 483 CURVE SMOOTH",
"527 474 OFFCURVE",
"527 464 OFFCURVE",
"529 451 CURVE",
"516 446 LINE",
"479 525 OFFCURVE",
"417 559 OFFCURVE",
"342 559 CURVE SMOOTH",
"170 559 OFFCURVE",
"46 389 OFFCURVE",
"46 208 CURVE SMOOTH",
"46 78 OFFCURVE",
"119 -10 OFFCURVE",
"242 -10 CURVE SMOOTH",
"317 -10 OFFCURVE",
"391 24 OFFCURVE",
"456 103 CURVE",
"468 95 LINE",
"457 81 OFFCURVE",
"452 70 OFFCURVE",
"448 48 CURVE SMOOTH",
"439 -4 LINE SMOOTH",
"421 -108 OFFCURVE",
"358 -166 OFFCURVE",
"231 -166 CURVE SMOOTH",
"127 -166 OFFCURVE",
"84 -129 OFFCURVE",
"75 -56 CURVE",
"10 -56 LINE",
"20 -177 OFFCURVE",
"101 -224 OFFCURVE",
"222 -224 CURVE SMOOTH"
);
},
{
closed = 1;
nodes = (
"163 48 OFFCURVE",
"112 118 OFFCURVE",
"112 217 CURVE SMOOTH",
"112 357 OFFCURVE",
"200 501 OFFCURVE",
"338 501 CURVE SMOOTH",
"434 501 OFFCURVE",
"495 429 OFFCURVE",
"495 325 CURVE SMOOTH",
"495 185 OFFCURVE",
"392 48 OFFCURVE",
"258 48 CURVE SMOOTH"
);
}
);
width = 630;
}
);
leftKerningGroup = c;
note = g;
rightKerningGroup = g;
rightMetricsKey = u;
unicode = 0067;
},
{
color = 1;
glyphname = h;
lastChange = "2020-04-07 12:27:32 +0000";
layers = (
{
anchors = (
{
name = bottom;
position = "{268, 0}";
},
{
name = center;
position = "{217, 660}";
},
{
name = top;
position = "{230, 763}";
}
);
layerId = "FD6EB2BB-8839-4CDB-86BF-4EEAE3F02079";
paths = (
{
closed = 1;
nodes = (
"179 0 LINE",
"235 319 LINE SMOOTH",
"244 368 OFFCURVE",
"256 396 OFFCURVE",
"273 415 CURVE SMOOTH",
"293 435 OFFCURVE",
"318 444 OFFCURVE",
"353 444 CURVE SMOOTH",
"381 444 OFFCURVE",
"400 438 OFFCURVE",
"412 423 CURVE SMOOTH",
"425 405 OFFCURVE",
"427 375 OFFCURVE",
"417 319 CURVE SMOOTH",
"361 0 LINE",
"529 0 LINE",
"585 317 LINE SMOOTH",
"597 387 OFFCURVE",
"605 432 OFFCURVE",
"592 481 CURVE SMOOTH",
"578 533 OFFCURVE",
"538 579 OFFCURVE",
"426 579 CURVE SMOOTH",
"364 579 OFFCURVE",
"314 562 OFFCURVE",
"264 501 CURVE",
"252 511 LINE",
"268 527 OFFCURVE",
"274 540 OFFCURVE",
"278 561 CURVE SMOOTH",
"314 763 LINE",
"146 763 LINE",
"11 0 LINE"
);
}
);
width = 632;
},
{
anchors = (
{
name = bottom;
position = "{246, 0}";
},
{
name = center;
position = "{189, 660}";
},
{
name = top;
position = "{207, 763}";
}
);
layerId = "11907447-A26F-432E-A335-7727E0303767";
paths = (
{
closed = 1;
nodes = (
"114 0 LINE",
"156 236 LINE SMOOTH",
"176 349 OFFCURVE",
"200 409 OFFCURVE",
"243 447 CURVE SMOOTH",
"270 472 OFFCURVE",
"306 488 OFFCURVE",
"351 488 CURVE SMOOTH",
"389 488 OFFCURVE",
"416 478 OFFCURVE",
"431 457 CURVE SMOOTH",
"448 432 OFFCURVE",
"451 392 OFFCURVE",
"441 333 CURVE SMOOTH",
"382 0 LINE",
"467 0 LINE",
"526 333 LINE SMOOTH",
"532 368 OFFCURVE",
"542 426 OFFCURVE",
"525 476 CURVE SMOOTH",
"507 527 OFFCURVE",
"465 563 OFFCURVE",
"378 563 CURVE SMOOTH",
"311 563 OFFCURVE",
"260 534 OFFCURVE",
"198 466 CURVE",
"186 475 LINE",
"197 487 OFFCURVE",
"202 498 OFFCURVE",
"205 517 CURVE SMOOTH",
"249 763 LINE",
"164 763 LINE",
"29 0 LINE"
);
}
);
width = 585;
},
{
anchors = (
{
name = bottom;
position = "{233, 0}";
},
{
name = center;
position = "{178, 660}";
},
{
name = top;
position = "{196, 763}";
}
);
layerId = "2F4EEC1B-9E89-4E08-AD53-AB625B6E887D";
paths = (
{
closed = 1;
nodes = (
"94 0 LINE",
"132 217 LINE SMOOTH",
"154 343 OFFCURVE",
"188 413 OFFCURVE",
"235 456 CURVE SMOOTH",
"267 485 OFFCURVE",
"306 501 OFFCURVE",
"348 501 CURVE SMOOTH",
"393 501 OFFCURVE",
"424 484 OFFCURVE",
"439 450 CURVE SMOOTH",
"450 424 OFFCURVE",
"452 387 OFFCURVE",
"444 340 CURVE SMOOTH",
"384 0 LINE",
"449 0 LINE",
"508 337 LINE SMOOTH",
"515 374 OFFCURVE",
"522 428 OFFCURVE",
"505 475 CURVE SMOOTH",
"485 526 OFFCURVE",
"440 559 OFFCURVE",
"372 559 CURVE SMOOTH",
"290 559 OFFCURVE",
"229 525 OFFCURVE",
"174 446 CURVE",
"162 454 LINE",
"173 468 OFFCURVE",
"178 479 OFFCURVE",
"182 501 CURVE SMOOTH",
"228 763 LINE",
"163 763 LINE",
"29 0 LINE"
);
}
);
width = 568;
}
);
leftKerningGroup = h;
leftMetricsKey = b;
note = h;
rightKerningGroup = h;
rightMetricsKey = m;
unicode = 0068;
},
{
color = 1;
glyphname = idotless;
lastChange = "2020-04-06 10:22:29 +0000";
layers = (
{
anchors = (
{
name = bottom;
position = "{104, 0}";
},
{
name = ogonek;
position = "{188, 0}";
},
{
name = top;
position = "{204, 567}";
}
);
layerId = "FD6EB2BB-8839-4CDB-86BF-4EEAE3F02079";
paths = (
{
closed = 1;
nodes = (
"188 0 LINE",
"288 567 LINE",
"120 567 LINE",
"20 0 LINE"
);
}
);
width = 308;
},
{
anchors = (
{
name = bottom;
position = "{74, 0}";
},
{
name = ogonek;
position = "{116, 0}";
},
{
name = top;
position = "{172, 553}";
}
);
layerId = "11907447-A26F-432E-A335-7727E0303767";
paths = (
{
closed = 1;
nodes = (
"116 0 LINE",
"214 553 LINE",
"129 553 LINE",
"31 0 LINE"
);
}
);
width = 245;
},
{
anchors = (
{
name = bottom;
position = "{66, 0}";
},
{
name = ogonek;
position = "{98, 0}";
},
{
name = top;
position = "{162, 549}";
}
);
layerId = "2F4EEC1B-9E89-4E08-AD53-AB625B6E887D";
paths = (
{
closed = 1;
nodes = (
"98 0 LINE",
"194 549 LINE",
"129 549 LINE",
"33 0 LINE"
);
}
);
width = 227;
}
);
note = dotlessi;
unicode = 0131;
},
{
color = 1;
glyphname = jdotless;
lastChange = "2020-04-16 06:51:27 +0000";
layers = (
{
anchors = (
{
name = bottom;
position = "{62, -237}";
},
{
name = top;
position = "{204, 567}";
}
);
layerId = "FD6EB2BB-8839-4CDB-86BF-4EEAE3F02079";
paths = (
{
closed = 1;
nodes = (
"23 -196 LINE SMOOTH",
"106 -196 OFFCURVE",
"161 -154 OFFCURVE",
"174 -82 CURVE SMOOTH",
"288 567 LINE",
"120 567 LINE",
"16 -24 LINE SMOOTH",
"10 -55 OFFCURVE",
"-10 -59 OFFCURVE",
"-26 -59 CURVE SMOOTH",
"-78 -59 LINE",
"-103 -196 LINE"
);
}
);
width = 309;
},
{
anchors = (
{
name = bottom;
position = "{30, -237}";
},
{
name = top;
position = "{170, 553}";
}
);
layerId = "11907447-A26F-432E-A335-7727E0303767";
paths = (
{
closed = 1;
nodes = (
"-65 -210 LINE SMOOTH",
"29 -210 OFFCURVE",
"87 -159 OFFCURVE",
"105 -59 CURVE SMOOTH",
"213 553 LINE",
"128 553 LINE",
"22 -48 LINE SMOOTH",
"10 -116 OFFCURVE",
"-25 -132 OFFCURVE",
"-71 -132 CURVE SMOOTH",
"-123 -132 LINE",
"-137 -210 LINE"
);
}
);
width = 243;
},
{
anchors = (
{
name = bottom;
position = "{15, -237}";
},
{
name = top;
position = "{153, 549}";
}
);
layerId = "2F4EEC1B-9E89-4E08-AD53-AB625B6E887D";
paths = (
{
closed = 1;
nodes = (
"-87 -214 LINE SMOOTH",
"4 -214 OFFCURVE",
"60 -163 OFFCURVE",
"78 -61 CURVE SMOOTH",
"185 549 LINE",
"120 549 LINE",
"15 -51 LINE SMOOTH",
"1 -128 OFFCURVE",
"-36 -155 OFFCURVE",
"-92 -155 CURVE SMOOTH",
"-144 -155 LINE",
"-154 -214 LINE"
);
}
);
width = 209;
}
);
note = uni0237;
unicode = 0237;
},
{
color = 1;
glyphname = k;
lastChange = "2020-04-07 12:27:31 +0000";
layers = (
{
anchors = (
{
name = bottom;
position = "{263, 0}";
},
{
name = top;
position = "{398, 763}";
}
);
guideLines = (
{
angle = 270;
position = "{236, 201}";
},
{
angle = 270;
position = "{441, 318}";
}
);
layerId = "FD6EB2BB-8839-4CDB-86BF-4EEAE3F02079";
paths = (
{
closed = 1;
nodes = (
"178 0 LINE",
"210 182 LINE SMOOTH",
"214 205 OFFCURVE",
"218 228 OFFCURVE",
"216 271 CURVE",
"229 275 LINE",
"245 237 OFFCURVE",
"255 219 OFFCURVE",
"265 201 CURVE SMOOTH",
"378 0 LINE",
"573 0 LINE",
"418 257 LINE SMOOTH",
"406 277 OFFCURVE",
"393 292 OFFCURVE",
"381 303 CURVE",
"383 317 LINE",
"398 326 OFFCURVE",
"416 336 OFFCURVE",
"435 353 CURVE SMOOTH",
"674 567 LINE",
"458 567 LINE",
"305 426 LINE SMOOTH",
"290 412 OFFCURVE",
"273 397 OFFCURVE",
"244 363 CURVE",
"233 368 LINE",
"251 412 OFFCURVE",
"255 435 OFFCURVE",
"259 459 CURVE SMOOTH",
"313 763 LINE",
"145 763 LINE",
"10 0 LINE"
);
}
);
width = 637;
},
{
anchors = (
{
name = bottom;
position = "{228, 0}";
},
{
name = top;
position = "{363, 763}";
}
);
guideLines = (
{
angle = 270;
position = "{303, 308}";
}
);
layerId = "11907447-A26F-432E-A335-7727E0303767";
paths = (
{
closed = 1;
nodes = (
"113 0 LINE",
"145 182 LINE SMOOTH",
"150 211 OFFCURVE",
"156 241 OFFCURVE",
"153 280 CURVE",
"165 285 LINE",
"185 261 OFFCURVE",
"196 246 OFFCURVE",
"207 232 CURVE SMOOTH",
"383 0 LINE",
"493 0 LINE",
"286 264 LINE SMOOTH",
"275 279 OFFCURVE",
"263 286 OFFCURVE",
"244 292 CURVE",
"246 306 LINE",
"267 311 OFFCURVE",
"280 317 OFFCURVE",
"297 330 CURVE SMOOTH",
"583 553 LINE",
"454 553 LINE",
"233 380 LINE SMOOTH",
"217 368 OFFCURVE",
"202 355 OFFCURVE",
"174 333 CURVE",
"163 339 LINE",
"179 374 OFFCURVE",
"184 400 OFFCURVE",
"188 425 CURVE SMOOTH",
"248 763 LINE",
"163 763 LINE",
"28 0 LINE"
);
}
);
width = 569;
},
{
anchors = (
{
name = bottom;
position = "{212, 0}";
},
{
name = top;
position = "{347, 763}";
}
);
guideLines = (
{
angle = 270;
position = "{266, 299}";
}
);
layerId = "2F4EEC1B-9E89-4E08-AD53-AB625B6E887D";
paths = (
{
closed = 1;
nodes = (
"94 0 LINE",
"134 228 LINE SMOOTH",
"137 243 OFFCURVE",
"139 259 OFFCURVE",
"133 282 CURVE",
"147 289 LINE",
"164 268 OFFCURVE",
"174 257 OFFCURVE",
"183 246 CURVE SMOOTH",
"387 0 LINE",
"472 0 LINE",
"248 264 LINE SMOOTH",
"240 274 OFFCURVE",
"232 283 OFFCURVE",
"213 293 CURVE",
"216 307 LINE",
"237 315 OFFCURVE",
"249 324 OFFCURVE",
"260 332 CURVE SMOOTH",
"556 549 LINE",
"455 549 LINE",
"204 363 LINE SMOOTH",
"191 353 OFFCURVE",
"177 344 OFFCURVE",
"153 324 CURVE",
"142 330 LINE",
"157 357 OFFCURVE",
"160 375 OFFCURVE",
"163 392 CURVE SMOOTH",
"228 763 LINE",
"163 763 LINE",
"29 0 LINE"
);
}
);
width = 544;
}
);
leftKerningGroup = B;
note = k;
rightKerningGroup = k;
unicode = 006B;
},
{
color = 1;
glyphname = kgreenlandic;
lastChange = "2020-04-06 10:56:40 +0000";
layers = (
{
anchors = (
{
name = bottom;
position = "{263, 0}";
},
{
name = top;
position = "{398, 763}";
}
);
layerId = "FD6EB2BB-8839-4CDB-86BF-4EEAE3F02079";
paths = (
{
closed = 1;
nodes = (
"178 0 LINE",
"210 182 LINE SMOOTH",
"214 205 OFFCURVE",
"218 228 OFFCURVE",
"216 271 CURVE",
"229 275 LINE",
"245 237 OFFCURVE",
"255 219 OFFCURVE",
"265 201 CURVE SMOOTH",
"378 0 LINE",
"573 0 LINE",
"421 262 LINE SMOOTH",
"409 282 OFFCURVE",
"396 297 OFFCURVE",
"384 308 CURVE",
"386 322 LINE",
"401 331 OFFCURVE",
"419 341 OFFCURVE",
"438 358 CURVE SMOOTH",
"674 567 LINE",
"458 567 LINE",
"305 426 LINE SMOOTH",
"290 412 OFFCURVE",
"273 397 OFFCURVE",
"244 363 CURVE",
"233 368 LINE",
"251 412 OFFCURVE",
"255 435 OFFCURVE",
"259 459 CURVE SMOOTH",
"278 567 LINE",
"110 567 LINE",
"10 0 LINE"
);
}
);
width = 637;
},
{
anchors = (
{
name = bottom;
position = "{228, 0}";
},
{
name = top;
position = "{363, 763}";
}
);
layerId = "11907447-A26F-432E-A335-7727E0303767";
paths = (
{
closed = 1;
nodes = (
"113 0 LINE",
"145 182 LINE SMOOTH",
"150 211 OFFCURVE",
"156 241 OFFCURVE",
"153 280 CURVE",
"165 285 LINE",
"185 261 OFFCURVE",
"196 246 OFFCURVE",
"207 232 CURVE SMOOTH",
"383 0 LINE",
"493 0 LINE",
"286 267 LINE SMOOTH",
"274 281 OFFCURVE",
"263 289 OFFCURVE",
"244 295 CURVE",
"246 309 LINE",
"267 314 OFFCURVE",
"280 320 OFFCURVE",
"297 333 CURVE SMOOTH",
"583 553 LINE",
"454 553 LINE",
"233 380 LINE SMOOTH",
"217 368 OFFCURVE",
"202 355 OFFCURVE",
"174 333 CURVE",
"163 339 LINE",
"179 374 OFFCURVE",
"184 400 OFFCURVE",
"188 425 CURVE SMOOTH",
"211 553 LINE",
"126 553 LINE",
"28 0 LINE"
);
}
);
width = 569;
},
{
anchors = (
{
name = bottom;
position = "{212, 0}";
},
{
name = top;
position = "{347, 763}";
}
);
layerId = "2F4EEC1B-9E89-4E08-AD53-AB625B6E887D";
paths = (
{
closed = 1;
nodes = (
"94 0 LINE",
"134 228 LINE SMOOTH",
"137 243 OFFCURVE",
"139 259 OFFCURVE",
"133 282 CURVE",
"147 289 LINE",
"164 268 OFFCURVE",
"174 257 OFFCURVE",
"183 246 CURVE SMOOTH",
"387 0 LINE",
"472 0 LINE",
"248 265 LINE SMOOTH",
"240 275 OFFCURVE",
"232 284 OFFCURVE",
"213 294 CURVE",
"216 308 LINE",
"237 316 OFFCURVE",
"249 325 OFFCURVE",
"260 333 CURVE SMOOTH",
"554 549 LINE",
"455 549 LINE",
"204 363 LINE SMOOTH",
"191 353 OFFCURVE",
"177 344 OFFCURVE",
"153 324 CURVE",
"142 330 LINE",
"157 357 OFFCURVE",
"160 375 OFFCURVE",
"163 392 CURVE SMOOTH",
"191 549 LINE",
"125 549 LINE",
"29 0 LINE"
);
}
);
width = 544;
}
);
leftKerningGroup = b;
leftMetricsKey = k;
note = kgreenlandic;
rightKerningGroup = k;
rightMetricsKey = k;
unicode = 0138;
},
{
color = 1;
glyphname = l;
lastChange = "2020-04-07 12:27:31 +0000";
layers = (
{
anchors = (
{
name = bottom;
position = "{107, 0}";
},
{
name = center;
position = "{179, 464}";
},
{
name = top;
position = "{225, 763}";
},
{
name = topright;
position = "{312, 567}";
}
);
layerId = "FD6EB2BB-8839-4CDB-86BF-4EEAE3F02079";
paths = (
{
closed = 1;
nodes = (
"249 0 LINE",
"273 136 LINE",
"231 136 LINE SMOOTH",
"218 136 OFFCURVE",
"199 140 OFFCURVE",
"204 171 CURVE SMOOTH",
"309 763 LINE",
"141 763 LINE",
"26 113 LINE SMOOTH",
"13 41 OFFCURVE",
"53 0 OFFCURVE",
"136 0 CURVE SMOOTH"
);
}
);
width = 323;
},
{
anchors = (
{
name = bottom;
position = "{81, 0}";
},
{
name = center;
position = "{166, 483}";
},
{
name = top;
position = "{202, 763}";
},
{
name = topright;
position = "{253, 553}";
}
);
layerId = "11907447-A26F-432E-A335-7727E0303767";
paths = (
{
closed = 1;
nodes = (
"202 0 LINE",
"215 75 LINE",
"188 75 LINE SMOOTH",
"126 75 OFFCURVE",
"127 103 OFFCURVE",
"136 152 CURVE SMOOTH",
"244 763 LINE",
"159 763 LINE",
"49 139 LINE SMOOTH",
"29 28 OFFCURVE",
"72 0 OFFCURVE",
"155 0 CURVE SMOOTH"
);
}
);
width = 278;
},
{
anchors = (
{
name = bottom;
position = "{75, 0}";
},
{
name = center;
position = "{160, 487}";
},
{
name = top;
position = "{193, 763}";
},
{
name = topright;
position = "{236, 549}";
}
);
layerId = "2F4EEC1B-9E89-4E08-AD53-AB625B6E887D";
paths = (
{
closed = 1;
nodes = (
"190 0 LINE",
"200 58 LINE",
"164 58 LINE SMOOTH",
"107 58 OFFCURVE",
"106 85 OFFCURVE",
"115 138 CURVE SMOOTH",
"225 763 LINE",
"160 763 LINE",
"48 128 LINE SMOOTH",
"31 28 OFFCURVE",
"66 0 OFFCURVE",
"140 0 CURVE SMOOTH"
);
}
);
width = 263;
}
);
leftKerningGroup = B;
note = l;
rightKerningGroup = l;
unicode = 006C;
},
{
color = 1;
glyphname = m;
lastChange = "2020-04-07 12:27:31 +0000";
layers = (
{
anchors = (
{
name = bottom;
position = "{404, 0}";
},
{
name = top;
position = "{504, 567}";
}
);
layerId = "FD6EB2BB-8839-4CDB-86BF-4EEAE3F02079";
paths = (
{
closed = 1;
nodes = (
"178 0 LINE",
"236 328 LINE SMOOTH",
"245 379 OFFCURVE",
"256 405 OFFCURVE",
"275 423 CURVE SMOOTH",
"289 436 OFFCURVE",
"307 444 OFFCURVE",
"330 444 CURVE SMOOTH",
"370 444 OFFCURVE",
"392 429 OFFCURVE",
"392 388 CURVE SMOOTH",
"392 380 OFFCURVE",
"391 370 OFFCURVE",
"389 359 CURVE SMOOTH",
"326 0 LINE",
"494 0 LINE",
"552 328 LINE SMOOTH",
"560 373 OFFCURVE",
"570 404 OFFCURVE",
"591 424 CURVE SMOOTH",
"605 436 OFFCURVE",
"623 444 OFFCURVE",
"647 444 CURVE SMOOTH",
"686 444 OFFCURVE",
"707 429 OFFCURVE",
"707 388 CURVE SMOOTH",
"707 380 OFFCURVE",
"706 370 OFFCURVE",
"704 359 CURVE SMOOTH",
"641 0 LINE",
"809 0 LINE",
"875 374 LINE SMOOTH",
"879 394 OFFCURVE",
"880 413 OFFCURVE",
"880 431 CURVE SMOOTH",
"880 522 OFFCURVE",
"833 579 OFFCURVE",
"726 579 CURVE SMOOTH",
"677 579 OFFCURVE",
"598 567 OFFCURVE",
"564 497 CURVE",
"551 497 LINE",
"543 558 OFFCURVE",
"478 579 OFFCURVE",
"425 579 CURVE SMOOTH",
"363 579 OFFCURVE",
"313 562 OFFCURVE",
"263 501 CURVE",
"251 511 LINE",
"267 527 OFFCURVE",
"273 540 OFFCURVE",
"277 561 CURVE SMOOTH",
"278 567 LINE",
"110 567 LINE",
"10 0 LINE"
);
}
);
width = 912;
},
{
anchors = (
{
name = bottom;
position = "{407, 0}";
},
{
name = top;
position = "{501, 553}";
}
);
layerId = "11907447-A26F-432E-A335-7727E0303767";
paths = (
{
closed = 1;
nodes = (
"113 0 LINE",
"157 250 LINE SMOOTH",
"176 355 OFFCURVE",
"203 412 OFFCURVE",
"242 448 CURVE SMOOTH",
"269 473 OFFCURVE",
"302 488 OFFCURVE",
"339 488 CURVE SMOOTH",
"396 488 OFFCURVE",
"430 450 OFFCURVE",
"430 383 CURVE SMOOTH",
"430 370 OFFCURVE",
"429 356 OFFCURVE",
"426 340 CURVE SMOOTH",
"366 0 LINE",
"451 0 LINE",
"495 250 LINE SMOOTH",
"512 345 OFFCURVE",
"535 409 OFFCURVE",
"582 451 CURVE SMOOTH",
"607 473 OFFCURVE",
"638 488 OFFCURVE",
"678 488 CURVE SMOOTH",
"736 488 OFFCURVE",
"768 453 OFFCURVE",
"768 386 CURVE SMOOTH",
"768 372 OFFCURVE",
"767 357 OFFCURVE",
"764 340 CURVE SMOOTH",
"704 0 LINE",
"789 0 LINE",
"853 360 LINE SMOOTH",
"857 381 OFFCURVE",
"858 400 OFFCURVE",
"858 418 CURVE SMOOTH",
"858 510 OFFCURVE",
"810 563 OFFCURVE",
"705 563 CURVE SMOOTH",
"637 563 OFFCURVE",
"567 541 OFFCURVE",
"518 461 CURVE",
"505 461 LINE",
"507 530 OFFCURVE",
"448 563 OFFCURVE",
"377 563 CURVE SMOOTH",
"310 563 OFFCURVE",
"259 534 OFFCURVE",
"197 466 CURVE",
"185 475 LINE",
"196 487 OFFCURVE",
"201 498 OFFCURVE",
"204 517 CURVE SMOOTH",
"211 553 LINE",
"126 553 LINE",
"28 0 LINE"
);
}
);
width = 907;
},
{
anchors = (
{
name = bottom;
position = "{404, 0}";
},
{
name = top;
position = "{496, 549}";
}
);
layerId = "2F4EEC1B-9E89-4E08-AD53-AB625B6E887D";
paths = (
{
closed = 1;
nodes = (
"95 0 LINE",
"139 251 LINE SMOOTH",
"155 344 OFFCURVE",
"179 400 OFFCURVE",
"213 439 CURVE SMOOTH",
"247 478 OFFCURVE",
"290 501 OFFCURVE",
"341 501 CURVE SMOOTH",
"407 501 OFFCURVE",
"438 457 OFFCURVE",
"438 388 CURVE SMOOTH",
"438 373 OFFCURVE",
"437 358 OFFCURVE",
"434 341 CURVE SMOOTH",
"374 0 LINE",
"439 0 LINE",
"483 251 LINE SMOOTH",
"499 344 OFFCURVE",
"524 400 OFFCURVE",
"557 440 CURVE SMOOTH",
"593 483 OFFCURVE",
"637 501 OFFCURVE",
"685 501 CURVE SMOOTH",
"753 501 OFFCURVE",
"781 457 OFFCURVE",
"781 392 CURVE SMOOTH",
"781 376 OFFCURVE",
"779 359 OFFCURVE",
"776 341 CURVE SMOOTH",
"716 0 LINE",
"781 0 LINE",
"844 357 LINE SMOOTH",
"848 378 OFFCURVE",
"849 397 OFFCURVE",
"849 415 CURVE SMOOTH",
"849 508 OFFCURVE",
"801 559 OFFCURVE",
"700 559 CURVE SMOOTH",
"625 559 OFFCURVE",
"549 524 OFFCURVE",
"506 444 CURVE",
"494 444 LINE",
"492 522 OFFCURVE",
"434 559 OFFCURVE",
"357 559 CURVE SMOOTH",
"297 559 OFFCURVE",
"222 535 OFFCURVE",
"175 446 CURVE",
"163 454 LINE",
"174 468 OFFCURVE",
"179 479 OFFCURVE",
"183 501 CURVE SMOOTH",
"191 549 LINE",
"126 549 LINE",
"30 0 LINE"
);
}
);
width = 900;
}
);
leftKerningGroup = i;
note = m;
rightKerningGroup = a;
unicode = 006D;
},
{
color = 1;
glyphname = n;
lastChange = "2020-04-07 12:27:32 +0000";
layers = (
{
anchors = (
{
name = bottom;
position = "{267, 0}";
},
{
name = top;
position = "{367, 567}";
}
);
layerId = "FD6EB2BB-8839-4CDB-86BF-4EEAE3F02079";
paths = (
{
closed = 1;
nodes = (
"178 0 LINE",
"234 319 LINE SMOOTH",
"243 368 OFFCURVE",
"255 396 OFFCURVE",
"272 415 CURVE SMOOTH",
"292 435 OFFCURVE",
"317 444 OFFCURVE",
"352 444 CURVE SMOOTH",
"380 444 OFFCURVE",
"399 438 OFFCURVE",
"411 423 CURVE SMOOTH",
"418 413 OFFCURVE",
"422 398 OFFCURVE",
"422 377 CURVE SMOOTH",
"422 362 OFFCURVE",
"420 343 OFFCURVE",
"416 319 CURVE SMOOTH",
"360 0 LINE",
"528 0 LINE",
"584 317 LINE SMOOTH",
"592 362 OFFCURVE",
"598 396 OFFCURVE",
"598 428 CURVE SMOOTH",
"598 446 OFFCURVE",
"596 463 OFFCURVE",
"591 481 CURVE SMOOTH",
"577 533 OFFCURVE",
"537 579 OFFCURVE",
"425 579 CURVE SMOOTH",
"363 579 OFFCURVE",
"313 562 OFFCURVE",
"263 501 CURVE",
"251 511 LINE",
"267 527 OFFCURVE",
"273 540 OFFCURVE",
"277 561 CURVE SMOOTH",
"278 567 LINE",
"110 567 LINE",
"10 0 LINE"
);
}
);
width = 631;
},
{
anchors = (
{
name = bottom;
position = "{246, 0}";
},
{
name = top;
position = "{344, 553}";
}
);
layerId = "11907447-A26F-432E-A335-7727E0303767";
paths = (
{
closed = 1;
nodes = (
"113 0 LINE",
"155 236 LINE SMOOTH",
"175 349 OFFCURVE",
"199 409 OFFCURVE",
"242 447 CURVE SMOOTH",
"269 472 OFFCURVE",
"305 488 OFFCURVE",
"350 488 CURVE SMOOTH",
"388 488 OFFCURVE",
"415 478 OFFCURVE",
"430 457 CURVE SMOOTH",
"441 441 OFFCURVE",
"446 420 OFFCURVE",
"446 392 CURVE SMOOTH",
"446 375 OFFCURVE",
"444 355 OFFCURVE",
"440 333 CURVE SMOOTH",
"381 0 LINE",
"466 0 LINE",
"525 333 LINE SMOOTH",
"529 354 OFFCURVE",
"533 382 OFFCURVE",
"533 412 CURVE SMOOTH",
"533 433 OFFCURVE",
"531 455 OFFCURVE",
"524 476 CURVE SMOOTH",
"506 527 OFFCURVE",
"464 563 OFFCURVE",
"377 563 CURVE SMOOTH",
"310 563 OFFCURVE",
"259 534 OFFCURVE",
"197 466 CURVE",
"185 475 LINE",
"196 487 OFFCURVE",
"201 498 OFFCURVE",
"204 517 CURVE SMOOTH",
"211 553 LINE",
"126 553 LINE",
"28 0 LINE"
);
}
);
width = 584;
},
{
layerId = "2F4EEC1B-9E89-4E08-AD53-AB625B6E887D";
paths = (
{
closed = 1;
nodes = (
"95 0 LINE",
"133 217 LINE SMOOTH",
"155 343 OFFCURVE",
"189 413 OFFCURVE",
"236 456 CURVE SMOOTH",
"268 485 OFFCURVE",
"307 501 OFFCURVE",
"349 501 CURVE SMOOTH",
"394 501 OFFCURVE",
"425 484 OFFCURVE",
"440 450 CURVE SMOOTH",
"447 435 OFFCURVE",
"450 415 OFFCURVE",
"450 393 CURVE SMOOTH",
"450 377 OFFCURVE",
"448 359 OFFCURVE",
"445 340 CURVE SMOOTH",
"385 0 LINE",
"450 0 LINE",
"509 337 LINE SMOOTH",
"513 357 OFFCURVE",
"517 382 OFFCURVE",
"517 408 CURVE SMOOTH",
"517 430 OFFCURVE",
"514 453 OFFCURVE",
"506 475 CURVE SMOOTH",
"486 526 OFFCURVE",
"441 559 OFFCURVE",
"373 559 CURVE SMOOTH",
"291 559 OFFCURVE",
"230 525 OFFCURVE",
"175 446 CURVE",
"163 454 LINE",
"174 468 OFFCURVE",
"179 479 OFFCURVE",
"183 501 CURVE SMOOTH",
"191 549 LINE",
"126 549 LINE",
"30 0 LINE"
);
}
);
width = 569;
}
);
leftKerningGroup = i;
leftMetricsKey = m;
note = n;
rightKerningGroup = a;
rightMetricsKey = m;
unicode = 006E;
},
{
color = 1;
glyphname = o;
lastChange = "2020-04-07 12:27:31 +0000";
layers = (
{
anchors = (
{
name = bottom;
position = "{275, 0}";
},
{
name = center;
position = "{325, 284}";
},
{
name = ogonek;
position = "{456, 37}";
},
{
name = top;
position = "{375, 567}";
},
{
name = topright;
position = "{671, 567}";
}
);
layerId = "FD6EB2BB-8839-4CDB-86BF-4EEAE3F02079";
paths = (
{
closed = 1;
nodes = (
"501 -12 OFFCURVE",
"620 174 OFFCURVE",
"620 337 CURVE SMOOTH",
"620 465 OFFCURVE",
"551 579 OFFCURVE",
"377 579 CURVE SMOOTH",
"149 579 OFFCURVE",
"29 393 OFFCURVE",
"29 230 CURVE SMOOTH",
"29 102 OFFCURVE",
"100 -12 OFFCURVE",
"273 -12 CURVE SMOOTH"
);
},
{
closed = 1;
nodes = (
"235 132 OFFCURVE",
"197 175 OFFCURVE",
"197 245 CURVE SMOOTH",
"197 342 OFFCURVE",
"256 436 OFFCURVE",
"352 436 CURVE SMOOTH",
"417 436 OFFCURVE",
"452 392 OFFCURVE",
"452 325 CURVE SMOOTH",
"452 230 OFFCURVE",
"393 132 OFFCURVE",
"298 132 CURVE SMOOTH"
);
}
);
width = 649;
},
{
anchors = (
{
name = bottom;
position = "{272, 0}";
},
{
name = center;
position = "{321, 277}";
},
{
name = ogonek;
position = "{410, 26}";
},
{
name = top;
position = "{370, 553}";
},
{
name = topright;
position = "{656, 553}";
}
);
layerId = "11907447-A26F-432E-A335-7727E0303767";
paths = (
{
closed = 1;
nodes = (
"454 -10 OFFCURVE",
"597 154 OFFCURVE",
"597 338 CURVE SMOOTH",
"597 471 OFFCURVE",
"510 563 OFFCURVE",
"371 563 CURVE SMOOTH",
"188 563 OFFCURVE",
"45 403 OFFCURVE",
"45 218 CURVE SMOOTH",
"45 82 OFFCURVE",
"131 -10 OFFCURVE",
"269 -10 CURVE SMOOTH"
);
},
{
closed = 1;
nodes = (
"192 65 OFFCURVE",
"131 132 OFFCURVE",
"131 232 CURVE SMOOTH",
"131 364 OFFCURVE",
"230 488 OFFCURVE",
"357 488 CURVE SMOOTH",
"450 488 OFFCURVE",
"510 419 OFFCURVE",
"510 323 CURVE SMOOTH",
"510 192 OFFCURVE",
"410 65 OFFCURVE",
"283 65 CURVE SMOOTH"
);
}
);
width = 642;
},
{
anchors = (
{
name = bottom;
position = "{265, 0}";
},
{
name = center;
position = "{313, 275}";
},
{
name = ogonek;
position = "{398, 26}";
},
{
name = top;
position = "{361, 549}";
},
{
name = topright;
position = "{644, 549}";
}
);
layerId = "2F4EEC1B-9E89-4E08-AD53-AB625B6E887D";
paths = (
{
closed = 1;
nodes = (
"441 -10 OFFCURVE",
"582 155 OFFCURVE",
"582 335 CURVE SMOOTH",
"582 466 OFFCURVE",
"496 559 OFFCURVE",
"362 559 CURVE SMOOTH",
"185 559 OFFCURVE",
"44 397 OFFCURVE",
"44 216 CURVE SMOOTH",
"44 82 OFFCURVE",
"128 -10 OFFCURVE",
"262 -10 CURVE SMOOTH"
);
},
{
closed = 1;
nodes = (
"174 48 OFFCURVE",
"110 121 OFFCURVE",
"110 227 CURVE SMOOTH",
"110 368 OFFCURVE",
"216 501 OFFCURVE",
"352 501 CURVE SMOOTH",
"452 501 OFFCURVE",
"516 428 OFFCURVE",
"516 325 CURVE SMOOTH",
"516 184 OFFCURVE",
"408 48 OFFCURVE",
"272 48 CURVE SMOOTH"
);
}
);
width = 626;
}
);
leftKerningGroup = c;
note = o;
rightKerningGroup = o;
unicode = 006F;
},
{
glyphname = oe;
lastChange = "2020-04-16 06:31:36 +0000";
layers = (
{
anchors = (
{
name = bottom;
position = "{494, 0}";
},
{
name = top;
position = "{590, 549}";
}
);
layerId = "2F4EEC1B-9E89-4E08-AD53-AB625B6E887D";
paths = (
{
closed = 1;
nodes = (
"364 -10 OFFCURVE",
"453 42 OFFCURVE",
"520 139 CURVE",
"533 139 LINE",
"554 42 OFFCURVE",
"626 -10 OFFCURVE",
"725 -10 CURVE SMOOTH",
"857 -10 OFFCURVE",
"955 71 OFFCURVE",
"1005 173 CURVE",
"936 173 LINE",
"899 104 OFFCURVE",
"826 48 OFFCURVE",
"735 48 CURVE SMOOTH",
"651 48 OFFCURVE",
"591 101 OFFCURVE",
"578 187 CURVE SMOOTH",
"572 222 OFFCURVE",
"579 245 OFFCURVE",
"561 250 CURVE",
"567 265 LINE",
"592 263 OFFCURVE",
"628 263 OFFCURVE",
"649 263 CURVE SMOOTH",
"1033 263 LINE",
"1036 277 OFFCURVE",
"1040 322 OFFCURVE",
"1040 337 CURVE SMOOTH",
"1040 478 OFFCURVE",
"948 559 OFFCURVE",
"824 559 CURVE SMOOTH",
"722 559 OFFCURVE",
"635 506 OFFCURVE",
"569 410 CURVE",
"557 410 LINE",
"534 508 OFFCURVE",
"461 559 OFFCURVE",
"362 559 CURVE SMOOTH",
"185 559 OFFCURVE",
"44 397 OFFCURVE",
"44 216 CURVE SMOOTH",
"44 82 OFFCURVE",
"128 -10 OFFCURVE",
"262 -10 CURVE SMOOTH"
);
},
{
closed = 1;
nodes = (
"174 48 OFFCURVE",
"110 121 OFFCURVE",
"110 227 CURVE SMOOTH",
"110 368 OFFCURVE",
"216 501 OFFCURVE",
"352 501 CURVE SMOOTH",
"452 501 OFFCURVE",
"516 428 OFFCURVE",
"516 325 CURVE SMOOTH",
"516 184 OFFCURVE",
"408 48 OFFCURVE",
"272 48 CURVE SMOOTH"
);
},
{
closed = 1;
nodes = (
"580 317 LINE",
"597 329 OFFCURVE",
"599 352 OFFCURVE",
"621 388 CURVE SMOOTH",
"665 459 OFFCURVE",
"735 501 OFFCURVE",
"815 501 CURVE SMOOTH",
"894 501 OFFCURVE",
"955 458 OFFCURVE",
"973 384 CURVE SMOOTH",
"976 370 OFFCURVE",
"977 358 OFFCURVE",
"977 349 CURVE SMOOTH",
"977 336 OFFCURVE",
"978 326 OFFCURVE",
"986 317 CURVE",
"974 303 LINE",
"948 316 OFFCURVE",
"931 316 OFFCURVE",
"913 316 CURVE SMOOTH",
"658 316 LINE SMOOTH",
"638 316 OFFCURVE",
"619 316 OFFCURVE",
"587 303 CURVE"
);
}
);
width = 1083;
},
{
anchors = (
{
name = bottom;
position = "{497, 0}";
},
{
name = top;
position = "{595, 553}";
}
);
layerId = "11907447-A26F-432E-A335-7727E0303767";
paths = (
{
closed = 1;
nodes = (
"367 -10 OFFCURVE",
"453 36 OFFCURVE",
"518 124 CURVE",
"531 124 LINE",
"560 35 OFFCURVE",
"630 -10 OFFCURVE",
"727 -10 CURVE SMOOTH",
"864 -10 OFFCURVE",
"963 74 OFFCURVE",
"1016 178 CURVE",
"925 178 LINE",
"890 117 OFFCURVE",
"824 65 OFFCURVE",
"740 65 CURVE SMOOTH",
"660 65 OFFCURVE",
"604 120 OFFCURVE",
"591 205 CURVE SMOOTH",
"587 232 OFFCURVE",
"592 243 OFFCURVE",
"575 246 CURVE",
"580 262 LINE",
"602 259 OFFCURVE",
"621 260 OFFCURVE",
"645 260 CURVE SMOOTH",
"1040 260 LINE",
"1045 283 OFFCURVE",
"1051 327 OFFCURVE",
"1051 349 CURVE SMOOTH",
"1051 489 OFFCURVE",
"950 563 OFFCURVE",
"827 563 CURVE SMOOTH",
"729 563 OFFCURVE",
"640 516 OFFCURVE",
"578 438 CURVE",
"565 438 LINE",
"534 519 OFFCURVE",
"467 563 OFFCURVE",
"371 563 CURVE SMOOTH",
"188 563 OFFCURVE",
"45 403 OFFCURVE",
"45 218 CURVE SMOOTH",
"45 82 OFFCURVE",
"131 -10 OFFCURVE",
"269 -10 CURVE SMOOTH"
);
},
{
closed = 1;
nodes = (
"192 65 OFFCURVE",
"131 132 OFFCURVE",
"131 232 CURVE SMOOTH",
"131 364 OFFCURVE",
"230 488 OFFCURVE",
"357 488 CURVE SMOOTH",
"450 488 OFFCURVE",
"510 419 OFFCURVE",
"510 323 CURVE SMOOTH",
"510 192 OFFCURVE",
"410 65 OFFCURVE",
"283 65 CURVE SMOOTH"
);
},
{
closed = 1;
nodes = (
"598 328 LINE",
"628 348 OFFCURVE",
"611 350 OFFCURVE",
"637 389 CURVE SMOOTH",
"678 452 OFFCURVE",
"741 488 OFFCURVE",
"815 488 CURVE SMOOTH",
"886 488 OFFCURVE",
"942 453 OFFCURVE",
"960 389 CURVE SMOOTH",
"964 378 OFFCURVE",
"964 369 OFFCURVE",
"964 359 CURVE SMOOTH",
"964 347 OFFCURVE",
"962 342 OFFCURVE",
"976 328 CURVE",
"963 316 LINE",
"949 329 OFFCURVE",
"935 335 OFFCURVE",
"909 335 CURVE SMOOTH",
"661 335 LINE SMOOTH",
"637 335 OFFCURVE",
"623 329 OFFCURVE",
"607 316 CURVE"
);
}
);
width = 1092;
},
{
anchors = (
{
name = bottom;
position = "{485, 0}";
},
{
name = top;
position = "{585, 567}";
}
);
layerId = "FD6EB2BB-8839-4CDB-86BF-4EEAE3F02079";
paths = (
{
closed = 1;
nodes = (
"363 -12 OFFCURVE",
"436 16 OFFCURVE",
"500 78 CURVE",
"513 78 LINE",
"547 14 OFFCURVE",
"613 -12 OFFCURVE",
"696 -12 CURVE SMOOTH",
"856 -12 OFFCURVE",
"960 84 OFFCURVE",
"1012 196 CURVE",
"843 196 LINE",
"822 161 OFFCURVE",
"781 132 OFFCURVE",
"730 132 CURVE SMOOTH",
"688 132 OFFCURVE",
"657 145 OFFCURVE",
"638 175 CURVE SMOOTH",
"620 203 OFFCURVE",
"630 231 OFFCURVE",
"609 237 CURVE",
"616 252 LINE",
"633 248 OFFCURVE",
"676 248 OFFCURVE",
"699 248 CURVE SMOOTH",
"1030 248 LINE",
"1036 286 OFFCURVE",
"1042 319 OFFCURVE",
"1042 350 CURVE SMOOTH",
"1042 515 OFFCURVE",
"926 579 OFFCURVE",
"795 579 CURVE SMOOTH",
"713 579 OFFCURVE",
"637 550 OFFCURVE",
"570 487 CURVE",
"556 487 LINE",
"526 549 OFFCURVE",
"465 579 OFFCURVE",
"377 579 CURVE SMOOTH",
"149 579 OFFCURVE",
"29 393 OFFCURVE",
"29 230 CURVE SMOOTH",
"29 102 OFFCURVE",
"100 -12 OFFCURVE",
"273 -12 CURVE SMOOTH"
);
},
{
closed = 1;
nodes = (
"235 132 OFFCURVE",
"197 175 OFFCURVE",
"197 245 CURVE SMOOTH",
"197 342 OFFCURVE",
"256 436 OFFCURVE",
"352 436 CURVE SMOOTH",
"417 436 OFFCURVE",
"452 392 OFFCURVE",
"452 325 CURVE SMOOTH",
"452 230 OFFCURVE",
"393 132 OFFCURVE",
"298 132 CURVE SMOOTH"
);
},
{
closed = 1;
nodes = (
"638 370 LINE",
"659 376 OFFCURVE",
"650 390 OFFCURVE",
"683 418 CURVE SMOOTH",
"711 442 OFFCURVE",
"745 451 OFFCURVE",
"779 451 CURVE SMOOTH",
"813 451 OFFCURVE",
"843 442 OFFCURVE",
"863 418 CURVE SMOOTH",
"874 404 OFFCURVE",
"876 394 OFFCURVE",
"878 386 CURVE SMOOTH",
"879 378 OFFCURVE",
"880 373 OFFCURVE",
"890 370 CURVE",
"881 355 LINE",
"856 367 OFFCURVE",
"841 367 OFFCURVE",
"826 367 CURVE SMOOTH",
"702 367 LINE SMOOTH",
"687 367 OFFCURVE",
"672 367 OFFCURVE",
"643 355 CURVE"
);
}
);
width = 1070;
}
);
leftKerningGroup = c;
leftMetricsKey = o;
rightKerningGroup = o;
rightMetricsKey = e;
unicode = 0153;
},
{
color = 1;
glyphname = thorn;
lastChange = "2020-04-07 12:27:32 +0000";
layers = (
{
anchors = (
{
name = bottom;
position = "{235, -196}";
},
{
name = top;
position = "{370, 567}";
}
);
guideLines = (
{
angle = 270;
position = "{10, -236}";
}
);
layerId = "FD6EB2BB-8839-4CDB-86BF-4EEAE3F02079";
paths = (
{
closed = 1;
nodes = (
"146 -196 LINE",
"182 6 LINE SMOOTH",
"186 27 OFFCURVE",
"184 40 OFFCURVE",
"174 56 CURVE",
"190 66 LINE",
"218 5 OFFCURVE",
"262 -12 OFFCURVE",
"324 -12 CURVE SMOOTH",
"469 -12 OFFCURVE",
"592 110 OFFCURVE",
"623 283 CURVE SMOOTH",
"654 457 OFFCURVE",
"573 579 OFFCURVE",
"428 579 CURVE SMOOTH",
"366 579 OFFCURVE",
"316 562 OFFCURVE",
"266 501 CURVE",
"254 511 LINE",
"270 527 OFFCURVE",
"276 540 OFFCURVE",
"280 561 CURVE SMOOTH",
"316 763 LINE",
"148 763 LINE",
"-22 -196 LINE"
);
},
{
closed = 1;
nodes = (
"228 131 OFFCURVE",
"189 192 OFFCURVE",
"205 283 CURVE SMOOTH",
"221 375 OFFCURVE",
"282 436 OFFCURVE",
"356 436 CURVE SMOOTH",
"431 436 OFFCURVE",
"469 373 OFFCURVE",
"453 283 CURVE SMOOTH",
"437 194 OFFCURVE",
"377 131 OFFCURVE",
"302 131 CURVE SMOOTH"
);
}
);
width = 661;
},
{
anchors = (
{
name = bottom;
position = "{240, -210}";
},
{
name = top;
position = "{364, 553}";
}
);
guideLines = (
{
position = "{100, -230}";
}
);
layerId = "11907447-A26F-432E-A335-7727E0303767";
paths = (
{
closed = 1;
nodes = (
"80 -210 LINE",
"124 36 LINE SMOOTH",
"127 55 OFFCURVE",
"126 66 OFFCURVE",
"119 78 CURVE",
"135 87 LINE",
"173 19 OFFCURVE",
"212 -10 OFFCURVE",
"296 -10 CURVE SMOOTH",
"445 -10 OFFCURVE",
"563 107 OFFCURVE",
"593 277 CURVE SMOOTH",
"623 446 OFFCURVE",
"547 563 OFFCURVE",
"398 563 CURVE SMOOTH",
"314 563 OFFCURVE",
"263 534 OFFCURVE",
"201 466 CURVE",
"189 475 LINE",
"200 487 OFFCURVE",
"205 498 OFFCURVE",
"208 517 CURVE SMOOTH",
"252 763 LINE",
"167 763 LINE",
"-5 -210 LINE"
);
},
{
closed = 1;
nodes = (
"199 65 OFFCURVE",
"141 154 OFFCURVE",
"163 277 CURVE SMOOTH",
"185 399 OFFCURVE",
"273 488 OFFCURVE",
"376 488 CURVE SMOOTH",
"480 488 OFFCURVE",
"529 397 OFFCURVE",
"508 277 CURVE SMOOTH",
"487 156 OFFCURVE",
"406 65 OFFCURVE",
"302 65 CURVE SMOOTH"
);
}
);
width = 646;
},
{
anchors = (
{
name = bottom;
position = "{223, -214}";
},
{
name = top;
position = "{357, 549}";
}
);
guideLines = (
{
position = "{474, -228}";
}
);
layerId = "2F4EEC1B-9E89-4E08-AD53-AB625B6E887D";
paths = (
{
closed = 1;
nodes = (
"58 -214 LINE",
"104 48 LINE SMOOTH",
"108 70 OFFCURVE",
"107 81 OFFCURVE",
"100 95 CURVE",
"116 103 LINE",
"153 24 OFFCURVE",
"215 -10 OFFCURVE",
"290 -10 CURVE SMOOTH",
"433 -10 OFFCURVE",
"551 108 OFFCURVE",
"580 275 CURVE SMOOTH",
"609 441 OFFCURVE",
"533 559 OFFCURVE",
"390 559 CURVE SMOOTH",
"315 559 OFFCURVE",
"241 525 OFFCURVE",
"176 446 CURVE",
"164 454 LINE",
"175 468 OFFCURVE",
"180 479 OFFCURVE",
"184 501 CURVE SMOOTH",
"230 763 LINE",
"165 763 LINE",
"-7 -214 LINE"
);
},
{
closed = 1;
nodes = (
"183 48 OFFCURVE",
"119 145 OFFCURVE",
"142 275 CURVE SMOOTH",
"165 404 OFFCURVE",
"263 501 OFFCURVE",
"374 501 CURVE SMOOTH",
"486 501 OFFCURVE",
"538 403 OFFCURVE",
"515 275 CURVE SMOOTH",
"492 146 OFFCURVE",
"406 48 OFFCURVE",
"294 48 CURVE SMOOTH"
);
}
);
width = 632;
}
);
leftKerningGroup = b;
leftMetricsKey = p;
note = thorn;
rightKerningGroup = b;
rightMetricsKey = p;
unicode = 00FE;
},
{
color = 1;
glyphname = q;
lastChange = "2020-04-16 06:51:33 +0000";
layers = (
{
anchors = (
{
name = bottom;
position = "{292, 0}";
},
{
name = top;
position = "{392, 567}";
}
);
guideLines = (
{
position = "{533, -196}";
}
);
layerId = "FD6EB2BB-8839-4CDB-86BF-4EEAE3F02079";
paths = (
{
closed = 1;
nodes = (
"589 -196 LINE",
"614 -59 LINE",
"573 -59 LINE SMOOTH",
"563 -59 OFFCURVE",
"544 -57 OFFCURVE",
"544 -34 CURVE SMOOTH",
"544 -31 OFFCURVE",
"544 -28 OFFCURVE",
"545 -24 CURVE SMOOTH",
"649 567 LINE",
"481 567 LINE",
"480 561 LINE SMOOTH",
"479 554 OFFCURVE",
"478 549 OFFCURVE",
"478 543 CURVE SMOOTH",
"478 531 OFFCURVE",
"481 522 OFFCURVE",
"488 511 CURVE",
"472 501 LINE",
"444 562 OFFCURVE",
"400 579 OFFCURVE",
"338 579 CURVE SMOOTH",
"160 579 OFFCURVE",
"32 398 OFFCURVE",
"32 212 CURVE SMOOTH",
"32 78 OFFCURVE",
"110 -12 OFFCURVE",
"234 -12 CURVE SMOOTH",
"296 -12 OFFCURVE",
"346 5 OFFCURVE",
"396 66 CURVE",
"408 56 LINE",
"392 40 OFFCURVE",
"386 27 OFFCURVE",
"382 6 CURVE SMOOTH",
"366 -83 LINE SMOOTH",
"365 -92 OFFCURVE",
"364 -100 OFFCURVE",
"364 -107 CURVE SMOOTH",
"364 -164 OFFCURVE",
"403 -196 OFFCURVE",
"476 -196 CURVE SMOOTH"
);
},
{
closed = 1;
nodes = (
"242 131 OFFCURVE",
"205 176 OFFCURVE",
"205 244 CURVE SMOOTH",
"205 338 OFFCURVE",
"265 436 OFFCURVE",
"360 436 CURVE SMOOTH",
"423 436 OFFCURVE",
"461 392 OFFCURVE",
"461 322 CURVE SMOOTH",
"461 228 OFFCURVE",
"401 131 OFFCURVE",
"306 131 CURVE SMOOTH"
);
}
);
width = 669;
},
{
anchors = (
{
name = bottom;
position = "{281, 0}";
},
{
name = top;
position = "{379, 553}";
}
);
guideLines = (
{
position = "{92, -230}";
},
{
position = "{536, -210}";
}
);
layerId = "11907447-A26F-432E-A335-7727E0303767";
paths = (
{
closed = 1;
nodes = (
"585 -210 LINE",
"599 -132 LINE",
"550 -132 LINE SMOOTH",
"516 -132 OFFCURVE",
"500 -122 OFFCURVE",
"500 -98 CURVE SMOOTH",
"500 -95 OFFCURVE",
"500 -91 OFFCURVE",
"501 -86 CURVE SMOOTH",
"614 553 LINE",
"529 553 LINE",
"522 517 LINE SMOOTH",
"521 510 OFFCURVE",
"520 505 OFFCURVE",
"520 500 CURVE SMOOTH",
"520 490 OFFCURVE",
"522 483 OFFCURVE",
"527 475 CURVE",
"511 466 LINE",
"473 534 OFFCURVE",
"434 563 OFFCURVE",
"350 563 CURVE SMOOTH",
"169 563 OFFCURVE",
"47 392 OFFCURVE",
"47 207 CURVE SMOOTH",
"47 76 OFFCURVE",
"121 -10 OFFCURVE",
"248 -10 CURVE SMOOTH",
"332 -10 OFFCURVE",
"383 19 OFFCURVE",
"445 87 CURVE",
"457 78 LINE",
"446 66 OFFCURVE",
"443 63 OFFCURVE",
"438 36 CURVE SMOOTH",
"417 -79 LINE SMOOTH",
"414 -94 OFFCURVE",
"413 -107 OFFCURVE",
"413 -119 CURVE SMOOTH",
"413 -183 OFFCURVE",
"451 -210 OFFCURVE",
"536 -210 CURVE SMOOTH"
);
},
{
closed = 1;
nodes = (
"182 65 OFFCURVE",
"133 130 OFFCURVE",
"133 224 CURVE SMOOTH",
"133 353 OFFCURVE",
"217 488 OFFCURVE",
"344 488 CURVE SMOOTH",
"432 488 OFFCURVE",
"488 422 OFFCURVE",
"488 326 CURVE SMOOTH",
"488 198 OFFCURVE",
"398 65 OFFCURVE",
"270 65 CURVE SMOOTH"
);
}
);
width = 646;
},
{
anchors = (
{
name = bottom;
position = "{277, 0}";
},
{
name = top;
position = "{373, 549}";
}
);
guideLines = (
{
position = "{470, -228}";
},
{
position = "{541, -214}";
}
);
layerId = "2F4EEC1B-9E89-4E08-AD53-AB625B6E887D";
paths = (
{
closed = 1;
nodes = (
"581 -214 LINE",
"591 -155 LINE",
"555 -155 LINE SMOOTH",
"511 -155 OFFCURVE",
"490 -144 OFFCURVE",
"490 -101 CURVE SMOOTH",
"490 -90 OFFCURVE",
"491 -77 OFFCURVE",
"494 -61 CURVE SMOOTH",
"601 549 LINE",
"536 549 LINE",
"530 511 LINE SMOOTH",
"529 503 OFFCURVE",
"527 494 OFFCURVE",
"527 480 CURVE SMOOTH",
"527 472 OFFCURVE",
"528 463 OFFCURVE",
"529 451 CURVE",
"516 446 LINE",
"479 525 OFFCURVE",
"417 559 OFFCURVE",
"342 559 CURVE SMOOTH",
"169 559 OFFCURVE",
"46 387 OFFCURVE",
"46 207 CURVE SMOOTH",
"46 77 OFFCURVE",
"119 -10 OFFCURVE",
"242 -10 CURVE SMOOTH",
"317 -10 OFFCURVE",
"391 24 OFFCURVE",
"456 103 CURVE",
"468 95 LINE",
"457 81 OFFCURVE",
"452 70 OFFCURVE",
"448 48 CURVE SMOOTH",
"427 -71 LINE SMOOTH",
"424 -87 OFFCURVE",
"423 -101 OFFCURVE",
"423 -114 CURVE SMOOTH",
"423 -185 OFFCURVE",
"463 -214 OFFCURVE",
"541 -214 CURVE SMOOTH"
);
},
{
closed = 1;
nodes = (
"163 48 OFFCURVE",
"112 118 OFFCURVE",
"112 217 CURVE SMOOTH",
"112 357 OFFCURVE",
"202 501 OFFCURVE",
"338 501 CURVE SMOOTH",
"434 501 OFFCURVE",
"495 429 OFFCURVE",
"495 326 CURVE SMOOTH",
"495 185 OFFCURVE",
"392 48 OFFCURVE",
"258 48 CURVE SMOOTH"
);
}
);
width = 633;
}
);
leftKerningGroup = q;
leftMetricsKey = d;
note = q;
rightKerningGroup = q;
unicode = 0071;
},
{
color = 1;
glyphname = r;
lastChange = "2020-04-07 12:27:31 +0000";
layers = (
{
anchors = (
{
name = bottom;
position = "{94, 0}";
},
{
name = top;
position = "{241, 567}";
}
);
background = {
components = (
{
name = p;
transform = "{1, 0, 0, 1, -1, 0}";
}
);
};
layerId = "FD6EB2BB-8839-4CDB-86BF-4EEAE3F02079";
paths = (
{
closed = 1;
nodes = (
"178 0 LINE",
"220 239 LINE SMOOTH",
"234 316 OFFCURVE",
"255 361 OFFCURVE",
"289 389 CURVE SMOOTH",
"312 408 OFFCURVE",
"343 419 OFFCURVE",
"390 419 CURVE SMOOTH",
"422 419 LINE",
"450 579 LINE",
"425 579 LINE SMOOTH",
"363 579 OFFCURVE",
"313 562 OFFCURVE",
"263 501 CURVE",
"251 511 LINE",
"267 527 OFFCURVE",
"273 540 OFFCURVE",
"277 561 CURVE SMOOTH",
"278 567 LINE",
"110 567 LINE",
"10 0 LINE"
);
}
);
width = 419;
},
{
anchors = (
{
name = bottom;
position = "{71, 0}";
},
{
name = top;
position = "{224, 553}";
}
);
background = {
components = (
{
name = p;
transform = "{1, 0, 0, 1, -2, 0}";
}
);
};
layerId = "11907447-A26F-432E-A335-7727E0303767";
paths = (
{
closed = 1;
nodes = (
"113 0 LINE",
"165 291 LINE SMOOTH",
"177 360 OFFCURVE",
"202 407 OFFCURVE",
"239 438 CURVE SMOOTH",
"270 464 OFFCURVE",
"309 478 OFFCURVE",
"354 478 CURVE SMOOTH",
"383 478 LINE",
"398 563 LINE",
"394 563 LINE SMOOTH",
"310 563 OFFCURVE",
"254 533 OFFCURVE",
"197 466 CURVE",
"185 475 LINE",
"196 487 OFFCURVE",
"201 498 OFFCURVE",
"204 517 CURVE SMOOTH",
"211 553 LINE",
"126 553 LINE",
"28 0 LINE"
);
}
);
width = 375;
},
{
anchors = (
{
name = bottom;
position = "{63, 0}";
},
{
name = top;
position = "{214, 549}";
}
);
background = {
components = (
{
name = p;
transform = "{1, 0, 0, 1, -1, 0}";
}
);
};
layerId = "2F4EEC1B-9E89-4E08-AD53-AB625B6E887D";
paths = (
{
closed = 1;
nodes = (
"95 0 LINE",
"142 268 LINE SMOOTH",
"156 350 OFFCURVE",
"179 407 OFFCURVE",
"218 447 CURVE SMOOTH",
"250 480 OFFCURVE",
"292 495 OFFCURVE",
"344 495 CURVE SMOOTH",
"369 495 LINE",
"380 559 LINE",
"362 559 LINE SMOOTH",
"280 559 OFFCURVE",
"222 525 OFFCURVE",
"175 446 CURVE",
"163 454 LINE",
"174 468 OFFCURVE",
"179 479 OFFCURVE",
"183 501 CURVE SMOOTH",
"191 549 LINE",
"126 549 LINE",
"30 0 LINE"
);
}
);
width = 355;
}
);
leftKerningGroup = i;
leftMetricsKey = m;
note = r;
rightKerningGroup = r;
unicode = 0072;
},
{
color = 1;
glyphname = s;
lastChange = "2020-04-07 12:27:31 +0000";
layers = (
{
anchors = (
{
name = bottom;
position = "{246, 0}";
},
{
name = top;
position = "{346, 567}";
}
);
layerId = "FD6EB2BB-8839-4CDB-86BF-4EEAE3F02079";
paths = (
{
closed = 1;
nodes = (
"412 -12 OFFCURVE",
"540 52 OFFCURVE",
"540 189 CURVE SMOOTH",
"540 304 OFFCURVE",
"448 330 OFFCURVE",
"373 345 CURVE SMOOTH",
"311 357 OFFCURVE",
"235 364 OFFCURVE",
"235 404 CURVE SMOOTH",
"235 433 OFFCURVE",
"268 453 OFFCURVE",
"312 453 CURVE SMOOTH",
"355 453 OFFCURVE",
"394 433 OFFCURVE",
"401 379 CURVE",
"560 379 LINE",
"552 508 OFFCURVE",
"463 579 OFFCURVE",
"325 579 CURVE SMOOTH",
"183 579 OFFCURVE",
"74 508 OFFCURVE",
"74 387 CURVE SMOOTH",
"74 284 OFFCURVE",
"151 252 OFFCURVE",
"224 235 CURVE SMOOTH",
"297 218 OFFCURVE",
"371 214 OFFCURVE",
"371 173 CURVE SMOOTH",
"371 137 OFFCURVE",
"334 115 OFFCURVE",
"286 115 CURVE SMOOTH",
"228 115 OFFCURVE",
"189 139 OFFCURVE",
"180 196 CURVE",
"17 196 LINE",
"8 38 OFFCURVE",
"132 -12 OFFCURVE",
"279 -12 CURVE SMOOTH"
);
}
);
width = 593;
},
{
anchors = (
{
name = bottom;
position = "{233, 0}";
},
{
name = top;
position = "{331, 553}";
}
);
layerId = "11907447-A26F-432E-A335-7727E0303767";
paths = (
{
closed = 1;
nodes = (
"392 -10 OFFCURVE",
"492 71 OFFCURVE",
"492 189 CURVE SMOOTH",
"492 259 OFFCURVE",
"443 297 OFFCURVE",
"320 321 CURVE SMOOTH",
"206 344 OFFCURVE",
"177 360 OFFCURVE",
"177 399 CURVE SMOOTH",
"177 454 OFFCURVE",
"227 488 OFFCURVE",
"307 488 CURVE SMOOTH",
"385 488 OFFCURVE",
"430 453 OFFCURVE",
"434 387 CURVE",
"513 387 LINE",
"514 497 OFFCURVE",
"441 563 OFFCURVE",
"321 563 CURVE SMOOTH",
"187 563 OFFCURVE",
"89 485 OFFCURVE",
"89 377 CURVE SMOOTH",
"89 312 OFFCURVE",
"136 277 OFFCURVE",
"257 252 CURVE SMOOTH",
"372 227 OFFCURVE",
"404 208 OFFCURVE",
"404 164 CURVE SMOOTH",
"404 105 OFFCURVE",
"347 65 OFFCURVE",
"261 65 CURVE SMOOTH",
"170 65 OFFCURVE",
"120 104 OFFCURVE",
"118 178 CURVE",
"29 178 LINE",
"27 60 OFFCURVE",
"108 -10 OFFCURVE",
"246 -10 CURVE SMOOTH"
);
}
);
width = 561;
},
{
anchors = (
{
name = bottom;
position = "{226, 0}";
},
{
name = top;
position = "{322, 549}";
}
);
layerId = "2F4EEC1B-9E89-4E08-AD53-AB625B6E887D";
paths = (
{
closed = 1;
nodes = (
"371 -10 OFFCURVE",
"478 62 OFFCURVE",
"478 182 CURVE SMOOTH",
"478 274 OFFCURVE",
"387 296 OFFCURVE",
"305 313 CURVE SMOOTH",
"227 329 OFFCURVE",
"157 343 OFFCURVE",
"157 399 CURVE SMOOTH",
"157 465 OFFCURVE",
"223 501 OFFCURVE",
"304 501 CURVE SMOOTH",
"386 501 OFFCURVE",
"434 462 OFFCURVE",
"433 389 CURVE",
"498 389 LINE",
"499 492 OFFCURVE",
"433 559 OFFCURVE",
"314 559 CURVE SMOOTH",
"194 559 OFFCURVE",
"90 492 OFFCURVE",
"90 381 CURVE SMOOTH",
"90 297 OFFCURVE",
"174 277 OFFCURVE",
"258 259 CURVE SMOOTH",
"336 243 OFFCURVE",
"410 228 OFFCURVE",
"410 163 CURVE SMOOTH",
"410 90 OFFCURVE",
"340 48 OFFCURVE",
"251 48 CURVE SMOOTH",
"142 48 OFFCURVE",
"94 96 OFFCURVE",
"96 173 CURVE",
"30 173 LINE",
"24 59 OFFCURVE",
"99 -10 OFFCURVE",
"238 -10 CURVE SMOOTH"
);
}
);
width = 546;
}
);
leftKerningGroup = s;
note = s;
rightKerningGroup = s;
unicode = 0073;
},
{
color = 1;
glyphname = germandbls;
lastChange = "2020-04-06 10:22:30 +0000";
layers = (
{
anchors = (
{
name = bottom;
position = "{282, 0}";
},
{
name = top;
position = "{416, 763}";
}
);
guideLines = (
{
angle = 90;
position = "{314, 401}";
}
);
layerId = "2F4EEC1B-9E89-4E08-AD53-AB625B6E887D";
paths = (
{
closed = 1;
nodes = (
"98 0 LINE",
"183 482 LINE SMOOTH",
"211 641 OFFCURVE",
"298 715 OFFCURVE",
"424 715 CURVE SMOOTH",
"522 715 OFFCURVE",
"577 675 OFFCURVE",
"577 603 CURVE SMOOTH",
"577 507 OFFCURVE",
"509 433 OFFCURVE",
"404 433 CURVE SMOOTH",
"297 433 LINE",
"287 375 LINE",
"411 375 LINE SMOOTH",
"467 375 OFFCURVE",
"554 357 OFFCURVE",
"554 254 CURVE SMOOTH",
"554 125 OFFCURVE",
"463 58 OFFCURVE",
"328 58 CURVE SMOOTH",
"231 58 LINE",
"221 0 LINE",
"325 0 LINE SMOOTH",
"498 0 OFFCURVE",
"619 96 OFFCURVE",
"619 265 CURVE SMOOTH",
"619 316 OFFCURVE",
"603 356 OFFCURVE",
"570 382 CURVE SMOOTH",
"557 392 OFFCURVE",
"540 401 OFFCURVE",
"500 407 CURVE",
"502 418 LINE",
"543 428 OFFCURVE",
"562 442 OFFCURVE",
"578 457 CURVE SMOOTH",
"618 497 OFFCURVE",
"644 560 OFFCURVE",
"644 616 CURVE SMOOTH",
"644 706 OFFCURVE",
"571 773 OFFCURVE",
"434 773 CURVE SMOOTH",
"247 773 OFFCURVE",
"149 660 OFFCURVE",
"118 482 CURVE SMOOTH",
"33 0 LINE"
);
}
);
width = 665;
},
{
anchors = (
{
name = bottom;
position = "{285, 0}";
},
{
name = top;
position = "{420, 763}";
}
);
guideLines = (
{
angle = 90;
position = "{339, 397}";
}
);
layerId = "11907447-A26F-432E-A335-7727E0303767";
paths = (
{
closed = 1;
nodes = (
"117 0 LINE",
"204 493 LINE SMOOTH",
"230 638 OFFCURVE",
"317 698 OFFCURVE",
"423 698 CURVE SMOOTH",
"514 698 OFFCURVE",
"568 654 OFFCURVE",
"568 591 CURVE SMOOTH",
"568 503 OFFCURVE",
"502 439 OFFCURVE",
"404 439 CURVE SMOOTH",
"326 439 LINE",
"312 364 LINE",
"406 364 LINE SMOOTH",
"492 364 OFFCURVE",
"546 328 OFFCURVE",
"546 252 CURVE SMOOTH",
"546 139 OFFCURVE",
"460 75 OFFCURVE",
"333 75 CURVE SMOOTH",
"261 75 LINE",
"248 0 LINE",
"329 0 LINE SMOOTH",
"505 0 OFFCURVE",
"632 94 OFFCURVE",
"632 267 CURVE SMOOTH",
"632 315 OFFCURVE",
"618 353 OFFCURVE",
"587 379 CURVE SMOOTH",
"573 391 OFFCURVE",
"557 400 OFFCURVE",
"515 407 CURVE",
"517 418 LINE",
"560 430 OFFCURVE",
"580 444 OFFCURVE",
"597 462 CURVE SMOOTH",
"631 500 OFFCURVE",
"657 561 OFFCURVE",
"657 611 CURVE SMOOTH",
"657 702 OFFCURVE",
"579 773 OFFCURVE",
"437 773 CURVE SMOOTH",
"262 773 OFFCURVE",
"151 671 OFFCURVE",
"119 493 CURVE SMOOTH",
"32 0 LINE"
);
}
);
width = 676;
},
{
anchors = (
{
name = bottom;
position = "{295, 0}";
},
{
name = top;
position = "{430, 763}";
}
);
guideLines = (
{
angle = 90;
position = "{357, 387}";
}
);
layerId = "FD6EB2BB-8839-4CDB-86BF-4EEAE3F02079";
paths = (
{
closed = 1;
nodes = (
"187 0 LINE",
"272 482 LINE SMOOTH",
"288 572 OFFCURVE",
"345 625 OFFCURVE",
"427 625 CURVE SMOOTH",
"483 625 OFFCURVE",
"514 599 OFFCURVE",
"514 557 CURVE SMOOTH",
"514 491 OFFCURVE",
"462 456 OFFCURVE",
"388 456 CURVE SMOOTH",
"351 456 LINE",
"327 320 LINE",
"396 320 LINE SMOOTH",
"462 320 OFFCURVE",
"500 300 OFFCURVE",
"500 256 CURVE SMOOTH",
"500 187 OFFCURVE",
"442 150 OFFCURVE",
"358 150 CURVE SMOOTH",
"297 150 LINE",
"271 0 LINE",
"342 0 LINE SMOOTH",
"510 0 OFFCURVE",
"668 79 OFFCURVE",
"668 271 CURVE SMOOTH",
"668 317 OFFCURVE",
"654 351 OFFCURVE",
"624 375 CURVE SMOOTH",
"605 390 OFFCURVE",
"580 401 OFFCURVE",
"549 408 CURVE",
"551 420 LINE",
"584 429 OFFCURVE",
"610 443 OFFCURVE",
"630 462 CURVE SMOOTH",
"666 494 OFFCURVE",
"688 552 OFFCURVE",
"688 602 CURVE SMOOTH",
"688 687 OFFCURVE",
"623 775 OFFCURVE",
"452 775 CURVE SMOOTH",
"264 775 OFFCURVE",
"138 674 OFFCURVE",
"102 472 CURVE SMOOTH",
"19 0 LINE"
);
}
);
width = 698;
}
);
leftKerningGroup = B;
rightKerningGroup = B;
unicode = 00DF;
},
{
color = 1;
glyphname = t;
lastChange = "2020-04-07 12:27:31 +0000";
layers = (
{
anchors = (
{
name = bottom;
position = "{176, 0}";
},
{
name = center;
position = "{206, 284}";
},
{
name = top;
position = "{267, 763}";
},
{
name = topright;
position = "{365, 756}";
}
);
layerId = "FD6EB2BB-8839-4CDB-86BF-4EEAE3F02079";
paths = (
{
closed = 1;
nodes = (
"313 0 LINE",
"337 136 LINE",
"274 136 LINE SMOOTH",
"245 136 OFFCURVE",
"243 154 OFFCURVE",
"246 170 CURVE SMOOTH",
"293 436 LINE",
"391 436 LINE",
"414 567 LINE",
"316 567 LINE",
"351 763 LINE",
"183 763 LINE",
"148 567 LINE",
"70 567 LINE",
"47 436 LINE",
"125 436 LINE",
"68 113 LINE SMOOTH",
"55 41 OFFCURVE",
"96 0 OFFCURVE",
"179 0 CURVE SMOOTH"
);
}
);
width = 404;
},
{
anchors = (
{
name = bottom;
position = "{155, 0}";
},
{
name = center;
position = "{184, 277}";
},
{
name = top;
position = "{244, 763}";
},
{
name = topright;
position = "{319, 690}";
}
);
layerId = "11907447-A26F-432E-A335-7727E0303767";
paths = (
{
closed = 1;
nodes = (
"274 0 LINE",
"287 75 LINE",
"230 75 LINE SMOOTH",
"168 75 OFFCURVE",
"170 107 OFFCURVE",
"179 156 CURVE SMOOTH",
"236 478 LINE",
"360 478 LINE",
"373 553 LINE",
"249 553 LINE",
"286 763 LINE",
"201 763 LINE",
"164 553 LINE",
"75 553 LINE",
"62 478 LINE",
"151 478 LINE",
"91 139 LINE SMOOTH",
"71 28 OFFCURVE",
"114 0 OFFCURVE",
"197 0 CURVE SMOOTH"
);
}
);
width = 366;
},
{
anchors = (
{
name = bottom;
position = "{145, 0}";
},
{
name = center;
position = "{173, 275}";
},
{
name = top;
position = "{232, 763}";
},
{
name = topright;
position = "{301, 679}";
}
);
layerId = "2F4EEC1B-9E89-4E08-AD53-AB625B6E887D";
paths = (
{
closed = 1;
nodes = (
"258 0 LINE",
"268 58 LINE",
"213 58 LINE SMOOTH",
"146 58 OFFCURVE",
"145 88 OFFCURVE",
"156 151 CURVE SMOOTH",
"216 491 LINE",
"345 491 LINE",
"355 549 LINE",
"226 549 LINE",
"264 763 LINE",
"199 763 LINE",
"161 549 LINE",
"72 549 LINE",
"62 491 LINE",
"151 491 LINE",
"89 138 LINE SMOOTH",
"70 28 OFFCURVE",
"105 0 OFFCURVE",
"188 0 CURVE SMOOTH"
);
}
);
width = 345;
}
);
leftKerningGroup = t;
note = t;
rightKerningGroup = t;
unicode = 0074;
},
{
color = 1;
glyphname = u;
lastChange = "2020-04-07 12:27:31 +0000";
layers = (
{
anchors = (
{
name = bottom;
position = "{263, 0}";
},
{
name = ogonek;
position = "{520, 0}";
},
{
name = top;
position = "{363, 567}";
},
{
name = topright;
position = "{655, 567}";
}
);
layerId = "FD6EB2BB-8839-4CDB-86BF-4EEAE3F02079";
paths = (
{
closed = 1;
nodes = (
"267 -12 OFFCURVE",
"317 5 OFFCURVE",
"367 66 CURVE",
"379 56 LINE",
"363 40 OFFCURVE",
"357 27 OFFCURVE",
"353 6 CURVE SMOOTH",
"352 0 LINE",
"520 0 LINE",
"620 567 LINE",
"452 567 LINE",
"396 248 LINE SMOOTH",
"387 199 OFFCURVE",
"375 171 OFFCURVE",
"358 152 CURVE SMOOTH",
"338 132 OFFCURVE",
"313 123 OFFCURVE",
"278 123 CURVE SMOOTH",
"250 123 OFFCURVE",
"231 129 OFFCURVE",
"219 144 CURVE SMOOTH",
"212 154 OFFCURVE",
"208 169 OFFCURVE",
"208 190 CURVE SMOOTH",
"208 205 OFFCURVE",
"210 224 OFFCURVE",
"214 248 CURVE SMOOTH",
"270 567 LINE",
"102 567 LINE",
"46 250 LINE SMOOTH",
"38 205 OFFCURVE",
"32 171 OFFCURVE",
"32 139 CURVE SMOOTH",
"32 121 OFFCURVE",
"34 104 OFFCURVE",
"39 86 CURVE SMOOTH",
"53 34 OFFCURVE",
"93 -12 OFFCURVE",
"205 -12 CURVE SMOOTH"
);
}
);
width = 631;
},
{
anchors = (
{
name = bottom;
position = "{239, 0}";
},
{
name = ogonek;
position = "{457, 0}";
},
{
name = top;
position = "{337, 553}";
},
{
name = topright;
position = "{606, 553}";
}
);
layerId = "11907447-A26F-432E-A335-7727E0303767";
paths = (
{
closed = 1;
nodes = (
"273 -10 OFFCURVE",
"324 19 OFFCURVE",
"386 87 CURVE",
"398 78 LINE",
"387 66 OFFCURVE",
"382 55 OFFCURVE",
"379 36 CURVE SMOOTH",
"372 0 LINE",
"457 0 LINE",
"555 553 LINE",
"470 553 LINE",
"428 317 LINE SMOOTH",
"408 204 OFFCURVE",
"384 144 OFFCURVE",
"341 106 CURVE SMOOTH",
"314 81 OFFCURVE",
"278 65 OFFCURVE",
"233 65 CURVE SMOOTH",
"195 65 OFFCURVE",
"168 75 OFFCURVE",
"153 96 CURVE SMOOTH",
"142 112 OFFCURVE",
"137 133 OFFCURVE",
"137 161 CURVE SMOOTH",
"137 178 OFFCURVE",
"139 198 OFFCURVE",
"143 220 CURVE SMOOTH",
"202 553 LINE",
"117 553 LINE",
"58 220 LINE SMOOTH",
"54 199 OFFCURVE",
"50 171 OFFCURVE",
"50 141 CURVE SMOOTH",
"50 120 OFFCURVE",
"52 98 OFFCURVE",
"59 77 CURVE SMOOTH",
"77 26 OFFCURVE",
"119 -10 OFFCURVE",
"206 -10 CURVE SMOOTH"
);
}
);
width = 583;
},
{
anchors = (
{
name = bottom;
position = "{234, 0}";
},
{
name = ogonek;
position = "{442, 0}";
},
{
name = top;
position = "{330, 549}";
},
{
name = topright;
position = "{589, 549}";
}
);
layerId = "2F4EEC1B-9E89-4E08-AD53-AB625B6E887D";
paths = (
{
closed = 1;
nodes = (
"277 -10 OFFCURVE",
"338 24 OFFCURVE",
"393 103 CURVE",
"405 95 LINE",
"394 81 OFFCURVE",
"389 70 OFFCURVE",
"385 48 CURVE SMOOTH",
"377 0 LINE",
"442 0 LINE",
"538 549 LINE",
"473 549 LINE",
"435 332 LINE SMOOTH",
"413 206 OFFCURVE",
"379 136 OFFCURVE",
"332 93 CURVE SMOOTH",
"300 64 OFFCURVE",
"261 48 OFFCURVE",
"219 48 CURVE SMOOTH",
"174 48 OFFCURVE",
"143 65 OFFCURVE",
"128 99 CURVE SMOOTH",
"121 114 OFFCURVE",
"118 134 OFFCURVE",
"118 156 CURVE SMOOTH",
"118 172 OFFCURVE",
"120 190 OFFCURVE",
"123 209 CURVE SMOOTH",
"183 549 LINE",
"118 549 LINE",
"59 212 LINE SMOOTH",
"55 192 OFFCURVE",
"51 167 OFFCURVE",
"51 141 CURVE SMOOTH",
"51 119 OFFCURVE",
"54 96 OFFCURVE",
"62 74 CURVE SMOOTH",
"82 23 OFFCURVE",
"127 -10 OFFCURVE",
"195 -10 CURVE SMOOTH"
);
}
);
width = 567;
}
);
leftKerningGroup = u;
note = u;
rightKerningGroup = u;
unicode = 0075;
},
{
color = 1;
glyphname = v;
lastChange = "2020-04-07 12:27:31 +0000";
layers = (
{
anchors = (
{
name = bottom;
position = "{232, 0}";
},
{
name = top;
position = "{332, 567}";
}
);
guideLines = (
{
position = "{298, 334}";
}
);
layerId = "FD6EB2BB-8839-4CDB-86BF-4EEAE3F02079";
paths = (
{
closed = 1;
nodes = (
"298 0 LINE",
"608 567 LINE",
"420 567 LINE",
"297 316 LINE SMOOTH",
"276 274 OFFCURVE",
"273 245 OFFCURVE",
"264 211 CURVE",
"252 211 LINE",
"255 245 OFFCURVE",
"261 274 OFFCURVE",
"256 316 CURVE SMOOTH",
"224 567 LINE",
"56 567 LINE",
"165 0 LINE"
);
}
);
width = 572;
},
{
anchors = (
{
name = bottom;
position = "{211, 0}";
},
{
name = top;
position = "{309, 553}";
}
);
guideLines = (
{
position = "{242, 226}";
}
);
layerId = "11907447-A26F-432E-A335-7727E0303767";
paths = (
{
closed = 1;
nodes = (
"245 0 LINE",
"548 553 LINE",
"449 553 LINE",
"273 226 LINE SMOOTH",
"251 185 OFFCURVE",
"244 157 OFFCURVE",
"231 120 CURVE",
"219 120 LINE",
"220 157 OFFCURVE",
"222 185 OFFCURVE",
"215 226 CURVE SMOOTH",
"157 553 LINE",
"69 553 LINE",
"175 0 LINE"
);
}
);
width = 527;
},
{
anchors = (
{
name = bottom;
position = "{203, 0}";
},
{
name = top;
position = "{299, 549}";
}
);
guideLines = (
{
position = "{212, 170}";
}
);
layerId = "2F4EEC1B-9E89-4E08-AD53-AB625B6E887D";
paths = (
{
closed = 1;
nodes = (
"230 0 LINE",
"529 549 LINE",
"455 549 LINE",
"258 170 LINE SMOOTH",
"247 149 OFFCURVE",
"235 127 OFFCURVE",
"219 76 CURVE",
"206 76 LINE",
"208 127 OFFCURVE",
"204 149 OFFCURVE",
"201 170 CURVE SMOOTH",
"136 549 LINE",
"69 549 LINE",
"176 0 LINE"
);
}
);
width = 509;
}
);
leftKerningGroup = v;
note = v;
rightKerningGroup = v;
unicode = 0076;
},
{
color = 1;
glyphname = w;
lastChange = "2020-04-15 13:08:50 +0000";
layers = (
{
anchors = (
{
name = bottom;
position = "{378, 0}";
},
{
name = top;
position = "{478, 567}";
}
);
guideLines = (
{
position = "{274, 277}";
}
);
layerId = "FD6EB2BB-8839-4CDB-86BF-4EEAE3F02079";
paths = (
{
closed = 1;
nodes = (
"295 0 LINE",
"394 259 LINE SMOOTH",
"409 297 OFFCURVE",
"416 318 OFFCURVE",
"424 349 CURVE",
"436 349 LINE",
"432 318 OFFCURVE",
"430 297 OFFCURVE",
"434 259 CURVE SMOOTH",
"459 0 LINE",
"618 0 LINE",
"899 567 LINE",
"711 567 LINE",
"589 277 LINE SMOOTH",
"580 255 OFFCURVE",
"574 232 OFFCURVE",
"566 199 CURVE",
"554 199 LINE",
"558 232 OFFCURVE",
"560 255 OFFCURVE",
"559 277 CURVE SMOOTH",
"539 567 LINE",
"395 567 LINE",
"274 277 LINE SMOOTH",
"264 254 OFFCURVE",
"259 231 OFFCURVE",
"251 198 CURVE",
"239 198 LINE",
"243 231 OFFCURVE",
"245 255 OFFCURVE",
"244 277 CURVE SMOOTH",
"227 567 LINE",
"58 567 LINE",
"135 0 LINE"
);
}
);
width = 865;
},
{
anchors = (
{
name = bottom;
position = "{360, 0}";
},
{
name = top;
position = "{458, 553}";
}
);
guideLines = (
{
position = "{445, 375}";
},
{
position = "{208, 203}";
}
);
layerId = "11907447-A26F-432E-A335-7727E0303767";
paths = (
{
closed = 1;
nodes = (
"216 0 LINE",
"402 375 LINE SMOOTH",
"418 406 OFFCURVE",
"421 421 OFFCURVE",
"429 454 CURVE",
"441 454 LINE",
"437 421 OFFCURVE",
"435 406 OFFCURVE",
"440 375 CURVE SMOOTH",
"502 0 LINE",
"581 0 LINE",
"843 553 LINE",
"747 553 LINE",
"584 198 LINE SMOOTH",
"570 166 OFFCURVE",
"566 146 OFFCURVE",
"558 113 CURVE",
"545 113 LINE",
"549 146 OFFCURVE",
"552 167 OFFCURVE",
"547 198 CURVE SMOOTH",
"491 553 LINE",
"414 553 LINE",
"232 198 LINE SMOOTH",
"216 166 OFFCURVE",
"212 146 OFFCURVE",
"204 113 CURVE",
"191 113 LINE",
"195 146 OFFCURVE",
"199 166 OFFCURVE",
"195 198 CURVE SMOOTH",
"159 553 LINE",
"73 553 LINE",
"137 0 LINE"
);
}
);
width = 826;
},
{
anchors = (
{
name = bottom;
position = "{352, 0}";
},
{
name = top;
position = "{448, 549}";
}
);
guideLines = (
{
position = "{472, 411}";
},
{
position = "{156, 158}";
}
);
layerId = "2F4EEC1B-9E89-4E08-AD53-AB625B6E887D";
paths = (
{
closed = 1;
nodes = (
"195 0 LINE",
"404 411 LINE SMOOTH",
"414 431 OFFCURVE",
"419 442 OFFCURVE",
"424 463 CURVE",
"437 463 LINE",
"436 442 OFFCURVE",
"436 431 OFFCURVE",
"439 411 CURVE SMOOTH",
"508 0 LINE",
"569 0 LINE",
"824 549 LINE",
"753 549 LINE",
"576 158 LINE SMOOTH",
"566 135 OFFCURVE",
"562 121 OFFCURVE",
"555 98 CURVE",
"542 98 LINE",
"543 121 OFFCURVE",
"543 136 OFFCURVE",
"539 158 CURVE SMOOTH",
"475 549 LINE",
"415 549 LINE",
"213 158 LINE SMOOTH",
"203 136 OFFCURVE",
"197 121 OFFCURVE",
"190 98 CURVE",
"177 98 LINE",
"178 121 OFFCURVE",
"178 135 OFFCURVE",
"176 158 CURVE SMOOTH",
"138 549 LINE",
"73 549 LINE",
"135 0 LINE"
);
}
);
width = 809;
}
);
leftKerningGroup = w;
note = w;
rightKerningGroup = w;
unicode = 0077;
},
{
color = 1;
glyphname = x;
lastChange = "2020-04-07 12:27:31 +0000";
layers = (
{
anchors = (
{
name = bottom;
position = "{263, 0}";
},
{
name = top;
position = "{363, 567}";
}
);
guideLines = (
{
position = "{365, 457}";
},
{
position = "{245, 116}";
}
);
layerId = "FD6EB2BB-8839-4CDB-86BF-4EEAE3F02079";
paths = (
{
closed = 1;
nodes = (
"168 0 LINE",
"261 121 LINE SMOOTH",
"277 142 OFFCURVE",
"286 157 OFFCURVE",
"296 181 CURVE",
"310 181 LINE",
"312 157 OFFCURVE",
"315 142 OFFCURVE",
"324 121 CURVE SMOOTH",
"376 0 LINE",
"558 0 LINE",
"417 287 LINE",
"659 567 LINE",
"455 567 LINE",
"364 452 LINE SMOOTH",
"348 431 OFFCURVE",
"337 416 OFFCURVE",
"327 392 CURVE",
"313 392 LINE",
"311 416 OFFCURVE",
"307 432 OFFCURVE",
"298 452 CURVE SMOOTH",
"248 567 LINE",
"68 567 LINE",
"207 287 LINE",
"-31 0 LINE"
);
}
);
width = 625;
},
{
anchors = (
{
name = bottom;
position = "{238, 0}";
},
{
name = top;
position = "{336, 553}";
}
);
guideLines = (
{
position = "{324, 378}";
},
{
position = "{250, 168}";
}
);
layerId = "11907447-A26F-432E-A335-7727E0303767";
paths = (
{
closed = 1;
nodes = (
"84 0 LINE",
"233 168 LINE SMOOTH",
"250 188 OFFCURVE",
"264 207 OFFCURVE",
"271 231 CURVE",
"285 231 LINE",
"285 207 OFFCURVE",
"291 188 OFFCURVE",
"302 168 CURVE SMOOTH",
"391 0 LINE",
"493 0 LINE",
"340 277 LINE",
"591 553 LINE",
"489 553 LINE",
"340 385 LINE SMOOTH",
"323 365 OFFCURVE",
"309 346 OFFCURVE",
"301 322 CURVE",
"287 322 LINE",
"288 346 OFFCURVE",
"282 365 OFFCURVE",
"271 385 CURVE SMOOTH",
"182 553 LINE",
"81 553 LINE",
"231 277 LINE",
"-17 0 LINE"
);
}
);
width = 574;
},
{
anchors = (
{
name = bottom;
position = "{229, 0}";
},
{
name = top;
position = "{325, 549}";
}
);
guideLines = (
{
position = "{319, 378}";
},
{
position = "{247, 172}";
}
);
layerId = "2F4EEC1B-9E89-4E08-AD53-AB625B6E887D";
paths = (
{
closed = 1;
nodes = (
"65 0 LINE",
"220 172 LINE SMOOTH",
"241 195 OFFCURVE",
"254 214 OFFCURVE",
"268 242 CURVE",
"282 242 LINE",
"286 214 OFFCURVE",
"293 195 OFFCURVE",
"306 172 CURVE SMOOTH",
"402 0 LINE",
"476 0 LINE",
"318 276 LINE",
"571 549 LINE",
"487 549 LINE",
"332 378 LINE SMOOTH",
"311 355 OFFCURVE",
"298 336 OFFCURVE",
"284 308 CURVE",
"270 308 LINE",
"266 336 OFFCURVE",
"258 355 OFFCURVE",
"245 378 CURVE SMOOTH",
"150 549 LINE",
"78 549 LINE",
"234 276 LINE",
"-18 0 LINE"
);
}
);
width = 554;
}
);
leftKerningGroup = x;
note = x;
rightKerningGroup = x;
unicode = 0078;
},
{
color = 1;
glyphname = y;
lastChange = "2020-04-15 13:11:04 +0000";
layers = (
{
anchors = (
{
name = bottom;
position = "{245, 0}";
},
{
name = top;
position = "{340, 567}";
}
);
guideLines = (
{
position = "{286, 247}";
},
{
position = "{-47, -225}";
},
{
position = "{-24, -88}";
}
);
layerId = "FD6EB2BB-8839-4CDB-86BF-4EEAE3F02079";
paths = (
{
closed = 1;
nodes = (
"78 -225 LINE SMOOTH",
"187 -225 OFFCURVE",
"245 -178 OFFCURVE",
"303 -65 CURVE SMOOTH",
"625 567 LINE",
"436 567 LINE",
"303 247 LINE SMOOTH",
"292 222 OFFCURVE",
"286 206 OFFCURVE",
"279 180 CURVE",
"267 180 LINE",
"268 206 OFFCURVE",
"268 222 OFFCURVE",
"266 247 CURVE SMOOTH",
"237 567 LINE",
"65 567 LINE",
"165 -8 LINE",
"141 -48 LINE SMOOTH",
"120 -83 OFFCURVE",
"95 -88 OFFCURVE",
"67 -88 CURVE SMOOTH",
"1 -88 LINE",
"-23 -225 LINE"
);
}
);
width = 591;
},
{
anchors = (
{
name = bottom;
position = "{235, 0}";
},
{
name = top;
position = "{333, 553}";
}
);
guideLines = (
{
position = "{259, 180}";
},
{
position = "{-61, -230}";
},
{
position = "{-42, -152}";
}
);
layerId = "11907447-A26F-432E-A335-7727E0303767";
paths = (
{
closed = 1;
nodes = (
"67 -230 LINE SMOOTH",
"133 -230 OFFCURVE",
"170 -212 OFFCURVE",
"214 -131 CURVE SMOOTH",
"587 553 LINE",
"489 553 LINE",
"287 180 LINE SMOOTH",
"275 158 OFFCURVE",
"270 144 OFFCURVE",
"262 120 CURVE",
"249 120 LINE",
"250 144 OFFCURVE",
"250 158 OFFCURVE",
"245 180 CURVE SMOOTH",
"165 553 LINE",
"77 553 LINE",
"197 8 LINE",
"142 -94 LINE SMOOTH",
"113 -148 OFFCURVE",
"95 -152 OFFCURVE",
"50 -152 CURVE SMOOTH",
"-2 -152 LINE",
"-15 -230 LINE"
);
}
);
width = 566;
},
{
anchors = (
{
name = bottom;
position = "{231, 0}";
},
{
name = top;
position = "{327, 549}";
}
);
guideLines = (
{
position = "{245, 149}";
},
{
position = "{-77, -228}";
},
{
position = "{-60, -169}";
}
);
layerId = "2F4EEC1B-9E89-4E08-AD53-AB625B6E887D";
paths = (
{
closed = 1;
nodes = (
"71 -228 LINE SMOOTH",
"105 -228 OFFCURVE",
"156 -220 OFFCURVE",
"201 -137 CURVE SMOOTH",
"575 549 LINE",
"499 549 LINE",
"285 149 LINE SMOOTH",
"272 125 OFFCURVE",
"266 109 OFFCURVE",
"257 84 CURVE",
"244 84 LINE",
"245 109 OFFCURVE",
"244 126 OFFCURVE",
"238 149 CURVE SMOOTH",
"144 549 LINE",
"76 549 LINE",
"208 5 LINE",
"142 -115 LINE SMOOTH",
"118 -159 OFFCURVE",
"98 -169 OFFCURVE",
"52 -169 CURVE SMOOTH",
"-8 -169 LINE",
"-19 -228 LINE"
);
}
);
width = 555;
}
);
leftKerningGroup = y;
note = y;
rightKerningGroup = v;
unicode = 0079;
},
{
color = 1;
glyphname = z;
lastChange = "2020-04-07 12:27:31 +0000";
layers = (
{
anchors = (
{
name = bottom;
position = "{243, 0}";
},
{
name = center;
position = "{293, 284}";
},
{
name = top;
position = "{343, 567}";
}
);
guideLines = (
{
angle = 270;
position = "{286, 162}";
},
{
angle = 270;
position = "{302, 405}";
}
);
layerId = "FD6EB2BB-8839-4CDB-86BF-4EEAE3F02079";
paths = (
{
closed = 1;
nodes = (
"492 0 LINE",
"515 132 LINE",
"302 132 LINE SMOOTH",
"285 132 OFFCURVE",
"269 132 OFFCURVE",
"231 122 CURVE",
"227 134 LINE",
"271 166 OFFCURVE",
"293 187 OFFCURVE",
"316 209 CURVE SMOOTH",
"573 458 LINE",
"592 567 LINE",
"101 567 LINE",
"78 435 LINE",
"286 435 LINE SMOOTH",
"303 435 OFFCURVE",
"319 435 OFFCURVE",
"357 445 CURVE",
"360 433 LINE",
"317 402 OFFCURVE",
"294 380 OFFCURVE",
"272 359 CURVE SMOOTH",
"3 101 LINE",
"-15 0 LINE"
);
}
);
width = 580;
},
{
anchors = (
{
name = bottom;
position = "{227, 0}";
},
{
name = center;
position = "{276, 277}";
},
{
name = top;
position = "{325, 553}";
}
);
guideLines = (
{
angle = 270;
position = "{155, 104}";
},
{
angle = 270;
position = "{401, 452}";
}
);
layerId = "11907447-A26F-432E-A335-7727E0303767";
paths = (
{
closed = 1;
nodes = (
"453 0 LINE",
"466 75 LINE",
"180 75 LINE SMOOTH",
"153 75 OFFCURVE",
"134 71 OFFCURVE",
"108 59 CURVE",
"104 71 LINE",
"148 103 OFFCURVE",
"170 125 OFFCURVE",
"193 147 CURVE SMOOTH",
"540 473 LINE",
"554 553 LINE",
"110 553 LINE",
"97 478 LINE",
"375 478 LINE SMOOTH",
"402 478 OFFCURVE",
"420 481 OFFCURVE",
"447 494 CURVE",
"451 482 LINE",
"407 450 OFFCURVE",
"385 429 OFFCURVE",
"362 407 CURVE SMOOTH",
"6 72 LINE",
"-7 0 LINE"
);
}
);
width = 550;
},
{
anchors = (
{
name = bottom;
position = "{218, 0}";
},
{
name = center;
position = "{266, 275}";
},
{
name = top;
position = "{314, 549}";
}
);
guideLines = (
{
angle = 270;
position = "{112, 72}";
},
{
angle = 270;
position = "{418, 467}";
}
);
layerId = "2F4EEC1B-9E89-4E08-AD53-AB625B6E887D";
paths = (
{
closed = 1;
nodes = (
"437 0 LINE",
"447 58 LINE",
"145 58 LINE SMOOTH",
"118 58 OFFCURVE",
"91 52 OFFCURVE",
"72 42 CURVE",
"68 54 LINE",
"113 86 OFFCURVE",
"135 109 OFFCURVE",
"158 131 CURVE SMOOTH",
"526 485 LINE",
"537 549 LINE",
"105 549 LINE",
"95 491 LINE",
"388 491 LINE SMOOTH",
"415 491 OFFCURVE",
"432 494 OFFCURVE",
"461 507 CURVE",
"465 495 LINE",
"420 463 OFFCURVE",
"398 440 OFFCURVE",
"375 418 CURVE SMOOTH",
"0 59 LINE",
"-10 0 LINE"
);
}
);
width = 530;
}
);
leftKerningGroup = z;
note = z;
rightKerningGroup = z;
unicode = 007A;
},
{
color = 1;
glyphname = s_a_u_c_e_l_o_g_o.liga;
lastChange = "2020-04-06 10:56:40 +0000";
layers = (
{
layerId = "FD6EB2BB-8839-4CDB-86BF-4EEAE3F02079";
paths = (
{
closed = 1;
nodes = (
"752 0 LINE SMOOTH",
"758 0 OFFCURVE",
"763 4 OFFCURVE",
"764 10 CURVE SMOOTH",
"895 753 LINE SMOOTH",
"896 759 OFFCURVE",
"893 763 OFFCURVE",
"887 763 CURVE SMOOTH",
"143 763 LINE SMOOTH",
"137 763 OFFCURVE",
"133 759 OFFCURVE",
"132 753 CURVE SMOOTH",
"1 10 LINE SMOOTH",
"0 4 OFFCURVE",
"2 0 OFFCURVE",
"8 0 CURVE SMOOTH"
);
},
{
closed = 1;
nodes = (
"417 339 OFFCURVE",
"400 359 OFFCURVE",
"404 382 CURVE SMOOTH",
"408 404 OFFCURVE",
"432 424 OFFCURVE",
"455 424 CURVE SMOOTH",
"468 424 OFFCURVE",
"479 419 OFFCURVE",
"484 409 CURVE",
"478 403 LINE",
"472 411 OFFCURVE",
"463 416 OFFCURVE",
"453 416 CURVE SMOOTH",
"435 416 OFFCURVE",
"417 400 OFFCURVE",
"413 382 CURVE SMOOTH",
"410 363 OFFCURVE",
"423 347 OFFCURVE",
"441 347 CURVE SMOOTH",
"451 347 OFFCURVE",
"462 352 OFFCURVE",
"469 360 CURVE",
"474 354 LINE",
"466 344 OFFCURVE",
"453 339 OFFCURVE",
"440 339 CURVE SMOOTH"
);
},
{
closed = 1;
nodes = (
"133 79 OFFCURVE",
"119 84 OFFCURVE",
"110 95 CURVE SMOOTH",
"101 107 OFFCURVE",
"98 121 OFFCURVE",
"101 136 CURVE SMOOTH",
"104 151 OFFCURVE",
"111 166 OFFCURVE",
"124 176 CURVE SMOOTH",
"175 221 OFFCURVE",
"215 186 OFFCURVE",
"352 306 CURVE SMOOTH",
"383 333 LINE SMOOTH",
"389 339 OFFCURVE",
"389 343 OFFCURVE",
"388 349 CURVE SMOOTH",
"385 355 OFFCURVE",
"384 361 OFFCURVE",
"383 366 CURVE SMOOTH",
"382 373 OFFCURVE",
"378 377 OFFCURVE",
"372 377 CURVE SMOOTH",
"336 377 LINE SMOOTH",
"229 377 OFFCURVE",
"218 345 OFFCURVE",
"179 345 CURVE SMOOTH",
"160 345 OFFCURVE",
"146 362 OFFCURVE",
"149 382 CURVE SMOOTH",
"153 401 OFFCURVE",
"173 419 OFFCURVE",
"192 419 CURVE SMOOTH",
"231 419 OFFCURVE",
"231 387 OFFCURVE",
"338 387 CURVE SMOOTH",
"374 387 LINE SMOOTH",
"380 387 OFFCURVE",
"385 391 OFFCURVE",
"388 398 CURVE SMOOTH",
"391 403 OFFCURVE",
"394 409 OFFCURVE",
"398 414 CURVE SMOOTH",
"401 417 OFFCURVE",
"402 420 OFFCURVE",
"402 422 CURVE SMOOTH",
"403 425 OFFCURVE",
"402 427 OFFCURVE",
"400 430 CURVE SMOOTH",
"378 455 LINE SMOOTH",
"279 572 OFFCURVE",
"232 541 OFFCURVE",
"197 585 CURVE SMOOTH",
"188 596 OFFCURVE",
"186 611 OFFCURVE",
"188 626 CURVE SMOOTH",
"191 641 OFFCURVE",
"199 656 OFFCURVE",
"213 668 CURVE SMOOTH",
"226 678 OFFCURVE",
"241 684 OFFCURVE",
"256 684 CURVE SMOOTH",
"272 684 OFFCURVE",
"285 678 OFFCURVE",
"293 668 CURVE SMOOTH",
"330 624 OFFCURVE",
"288 579 OFFCURVE",
"387 462 CURVE SMOOTH",
"408 438 LINE SMOOTH",
"412 433 OFFCURVE",
"418 432 OFFCURVE",
"425 436 CURVE SMOOTH",
"431 440 OFFCURVE",
"437 441 OFFCURVE",
"443 443 CURVE SMOOTH",
"449 445 OFFCURVE",
"454 449 OFFCURVE",
"455 456 CURVE SMOOTH",
"462 492 LINE SMOOTH",
"480 598 OFFCURVE",
"451 604 OFFCURVE",
"457 643 CURVE SMOOTH",
"461 662 OFFCURVE",
"481 679 OFFCURVE",
"501 679 CURVE SMOOTH",
"520 679 OFFCURVE",
"534 662 OFFCURVE",
"530 643 CURVE SMOOTH",
"524 604 OFFCURVE",
"491 598 OFFCURVE",
"473 492 CURVE SMOOTH",
"466 456 LINE SMOOTH",
"465 449 OFFCURVE",
"468 445 OFFCURVE",
"474 443 CURVE SMOOTH",
"480 441 OFFCURVE",
"485 439 OFFCURVE",
"490 436 CURVE SMOOTH",
"493 434 OFFCURVE",
"495 434 OFFCURVE",
"497 434 CURVE SMOOTH",
"501 434 OFFCURVE",
"504 435 OFFCURVE",
"506 438 CURVE SMOOTH",
"535 462 LINE SMOOTH",
"674 580 OFFCURVE",
"650 624 OFFCURVE",
"703 668 CURVE SMOOTH",
"715 678 OFFCURVE",
"729 683 OFFCURVE",
"745 683 CURVE SMOOTH",
"760 683 OFFCURVE",
"775 678 OFFCURVE",
"784 667 CURVE SMOOTH",
"793 656 OFFCURVE",
"796 641 OFFCURVE",
"793 626 CURVE SMOOTH",
"791 611 OFFCURVE",
"782 597 OFFCURVE",
"769 585 CURVE SMOOTH",
"718 541 OFFCURVE",
"681 573 OFFCURVE",
"542 455 CURVE SMOOTH",
"512 429 LINE SMOOTH",
"508 426 OFFCURVE",
"507 423 OFFCURVE",
"506 421 CURVE SMOOTH",
"506 419 OFFCURVE",
"506 416 OFFCURVE",
"508 413 CURVE SMOOTH",
"510 408 OFFCURVE",
"511 403 OFFCURVE",
"512 398 CURVE SMOOTH",
"513 391 OFFCURVE",
"516 387 OFFCURVE",
"522 387 CURVE SMOOTH",
"558 387 LINE SMOOTH",
"665 387 OFFCURVE",
"677 419 OFFCURVE",
"716 419 CURVE SMOOTH",
"735 419 OFFCURVE",
"749 401 OFFCURVE",
"745 382 CURVE SMOOTH",
"742 362 OFFCURVE",
"722 345 OFFCURVE",
"703 345 CURVE SMOOTH",
"664 345 OFFCURVE",
"663 377 OFFCURVE",
"556 377 CURVE SMOOTH",
"520 377 LINE SMOOTH",
"514 377 OFFCURVE",
"510 373 OFFCURVE",
"507 366 CURVE SMOOTH",
"504 360 OFFCURVE",
"500 354 OFFCURVE",
"496 348 CURVE SMOOTH",
"494 345 OFFCURVE",
"492 342 OFFCURVE",
"492 341 CURVE SMOOTH",
"492 338 OFFCURVE",
"492 335 OFFCURVE",
"495 332 CURVE SMOOTH",
"516 306 LINE SMOOTH",
"613 188 OFFCURVE",
"663 221 OFFCURVE",
"698 176 CURVE SMOOTH",
"707 166 OFFCURVE",
"710 151 OFFCURVE",
"707 136 CURVE SMOOTH",
"704 121 OFFCURVE",
"697 106 OFFCURVE",
"683 94 CURVE SMOOTH",
"671 84 OFFCURVE",
"655 79 OFFCURVE",
"639 79 CURVE SMOOTH",
"624 79 OFFCURVE",
"611 84 OFFCURVE",
"602 94 CURVE SMOOTH",
"565 138 OFFCURVE",
"604 181 OFFCURVE",
"507 299 CURVE SMOOTH",
"485 325 LINE SMOOTH",
"483 328 OFFCURVE",
"480 329 OFFCURVE",
"477 329 CURVE SMOOTH",
"475 329 OFFCURVE",
"472 328 OFFCURVE",
"468 326 CURVE SMOOTH",
"464 323 OFFCURVE",
"459 322 OFFCURVE",
"452 320 CURVE SMOOTH",
"446 318 OFFCURVE",
"441 314 OFFCURVE",
"440 307 CURVE SMOOTH",
"434 271 LINE SMOOTH",
"415 165 OFFCURVE",
"445 159 OFFCURVE",
"438 120 CURVE SMOOTH",
"435 101 OFFCURVE",
"415 84 OFFCURVE",
"395 84 CURVE SMOOTH",
"376 84 OFFCURVE",
"362 101 OFFCURVE",
"365 120 CURVE SMOOTH",
"372 159 OFFCURVE",
"404 165 OFFCURVE",
"423 271 CURVE SMOOTH",
"429 307 LINE SMOOTH",
"430 314 OFFCURVE",
"427 318 OFFCURVE",
"421 320 CURVE SMOOTH",
"416 321 OFFCURVE",
"410 323 OFFCURVE",
"405 326 CURVE SMOOTH",
"403 328 OFFCURVE",
"400 329 OFFCURVE",
"397 329 CURVE SMOOTH",
"394 329 OFFCURVE",
"392 328 OFFCURVE",
"388 325 CURVE SMOOTH",
"359 299 LINE SMOOTH",
"222 179 OFFCURVE",
"243 138 OFFCURVE",
"192 94 CURVE SMOOTH",
"180 84 OFFCURVE",
"164 79 OFFCURVE",
"149 79 CURVE SMOOTH"
);
},
{
closed = 1;
nodes = (
"468 327 OFFCURVE",
"496 352 OFFCURVE",
"501 382 CURVE SMOOTH",
"506 411 OFFCURVE",
"487 436 OFFCURVE",
"457 436 CURVE SMOOTH",
"428 436 OFFCURVE",
"398 411 OFFCURVE",
"393 382 CURVE SMOOTH",
"388 352 OFFCURVE",
"409 327 OFFCURVE",
"438 327 CURVE SMOOTH"
);
}
);
width = 897;
},
{
layerId = "11907447-A26F-432E-A335-7727E0303767";
paths = (
{
closed = 1;
nodes = (
"773 0 LINE SMOOTH",
"779 0 OFFCURVE",
"784 4 OFFCURVE",
"785 10 CURVE SMOOTH",
"916 753 LINE SMOOTH",
"917 759 OFFCURVE",
"914 763 OFFCURVE",
"908 763 CURVE SMOOTH",
"164 763 LINE SMOOTH",
"158 763 OFFCURVE",
"154 759 OFFCURVE",
"153 753 CURVE SMOOTH",
"22 10 LINE SMOOTH",
"21 4 OFFCURVE",
"23 0 OFFCURVE",
"29 0 CURVE SMOOTH"
);
},
{
closed = 1;
nodes = (
"438 339 OFFCURVE",
"422 359 OFFCURVE",
"426 382 CURVE SMOOTH",
"429 404 OFFCURVE",
"453 424 OFFCURVE",
"476 424 CURVE SMOOTH",
"489 424 OFFCURVE",
"500 419 OFFCURVE",
"505 409 CURVE",
"499 403 LINE",
"494 411 OFFCURVE",
"485 416 OFFCURVE",
"475 416 CURVE SMOOTH",
"457 416 OFFCURVE",
"438 400 OFFCURVE",
"435 382 CURVE SMOOTH",
"431 363 OFFCURVE",
"444 347 OFFCURVE",
"462 347 CURVE SMOOTH",
"472 347 OFFCURVE",
"483 352 OFFCURVE",
"491 360 CURVE",
"496 354 LINE",
"487 344 OFFCURVE",
"474 339 OFFCURVE",
"461 339 CURVE SMOOTH"
);
},
{
closed = 1;
nodes = (
"154 79 OFFCURVE",
"140 84 OFFCURVE",
"131 95 CURVE SMOOTH",
"122 107 OFFCURVE",
"120 121 OFFCURVE",
"122 136 CURVE SMOOTH",
"125 151 OFFCURVE",
"133 166 OFFCURVE",
"145 176 CURVE SMOOTH",
"196 221 OFFCURVE",
"236 186 OFFCURVE",
"373 306 CURVE SMOOTH",
"404 333 LINE SMOOTH",
"410 339 OFFCURVE",
"411 343 OFFCURVE",
"409 349 CURVE SMOOTH",
"406 355 OFFCURVE",
"405 361 OFFCURVE",
"404 366 CURVE SMOOTH",
"403 373 OFFCURVE",
"400 377 OFFCURVE",
"394 377 CURVE SMOOTH",
"358 377 LINE SMOOTH",
"251 377 OFFCURVE",
"239 345 OFFCURVE",
"200 345 CURVE SMOOTH",
"181 345 OFFCURVE",
"167 362 OFFCURVE",
"171 382 CURVE SMOOTH",
"174 401 OFFCURVE",
"194 419 OFFCURVE",
"213 419 CURVE SMOOTH",
"252 419 OFFCURVE",
"252 387 OFFCURVE",
"359 387 CURVE SMOOTH",
"395 387 LINE SMOOTH",
"401 387 OFFCURVE",
"406 391 OFFCURVE",
"409 398 CURVE SMOOTH",
"412 403 OFFCURVE",
"415 409 OFFCURVE",
"419 414 CURVE SMOOTH",
"422 417 OFFCURVE",
"423 420 OFFCURVE",
"424 422 CURVE SMOOTH",
"424 425 OFFCURVE",
"424 427 OFFCURVE",
"421 430 CURVE SMOOTH",
"399 455 LINE SMOOTH",
"300 572 OFFCURVE",
"254 541 OFFCURVE",
"218 585 CURVE SMOOTH",
"209 596 OFFCURVE",
"207 611 OFFCURVE",
"210 626 CURVE SMOOTH",
"212 641 OFFCURVE",
"220 656 OFFCURVE",
"234 668 CURVE SMOOTH",
"247 678 OFFCURVE",
"262 684 OFFCURVE",
"277 684 CURVE SMOOTH",
"293 684 OFFCURVE",
"306 678 OFFCURVE",
"314 668 CURVE SMOOTH",
"351 624 OFFCURVE",
"309 579 OFFCURVE",
"409 462 CURVE SMOOTH",
"429 438 LINE SMOOTH",
"434 433 OFFCURVE",
"439 432 OFFCURVE",
"446 436 CURVE SMOOTH",
"452 440 OFFCURVE",
"458 441 OFFCURVE",
"464 443 CURVE SMOOTH",
"471 445 OFFCURVE",
"475 449 OFFCURVE",
"477 456 CURVE SMOOTH",
"483 492 LINE SMOOTH",
"502 598 OFFCURVE",
"472 604 OFFCURVE",
"479 643 CURVE SMOOTH",
"482 662 OFFCURVE",
"502 679 OFFCURVE",
"522 679 CURVE SMOOTH",
"541 679 OFFCURVE",
"555 662 OFFCURVE",
"552 643 CURVE SMOOTH",
"545 604 OFFCURVE",
"513 598 OFFCURVE",
"494 492 CURVE SMOOTH",
"488 456 LINE SMOOTH",
"486 449 OFFCURVE",
"490 445 OFFCURVE",
"495 443 CURVE SMOOTH",
"501 441 OFFCURVE",
"507 439 OFFCURVE",
"511 436 CURVE SMOOTH",
"514 434 OFFCURVE",
"516 434 OFFCURVE",
"518 434 CURVE SMOOTH",
"522 434 OFFCURVE",
"525 435 OFFCURVE",
"527 438 CURVE SMOOTH",
"557 462 LINE SMOOTH",
"696 580 OFFCURVE",
"671 624 OFFCURVE",
"724 668 CURVE SMOOTH",
"736 678 OFFCURVE",
"751 683 OFFCURVE",
"767 683 CURVE SMOOTH",
"782 683 OFFCURVE",
"796 678 OFFCURVE",
"805 667 CURVE SMOOTH",
"814 656 OFFCURVE",
"817 641 OFFCURVE",
"815 626 CURVE SMOOTH",
"812 611 OFFCURVE",
"804 597 OFFCURVE",
"790 585 CURVE SMOOTH",
"740 541 OFFCURVE",
"702 573 OFFCURVE",
"563 455 CURVE SMOOTH",
"533 429 LINE SMOOTH",
"529 426 OFFCURVE",
"528 423 OFFCURVE",
"527 421 CURVE SMOOTH",
"527 419 OFFCURVE",
"528 416 OFFCURVE",
"529 413 CURVE SMOOTH",
"531 408 OFFCURVE",
"532 403 OFFCURVE",
"533 398 CURVE SMOOTH",
"534 391 OFFCURVE",
"537 387 OFFCURVE",
"543 387 CURVE SMOOTH",
"579 387 LINE SMOOTH",
"686 387 OFFCURVE",
"698 419 OFFCURVE",
"737 419 CURVE SMOOTH",
"756 419 OFFCURVE",
"770 401 OFFCURVE",
"767 382 CURVE SMOOTH",
"763 362 OFFCURVE",
"743 345 OFFCURVE",
"724 345 CURVE SMOOTH",
"685 345 OFFCURVE",
"685 377 OFFCURVE",
"578 377 CURVE SMOOTH",
"542 377 LINE SMOOTH",
"536 377 OFFCURVE",
"531 373 OFFCURVE",
"528 366 CURVE SMOOTH",
"526 360 OFFCURVE",
"522 354 OFFCURVE",
"518 348 CURVE SMOOTH",
"515 345 OFFCURVE",
"514 342 OFFCURVE",
"513 341 CURVE SMOOTH",
"513 338 OFFCURVE",
"513 335 OFFCURVE",
"516 332 CURVE SMOOTH",
"537 306 LINE SMOOTH",
"634 188 OFFCURVE",
"684 221 OFFCURVE",
"719 176 CURVE SMOOTH",
"729 166 OFFCURVE",
"731 151 OFFCURVE",
"728 136 CURVE SMOOTH",
"726 121 OFFCURVE",
"718 106 OFFCURVE",
"704 94 CURVE SMOOTH",
"692 84 OFFCURVE",
"676 79 OFFCURVE",
"660 79 CURVE SMOOTH",
"645 79 OFFCURVE",
"632 84 OFFCURVE",
"623 94 CURVE SMOOTH",
"587 138 OFFCURVE",
"625 181 OFFCURVE",
"528 299 CURVE SMOOTH",
"507 325 LINE SMOOTH",
"504 328 OFFCURVE",
"501 329 OFFCURVE",
"498 329 CURVE SMOOTH",
"496 329 OFFCURVE",
"493 328 OFFCURVE",
"490 326 CURVE SMOOTH",
"485 323 OFFCURVE",
"480 322 OFFCURVE",
"474 320 CURVE SMOOTH",
"467 318 OFFCURVE",
"463 314 OFFCURVE",
"461 307 CURVE SMOOTH",
"455 271 LINE SMOOTH",
"436 165 OFFCURVE",
"466 159 OFFCURVE",
"459 120 CURVE SMOOTH",
"456 101 OFFCURVE",
"436 84 OFFCURVE",
"416 84 CURVE SMOOTH",
"397 84 OFFCURVE",
"383 101 OFFCURVE",
"386 120 CURVE SMOOTH",
"393 159 OFFCURVE",
"425 165 OFFCURVE",
"444 271 CURVE SMOOTH",
"450 307 LINE SMOOTH",
"452 314 OFFCURVE",
"448 318 OFFCURVE",
"443 320 CURVE SMOOTH",
"437 321 OFFCURVE",
"431 323 OFFCURVE",
"427 326 CURVE SMOOTH",
"424 328 OFFCURVE",
"421 329 OFFCURVE",
"418 329 CURVE SMOOTH",
"415 329 OFFCURVE",
"413 328 OFFCURVE",
"410 325 CURVE SMOOTH",
"380 299 LINE SMOOTH",
"243 179 OFFCURVE",
"265 138 OFFCURVE",
"213 94 CURVE SMOOTH",
"201 84 OFFCURVE",
"185 79 OFFCURVE",
"170 79 CURVE SMOOTH"
);
},
{
closed = 1;
nodes = (
"489 327 OFFCURVE",
"517 352 OFFCURVE",
"523 382 CURVE SMOOTH",
"528 411 OFFCURVE",
"508 436 OFFCURVE",
"478 436 CURVE SMOOTH",
"449 436 OFFCURVE",
"420 411 OFFCURVE",
"415 382 CURVE SMOOTH",
"409 352 OFFCURVE",
"430 327 OFFCURVE",
"459 327 CURVE SMOOTH"
);
}
);
width = 938;
},
{
layerId = "2F4EEC1B-9E89-4E08-AD53-AB625B6E887D";
paths = (
{
closed = 1;
nodes = (
"773 0 LINE SMOOTH",
"779 0 OFFCURVE",
"783 4 OFFCURVE",
"784 10 CURVE SMOOTH",
"915 753 LINE SMOOTH",
"916 759 OFFCURVE",
"913 763 OFFCURVE",
"907 763 CURVE SMOOTH",
"163 763 LINE SMOOTH",
"157 763 OFFCURVE",
"153 759 OFFCURVE",
"152 753 CURVE SMOOTH",
"21 10 LINE SMOOTH",
"20 4 OFFCURVE",
"23 0 OFFCURVE",
"29 0 CURVE SMOOTH"
);
},
{
closed = 1;
nodes = (
"437 339 OFFCURVE",
"421 359 OFFCURVE",
"425 382 CURVE SMOOTH",
"429 404 OFFCURVE",
"452 424 OFFCURVE",
"475 424 CURVE SMOOTH",
"488 424 OFFCURVE",
"499 419 OFFCURVE",
"505 409 CURVE",
"499 403 LINE",
"493 411 OFFCURVE",
"484 416 OFFCURVE",
"474 416 CURVE SMOOTH",
"456 416 OFFCURVE",
"437 400 OFFCURVE",
"434 382 CURVE SMOOTH",
"431 363 OFFCURVE",
"444 347 OFFCURVE",
"462 347 CURVE SMOOTH",
"472 347 OFFCURVE",
"483 352 OFFCURVE",
"490 360 CURVE",
"495 354 LINE",
"486 344 OFFCURVE",
"473 339 OFFCURVE",
"460 339 CURVE SMOOTH"
);
},
{
closed = 1;
nodes = (
"154 79 OFFCURVE",
"139 84 OFFCURVE",
"130 95 CURVE SMOOTH",
"121 107 OFFCURVE",
"119 121 OFFCURVE",
"122 136 CURVE SMOOTH",
"124 151 OFFCURVE",
"132 166 OFFCURVE",
"145 176 CURVE SMOOTH",
"196 221 OFFCURVE",
"235 186 OFFCURVE",
"373 306 CURVE SMOOTH",
"403 333 LINE SMOOTH",
"409 339 OFFCURVE",
"410 343 OFFCURVE",
"408 349 CURVE SMOOTH",
"405 355 OFFCURVE",
"404 361 OFFCURVE",
"403 366 CURVE SMOOTH",
"402 373 OFFCURVE",
"399 377 OFFCURVE",
"393 377 CURVE SMOOTH",
"357 377 LINE SMOOTH",
"250 377 OFFCURVE",
"238 345 OFFCURVE",
"199 345 CURVE SMOOTH",
"180 345 OFFCURVE",
"166 362 OFFCURVE",
"170 382 CURVE SMOOTH",
"173 401 OFFCURVE",
"193 419 OFFCURVE",
"212 419 CURVE SMOOTH",
"251 419 OFFCURVE",
"252 387 OFFCURVE",
"359 387 CURVE SMOOTH",
"395 387 LINE SMOOTH",
"401 387 OFFCURVE",
"406 391 OFFCURVE",
"409 398 CURVE SMOOTH",
"412 403 OFFCURVE",
"415 409 OFFCURVE",
"419 414 CURVE SMOOTH",
"421 417 OFFCURVE",
"423 420 OFFCURVE",
"423 422 CURVE SMOOTH",
"424 425 OFFCURVE",
"423 427 OFFCURVE",
"420 430 CURVE SMOOTH",
"399 455 LINE SMOOTH",
"299 572 OFFCURVE",
"253 541 OFFCURVE",
"218 585 CURVE SMOOTH",
"209 596 OFFCURVE",
"206 611 OFFCURVE",
"209 626 CURVE SMOOTH",
"212 641 OFFCURVE",
"219 656 OFFCURVE",
"233 668 CURVE SMOOTH",
"246 678 OFFCURVE",
"261 684 OFFCURVE",
"276 684 CURVE SMOOTH",
"292 684 OFFCURVE",
"305 678 OFFCURVE",
"313 668 CURVE SMOOTH",
"351 624 OFFCURVE",
"309 579 OFFCURVE",
"408 462 CURVE SMOOTH",
"429 438 LINE SMOOTH",
"433 433 OFFCURVE",
"439 432 OFFCURVE",
"445 436 CURVE SMOOTH",
"451 440 OFFCURVE",
"457 441 OFFCURVE",
"464 443 CURVE SMOOTH",
"470 445 OFFCURVE",
"475 449 OFFCURVE",
"476 456 CURVE SMOOTH",
"482 492 LINE SMOOTH",
"501 598 OFFCURVE",
"471 604 OFFCURVE",
"478 643 CURVE SMOOTH",
"481 662 OFFCURVE",
"501 679 OFFCURVE",
"521 679 CURVE SMOOTH",
"540 679 OFFCURVE",
"554 662 OFFCURVE",
"551 643 CURVE SMOOTH",
"544 604 OFFCURVE",
"512 598 OFFCURVE",
"493 492 CURVE SMOOTH",
"487 456 LINE SMOOTH",
"486 449 OFFCURVE",
"489 445 OFFCURVE",
"495 443 CURVE SMOOTH",
"500 441 OFFCURVE",
"506 439 OFFCURVE",
"510 436 CURVE SMOOTH",
"513 434 OFFCURVE",
"515 434 OFFCURVE",
"517 434 CURVE SMOOTH",
"521 434 OFFCURVE",
"524 435 OFFCURVE",
"527 438 CURVE SMOOTH",
"556 462 LINE SMOOTH",
"695 580 OFFCURVE",
"671 624 OFFCURVE",
"723 668 CURVE SMOOTH",
"735 678 OFFCURVE",
"750 683 OFFCURVE",
"766 683 CURVE SMOOTH",
"781 683 OFFCURVE",
"795 678 OFFCURVE",
"804 667 CURVE SMOOTH",
"813 656 OFFCURVE",
"817 641 OFFCURVE",
"814 626 CURVE SMOOTH",
"811 611 OFFCURVE",
"803 597 OFFCURVE",
"790 585 CURVE SMOOTH",
"739 541 OFFCURVE",
"702 573 OFFCURVE",
"563 455 CURVE SMOOTH",
"532 429 LINE SMOOTH",
"529 426 OFFCURVE",
"527 423 OFFCURVE",
"527 421 CURVE SMOOTH",
"526 419 OFFCURVE",
"527 416 OFFCURVE",
"528 413 CURVE SMOOTH",
"531 408 OFFCURVE",
"532 403 OFFCURVE",
"533 398 CURVE SMOOTH",
"534 391 OFFCURVE",
"537 387 OFFCURVE",
"543 387 CURVE SMOOTH",
"579 387 LINE SMOOTH",
"686 387 OFFCURVE",
"697 419 OFFCURVE",
"736 419 CURVE SMOOTH",
"755 419 OFFCURVE",
"769 401 OFFCURVE",
"766 382 CURVE SMOOTH",
"762 362 OFFCURVE",
"742 345 OFFCURVE",
"723 345 CURVE SMOOTH",
"684 345 OFFCURVE",
"684 377 OFFCURVE",
"577 377 CURVE SMOOTH",
"541 377 LINE SMOOTH",
"535 377 OFFCURVE",
"530 373 OFFCURVE",
"527 366 CURVE SMOOTH",
"525 360 OFFCURVE",
"521 354 OFFCURVE",
"517 348 CURVE SMOOTH",
"514 345 OFFCURVE",
"513 342 OFFCURVE",
"513 341 CURVE SMOOTH",
"512 338 OFFCURVE",
"513 335 OFFCURVE",
"515 332 CURVE SMOOTH",
"537 306 LINE SMOOTH",
"634 188 OFFCURVE",
"684 221 OFFCURVE",
"719 176 CURVE SMOOTH",
"728 166 OFFCURVE",
"730 151 OFFCURVE",
"728 136 CURVE SMOOTH",
"725 121 OFFCURVE",
"717 106 OFFCURVE",
"703 94 CURVE SMOOTH",
"691 84 OFFCURVE",
"676 79 OFFCURVE",
"660 79 CURVE SMOOTH",
"645 79 OFFCURVE",
"631 84 OFFCURVE",
"622 94 CURVE SMOOTH",
"586 138 OFFCURVE",
"625 181 OFFCURVE",
"527 299 CURVE SMOOTH",
"506 325 LINE SMOOTH",
"503 328 OFFCURVE",
"501 329 OFFCURVE",
"498 329 CURVE SMOOTH",
"496 329 OFFCURVE",
"492 328 OFFCURVE",
"489 326 CURVE SMOOTH",
"485 323 OFFCURVE",
"479 322 OFFCURVE",
"473 320 CURVE SMOOTH",
"467 318 OFFCURVE",
"462 314 OFFCURVE",
"461 307 CURVE SMOOTH",
"454 271 LINE SMOOTH",
"436 165 OFFCURVE",
"466 159 OFFCURVE",
"459 120 CURVE SMOOTH",
"455 101 OFFCURVE",
"435 84 OFFCURVE",
"415 84 CURVE SMOOTH",
"396 84 OFFCURVE",
"382 101 OFFCURVE",
"386 120 CURVE SMOOTH",
"393 159 OFFCURVE",
"425 165 OFFCURVE",
"443 271 CURVE SMOOTH",
"450 307 LINE SMOOTH",
"451 314 OFFCURVE",
"448 318 OFFCURVE",
"442 320 CURVE SMOOTH",
"436 321 OFFCURVE",
"431 323 OFFCURVE",
"426 326 CURVE SMOOTH",
"423 328 OFFCURVE",
"421 329 OFFCURVE",
"418 329 CURVE SMOOTH",
"415 329 OFFCURVE",
"412 328 OFFCURVE",
"409 325 CURVE SMOOTH",
"379 299 LINE SMOOTH",
"242 179 OFFCURVE",
"264 138 OFFCURVE",
"212 94 CURVE SMOOTH",
"200 84 OFFCURVE",
"185 79 OFFCURVE",
"170 79 CURVE SMOOTH"
);
},
{
closed = 1;
nodes = (
"488 327 OFFCURVE",
"517 352 OFFCURVE",
"522 382 CURVE SMOOTH",
"527 411 OFFCURVE",
"507 436 OFFCURVE",
"477 436 CURVE SMOOTH",
"448 436 OFFCURVE",
"419 411 OFFCURVE",
"414 382 CURVE SMOOTH",
"409 352 OFFCURVE",
"429 327 OFFCURVE",
"458 327 CURVE SMOOTH"
);
}
);
width = 937;
}
);
leftMetricsKey = M;
note = h_d_c_o.liga;
rightMetricsKey = M;
},
{
glyphname = Delta;
lastChange = "2020-04-06 10:56:40 +0000";
layers = (
{
guideLines = (
{
position = "{271, 161}";
}
);
layerId = "2F4EEC1B-9E89-4E08-AD53-AB625B6E887D";
paths = (
{
closed = 1;
nodes = (
"613 0 LINE",
"459 763 LINE",
"379 763 LINE",
"-43 0 LINE"
);
},
{
closed = 1;
nodes = (
"50 63 LINE",
"88 102 OFFCURVE",
"104 132 OFFCURVE",
"120 161 CURVE SMOOTH",
"364 607 LINE SMOOTH",
"385 646 OFFCURVE",
"398 668 OFFCURVE",
"404 700 CURVE",
"420 700 LINE",
"414 668 OFFCURVE",
"421 646 OFFCURVE",
"428 607 CURVE SMOOTH",
"514 161 LINE SMOOTH",
"520 132 OFFCURVE",
"526 102 OFFCURVE",
"550 63 CURVE",
"540 51 LINE",
"504 61 OFFCURVE",
"479 65 OFFCURVE",
"442 65 CURVE SMOOTH",
"158 65 LINE SMOOTH",
"121 65 OFFCURVE",
"94 61 OFFCURVE",
"56 51 CURVE"
);
}
);
width = 691;
},
{
guideLines = (
{
position = "{273, 161}";
}
);
layerId = "11907447-A26F-432E-A335-7727E0303767";
paths = (
{
closed = 1;
nodes = (
"623 0 LINE",
"477 763 LINE",
"373 763 LINE",
"-43 0 LINE"
);
},
{
closed = 1;
nodes = (
"93 83 LINE",
"117 116 OFFCURVE",
"129 138 OFFCURVE",
"141 161 CURVE SMOOTH",
"375 598 LINE SMOOTH",
"388 623 OFFCURVE",
"401 647 OFFCURVE",
"407 679 CURVE",
"423 679 LINE",
"417 647 OFFCURVE",
"422 623 OFFCURVE",
"427 598 CURVE SMOOTH",
"507 161 LINE SMOOTH",
"511 138 OFFCURVE",
"515 116 OFFCURVE",
"527 83 CURVE",
"517 72 LINE",
"486 82 OFFCURVE",
"462 85 OFFCURVE",
"439 85 CURVE SMOOTH",
"181 85 LINE SMOOTH",
"158 85 OFFCURVE",
"134 82 OFFCURVE",
"99 72 CURVE"
);
}
);
width = 702;
},
{
guideLines = (
{
position = "{320, 216}";
}
);
layerId = "FD6EB2BB-8839-4CDB-86BF-4EEAE3F02079";
paths = (
{
closed = 1;
nodes = (
"660 0 LINE",
"534 763 LINE",
"340 763 LINE",
"-56 0 LINE"
);
},
{
closed = 1;
nodes = (
"211 156 LINE",
"230 183 OFFCURVE",
"238 199 OFFCURVE",
"246 216 CURVE SMOOTH",
"368 472 LINE SMOOTH",
"394 526 OFFCURVE",
"402 556 OFFCURVE",
"406 580 CURVE",
"422 580 LINE",
"418 558 OFFCURVE",
"416 526 OFFCURVE",
"422 472 CURVE SMOOTH",
"454 216 LINE SMOOTH",
"456 199 OFFCURVE",
"458 183 OFFCURVE",
"469 156 CURVE",
"458 145 LINE",
"433 155 OFFCURVE",
"417 155 OFFCURVE",
"401 155 CURVE SMOOTH",
"277 155 LINE SMOOTH",
"261 155 OFFCURVE",
"245 155 OFFCURVE",
"218 145 CURVE"
);
}
);
width = 726;
}
);
leftMetricsKey = A;
rightMetricsKey = A;
unicode = 0394;
},
{
color = 1;
glyphname = pi;
lastChange = "2020-04-06 10:19:49 +0000";
layers = (
{
layerId = "FD6EB2BB-8839-4CDB-86BF-4EEAE3F02079";
paths = (
{
closed = 1;
nodes = (
"182 0 LINE",
"256 422 LINE",
"372 422 LINE",
"322 135 LINE SMOOTH",
"306 48 OFFCURVE",
"351 0 OFFCURVE",
"452 0 CURVE SMOOTH",
"540 0 LINE",
"563 131 LINE",
"515 131 LINE SMOOTH",
"492 131 OFFCURVE",
"483 139 OFFCURVE",
"487 163 CURVE SMOOTH",
"532 422 LINE",
"614 422 LINE",
"640 567 LINE",
"63 567 LINE",
"37 422 LINE",
"95 422 LINE",
"21 0 LINE"
);
}
);
width = 576;
},
{
layerId = "11907447-A26F-432E-A335-7727E0303767";
paths = (
{
closed = 1;
nodes = (
"106 0 LINE",
"191 478 LINE",
"366 478 LINE",
"305 136 LINE SMOOTH",
"286 28 OFFCURVE",
"329 0 OFFCURVE",
"412 0 CURVE SMOOTH",
"468 0 LINE",
"481 75 LINE",
"441 75 LINE SMOOTH",
"388 75 OFFCURVE",
"382 88 OFFCURVE",
"395 163 CURVE SMOOTH",
"451 478 LINE",
"553 478 LINE",
"566 553 LINE",
"42 553 LINE",
"29 478 LINE",
"106 478 LINE",
"21 0 LINE"
);
}
);
width = 597;
},
{
layerId = "2F4EEC1B-9E89-4E08-AD53-AB625B6E887D";
paths = (
{
closed = 1;
nodes = (
"81 0 LINE",
"167 491 LINE",
"352 491 LINE",
"288 126 LINE SMOOTH",
"271 28 OFFCURVE",
"316 0 OFFCURVE",
"390 0 CURVE SMOOTH",
"440 0 LINE",
"450 58 LINE",
"411 58 LINE SMOOTH",
"363 58 OFFCURVE",
"343 73 OFFCURVE",
"356 144 CURVE SMOOTH",
"417 491 LINE",
"526 491 LINE",
"536 549 LINE",
"22 549 LINE",
"12 491 LINE",
"101 491 LINE",
"15 0 LINE"
);
}
);
width = 566;
}
);
note = pi;
unicode = 03C0;
},
